<?xml version="1.0" encoding="UTF-8"?>
<svg version="1.1" xmlns="http://www.w3.org/2000/svg" width="1004" height="591">
<path d="M0 0 C331.32 0 662.64 0 1004 0 C1004 195.03 1004 390.06 1004 591 C672.68 591 341.36 591 0 591 C0 395.97 0 200.94 0 0 Z " fill="#022031FF" transform="translate(0,0)"/>
<path d="M0 0 C0.9568721 -0.00087616 1.9137442 -0.00175232 2.89961243 -0.00265503 C6.04402977 0.00150571 9.18628034 0.0480872 12.33032227 0.09521484 C14.51748998 0.10641233 16.70467279 0.11494991 18.89186096 0.12094116 C24.63465283 0.14379562 30.376527 0.20269086 36.11895752 0.26916504 C41.98420804 0.33065991 47.84960757 0.35797163 53.71508789 0.38818359 C65.21353687 0.45243643 76.71130623 0.55477583 88.20922852 0.68115234 C86.17912613 4.96424945 83.9063443 8.64563512 80.20922852 11.68115234 C77.30720036 12.64692655 74.59640491 12.61860754 71.55761719 12.55175781 C70.70978668 12.56092728 69.86195618 12.57009674 68.98843384 12.57954407 C66.20042187 12.60176213 63.41513171 12.57514129 60.62719727 12.54833984 C58.68759302 12.55518772 56.74799769 12.56525375 54.8084259 12.57839966 C49.71384559 12.60495714 44.62019819 12.59073196 39.52563477 12.56707764 C33.31915195 12.54540628 27.11271281 12.5695493 20.90624714 12.58912849 C16.08174996 12.60380022 11.25765386 12.61080695 6.43315125 12.59494019 C5.54985641 12.59363602 4.66656158 12.59233185 3.75650024 12.59098816 C2.10036616 12.58833451 0.44423241 12.58187428 -1.21186829 12.57102966 C-3.07186475 12.57018966 -4.93177745 12.620089 -6.79077148 12.68115234 C-8.42169634 14.3120772 -7.9168015 16.13700869 -7.91775513 18.38830566 C-7.92198486 19.91536888 -7.92198486 19.91536888 -7.92630005 21.47328186 C-7.92427582 22.5995549 -7.92225159 23.72582794 -7.92016602 24.88623047 C-7.92191833 26.06495224 -7.92367065 27.24367401 -7.92547607 28.45811462 C-7.92913416 31.69976842 -7.92826122 34.94138168 -7.92509699 38.1830349 C-7.92257293 41.56851667 -7.92491105 44.95399566 -7.92648315 48.33947754 C-7.92830472 54.0258025 -7.9258989 59.7121145 -7.92114258 65.3984375 C-7.91569998 71.98143252 -7.91746265 78.56439657 -7.92296898 85.14739084 C-7.9275005 90.78984547 -7.92815047 96.43229075 -7.92553031 102.07474661 C-7.92396775 105.44892987 -7.92377321 108.82309855 -7.9270668 112.19728088 C-7.9295916 115.95690031 -7.92575516 119.71645932 -7.92016602 123.47607422 C-7.92219025 124.60234726 -7.92421448 125.7286203 -7.92630005 126.88902283 C-7.92348022 127.90706497 -7.9206604 128.92510712 -7.91775513 129.97399902 C-7.9173781 130.86407402 -7.91700108 131.75414902 -7.91661263 132.67119598 C-8.0133827 134.67905456 -8.0133827 134.67905456 -6.79077148 135.68115234 C-4.5401609 135.78041284 -2.28636764 135.80747669 -0.03356934 135.80813599 C0.68120119 135.80969598 1.39597171 135.81125597 2.13240194 135.81286323 C4.5454011 135.81687568 6.95833818 135.81368265 9.37133789 135.81054688 C11.09397926 135.81190081 12.81662034 135.81368069 14.53926086 135.81585693 C19.23127509 135.82043222 23.92326743 135.81864132 28.61528206 135.81547785 C33.51423326 135.81295474 38.41318252 135.81529165 43.31213379 135.81686401 C51.54069354 135.81868585 59.76924434 135.81627902 67.99780273 135.81152344 C77.5254995 135.80608079 87.05317486 135.80784344 96.58087111 135.81334984 C104.74559701 135.81788056 112.91031645 135.81853172 121.0750432 135.81591117 C125.95829144 135.81434817 130.84152962 135.81415526 135.72477722 135.81744766 C140.31458226 135.82032578 144.90435958 135.81835178 149.49416161 135.81255341 C151.183702 135.81122549 152.87324471 135.81162045 154.56278419 135.81381607 C156.85923029 135.81652635 159.15558611 135.81314798 161.45202637 135.80813599 C163.38446072 135.80757045 163.38446072 135.80757045 165.35593414 135.80699348 C168.10811102 136.00735792 168.10811102 136.00735792 169.20922852 134.68115234 C169.30730876 133.11459775 169.33554728 131.54362082 169.33621216 129.97399902 C169.33903198 128.95595688 169.34185181 127.93791473 169.34475708 126.88902283 C169.34273285 125.76274979 169.34070862 124.63647675 169.33862305 123.47607422 C169.34037537 122.29735245 169.34212769 121.11863068 169.34393311 119.90419006 C169.34759119 116.66253627 169.34671825 113.42092301 169.34355402 110.17926979 C169.34102996 106.79378801 169.34336809 103.40830903 169.34494019 100.02282715 C169.34676175 94.33650218 169.34435593 88.65019019 169.33959961 82.96386719 C169.33415701 76.38087217 169.33591968 69.79790811 169.34142601 63.21491385 C169.34595753 57.57245922 169.34660751 51.93001394 169.34398735 46.28755808 C169.34242478 42.91337482 169.34223024 39.53920614 169.34552383 36.1650238 C169.34804863 32.40540438 169.34421219 28.64584536 169.33862305 24.88623047 C169.34165939 23.19682091 169.34165939 23.19682091 169.34475708 21.47328186 C169.34193726 20.45523972 169.33911743 19.43719757 169.33621216 18.38830566 C169.33583513 17.49823067 169.33545811 16.60815567 169.33506966 15.6911087 C169.43183973 13.68325013 169.43183973 13.68325013 168.20922852 12.68115234 C166.79805149 12.55905311 165.38102393 12.50344362 163.96484375 12.47583008 C162.61355629 12.44591225 162.61355629 12.44591225 161.23497009 12.41539001 C160.25581131 12.39867752 159.27665253 12.38196503 158.26782227 12.36474609 C157.27041519 12.343965 156.27300812 12.3231839 155.24537659 12.30177307 C152.04590009 12.23616597 148.84633869 12.17734101 145.64672852 12.11865234 C143.48330813 12.07547772 141.31989646 12.03186379 139.15649414 11.98779297 C133.84082978 11.88047332 128.52508018 11.77872808 123.20922852 11.68115234 C124.91635804 7.91288027 126.90168414 6.18197858 130.20922852 3.68115234 C130.58845459 3.15513428 130.96768066 2.62911621 131.35839844 2.0871582 C134.36017876 -0.19318118 137.76158213 0.23383376 141.38500977 0.24755859 C142.18778854 0.24231674 142.99056732 0.23707489 143.81767273 0.23167419 C145.51645757 0.22525209 147.21528686 0.22659346 148.9140625 0.23510742 C151.50219977 0.24358835 154.08810788 0.21490897 156.67602539 0.18310547 C158.32901952 0.1814925 159.98201754 0.18207282 161.63500977 0.18505859 C162.40396072 0.17382462 163.17291168 0.16259064 163.96516418 0.15101624 C169.16083991 0.21772616 172.06341926 1.29738046 176.20922852 4.68115234 C180.07043772 8.95978957 181.33071869 11.95954245 181.34967041 17.6710968 C181.35538055 18.70149078 181.3610907 19.73188477 181.36697388 20.79350281 C181.36865067 22.48839592 181.36865067 22.48839592 181.37036133 24.2175293 C181.37532623 25.4080188 181.38029114 26.5985083 181.38540649 27.82507324 C181.39751529 31.091729 181.4049734 34.35834898 181.40941715 37.62502313 C181.41234983 39.66686481 181.41645502 41.70870091 181.42092133 43.75053978 C181.43459382 50.14175525 181.44426151 56.53295792 181.44812322 62.924187 C181.45260256 70.29671371 181.47014557 77.66905489 181.49912381 85.04152519 C181.52075652 90.74354694 181.53082835 96.44551655 181.53216434 102.1475789 C181.5332113 105.5515816 181.53909557 108.95540985 181.55698395 112.35936928 C181.57402166 116.15858675 181.5721694 119.95735171 181.56567383 123.7565918 C181.57488861 124.88044785 181.58410339 126.00430389 181.59359741 127.16221619 C181.56304595 132.86119573 181.22225397 136.67607741 178.20922852 141.68115234 C178.73381583 144.08486326 178.73381583 144.08486326 180.20922852 146.68115234 C180.81421506 148.22870305 181.40218781 149.78294834 181.97875977 151.34130859 C186.29541455 162.8174313 186.29541455 162.8174313 190.89672852 174.18115234 C191.27571289 175.08478516 191.65469727 175.98841797 192.04516602 176.91943359 C192.89716526 178.94078751 193.7577566 180.95852576 194.62329102 182.97412109 C199.64460068 195.16271913 199.64460068 195.16271913 198.20922852 201.68115234 C195.55564354 206.79878052 192.67805025 209.85821176 187.20922852 211.68115234 C184.38631036 211.78370885 181.58780688 211.82895825 178.76457214 211.82832336 C177.89236206 211.83200005 177.02015197 211.83567674 176.12151128 211.83946484 C173.18744693 211.85051235 170.25341798 211.85434731 167.31933594 211.8581543 C165.22027982 211.86441806 163.12122481 211.87106478 161.02217102 211.87806702 C155.31138799 211.8954829 149.60061333 211.90603006 143.88981032 211.91427255 C140.32363155 211.9194207 136.75745539 211.92549646 133.19127846 211.93178368 C122.03842386 211.95083607 110.8855759 211.96506798 99.73270816 211.97339565 C86.84917523 211.98317392 73.96581384 212.00950875 61.08234137 212.04989654 C51.12982637 212.08002816 41.17736063 212.09486165 31.22480088 212.09817666 C25.27773675 212.1005302 19.33085586 212.10953049 13.38384056 212.13463783 C7.79010522 212.15787226 2.1966744 212.16217035 -3.39709663 212.15187645 C-5.45059978 212.15137988 -7.50411769 212.15773587 -9.55757523 212.1714325 C-12.36047186 212.18908258 -15.16226743 212.18207917 -17.96516418 212.16889954 C-18.77830371 212.17986878 -19.59144324 212.19083803 -20.42922336 212.20213968 C-25.67500466 212.142562 -28.60363625 211.11107887 -32.79077148 207.68115234 C-36.15250718 203.85572896 -37.20918795 200.2985189 -37.13452148 195.17919922 C-36.37400131 189.65246455 -33.91306104 184.55094174 -31.79077148 179.43115234 C-31.28766647 178.18957813 -30.78588769 176.94746573 -30.28540039 175.70483398 C-29.27901053 173.21171248 -28.26541632 170.72173587 -27.24487305 168.234375 C-25.54188869 164.07298576 -23.87018066 159.89970498 -22.20483398 155.72314453 C-21.52780501 154.02611796 -20.84824177 152.33009955 -20.16577148 150.63525391 C-18.9711015 147.66772429 -17.80266122 144.71682156 -16.79077148 141.68115234 C-17.2571402 140.8742395 -17.72350891 140.06732666 -18.20401001 139.23596191 C-20.49709198 134.09878796 -20.2091532 129.36944183 -20.17895508 123.80419922 C-20.18421204 122.61327164 -20.18946899 121.42234406 -20.19488525 120.19532776 C-20.20580236 116.94112718 -20.20327764 113.68729458 -20.193748 110.43309975 C-20.1861298 107.02061846 -20.19320299 103.608161 -20.19790649 100.19567871 C-20.20335778 94.46601984 -20.19618897 88.73647715 -20.18188477 83.00683594 C-20.16555936 76.39137381 -20.17084832 69.7761891 -20.18736398 63.1607337 C-20.2009968 57.47136998 -20.20288977 51.78208957 -20.19504797 46.09271479 C-20.19038128 42.6988435 -20.1897188 39.30510244 -20.19965744 35.91123962 C-20.20727621 32.12667081 -20.19566064 28.34263462 -20.17895508 24.55810547 C-20.18502777 23.43896255 -20.19110046 22.31981964 -20.19735718 21.16676331 C-20.1356091 13.61552516 -19.1812093 8.83086162 -13.7151947 3.34872437 C-9.35592912 -0.14225896 -5.41685387 -0.13111511 0 0 Z " fill="#022031FF" transform="translate(421.790771484375,203.31884765625)"/>
<path d="M0 0 C0.9568721 -0.00087616 1.9137442 -0.00175232 2.89961243 -0.00265503 C6.04402977 0.00150571 9.18628034 0.0480872 12.33032227 0.09521484 C14.51748998 0.10641233 16.70467279 0.11494991 18.89186096 0.12094116 C24.63465283 0.14379562 30.376527 0.20269086 36.11895752 0.26916504 C41.98420804 0.33065991 47.84960757 0.35797163 53.71508789 0.38818359 C65.21353687 0.45243643 76.71130623 0.55477583 88.20922852 0.68115234 C86.17912613 4.96424945 83.9063443 8.64563512 80.20922852 11.68115234 C77.30720036 12.64692655 74.59640491 12.61860754 71.55761719 12.55175781 C70.70978668 12.56092728 69.86195618 12.57009674 68.98843384 12.57954407 C66.20042187 12.60176213 63.41513171 12.57514129 60.62719727 12.54833984 C58.68759302 12.55518772 56.74799769 12.56525375 54.8084259 12.57839966 C49.71384559 12.60495714 44.62019819 12.59073196 39.52563477 12.56707764 C33.31915195 12.54540628 27.11271281 12.5695493 20.90624714 12.58912849 C16.08174996 12.60380022 11.25765386 12.61080695 6.43315125 12.59494019 C5.54985641 12.59363602 4.66656158 12.59233185 3.75650024 12.59098816 C2.10036616 12.58833451 0.44423241 12.58187428 -1.21186829 12.57102966 C-3.07186475 12.57018966 -4.93177745 12.620089 -6.79077148 12.68115234 C-8.42169634 14.3120772 -7.9168015 16.13700869 -7.91775513 18.38830566 C-7.92198486 19.91536888 -7.92198486 19.91536888 -7.92630005 21.47328186 C-7.92427582 22.5995549 -7.92225159 23.72582794 -7.92016602 24.88623047 C-7.92191833 26.06495224 -7.92367065 27.24367401 -7.92547607 28.45811462 C-7.92913416 31.69976842 -7.92826122 34.94138168 -7.92509699 38.1830349 C-7.92257293 41.56851667 -7.92491105 44.95399566 -7.92648315 48.33947754 C-7.92830472 54.0258025 -7.9258989 59.7121145 -7.92114258 65.3984375 C-7.91569998 71.98143252 -7.91746265 78.56439657 -7.92296898 85.14739084 C-7.9275005 90.78984547 -7.92815047 96.43229075 -7.92553031 102.07474661 C-7.92396775 105.44892987 -7.92377321 108.82309855 -7.9270668 112.19728088 C-7.9295916 115.95690031 -7.92575516 119.71645932 -7.92016602 123.47607422 C-7.92219025 124.60234726 -7.92421448 125.7286203 -7.92630005 126.88902283 C-7.92348022 127.90706497 -7.9206604 128.92510712 -7.91775513 129.97399902 C-7.9173781 130.86407402 -7.91700108 131.75414902 -7.91661263 132.67119598 C-8.0133827 134.67905456 -8.0133827 134.67905456 -6.79077148 135.68115234 C-4.5401609 135.78041284 -2.28636764 135.80747669 -0.03356934 135.80813599 C0.68120119 135.80969598 1.39597171 135.81125597 2.13240194 135.81286323 C4.5454011 135.81687568 6.95833818 135.81368265 9.37133789 135.81054688 C11.09397926 135.81190081 12.81662034 135.81368069 14.53926086 135.81585693 C19.23127509 135.82043222 23.92326743 135.81864132 28.61528206 135.81547785 C33.51423326 135.81295474 38.41318252 135.81529165 43.31213379 135.81686401 C51.54069354 135.81868585 59.76924434 135.81627902 67.99780273 135.81152344 C77.5254995 135.80608079 87.05317486 135.80784344 96.58087111 135.81334984 C104.74559701 135.81788056 112.91031645 135.81853172 121.0750432 135.81591117 C125.95829144 135.81434817 130.84152962 135.81415526 135.72477722 135.81744766 C140.31458226 135.82032578 144.90435958 135.81835178 149.49416161 135.81255341 C151.183702 135.81122549 152.87324471 135.81162045 154.56278419 135.81381607 C156.85923029 135.81652635 159.15558611 135.81314798 161.45202637 135.80813599 C163.38446072 135.80757045 163.38446072 135.80757045 165.35593414 135.80699348 C168.10811102 136.00735792 168.10811102 136.00735792 169.20922852 134.68115234 C169.30730876 133.11459775 169.33554728 131.54362082 169.33621216 129.97399902 C169.33903198 128.95595688 169.34185181 127.93791473 169.34475708 126.88902283 C169.34273285 125.76274979 169.34070862 124.63647675 169.33862305 123.47607422 C169.34037537 122.29735245 169.34212769 121.11863068 169.34393311 119.90419006 C169.34759119 116.66253627 169.34671825 113.42092301 169.34355402 110.17926979 C169.34102996 106.79378801 169.34336809 103.40830903 169.34494019 100.02282715 C169.34676175 94.33650218 169.34435593 88.65019019 169.33959961 82.96386719 C169.33415701 76.38087217 169.33591968 69.79790811 169.34142601 63.21491385 C169.34595753 57.57245922 169.34660751 51.93001394 169.34398735 46.28755808 C169.34242478 42.91337482 169.34223024 39.53920614 169.34552383 36.1650238 C169.34804863 32.40540438 169.34421219 28.64584536 169.33862305 24.88623047 C169.34165939 23.19682091 169.34165939 23.19682091 169.34475708 21.47328186 C169.34193726 20.45523972 169.33911743 19.43719757 169.33621216 18.38830566 C169.33583513 17.49823067 169.33545811 16.60815567 169.33506966 15.6911087 C169.43183973 13.68325013 169.43183973 13.68325013 168.20922852 12.68115234 C166.79805149 12.55905311 165.38102393 12.50344362 163.96484375 12.47583008 C162.61355629 12.44591225 162.61355629 12.44591225 161.23497009 12.41539001 C160.25581131 12.39867752 159.27665253 12.38196503 158.26782227 12.36474609 C157.27041519 12.343965 156.27300812 12.3231839 155.24537659 12.30177307 C152.04590009 12.23616597 148.84633869 12.17734101 145.64672852 12.11865234 C143.48330813 12.07547772 141.31989646 12.03186379 139.15649414 11.98779297 C133.84082978 11.88047332 128.52508018 11.77872808 123.20922852 11.68115234 C124.91635804 7.91288027 126.90168414 6.18197858 130.20922852 3.68115234 C130.58845459 3.15513428 130.96768066 2.62911621 131.35839844 2.0871582 C134.36017876 -0.19318118 137.76158213 0.23383376 141.38500977 0.24755859 C142.18778854 0.24231674 142.99056732 0.23707489 143.81767273 0.23167419 C145.51645757 0.22525209 147.21528686 0.22659346 148.9140625 0.23510742 C151.50219977 0.24358835 154.08810788 0.21490897 156.67602539 0.18310547 C158.32901952 0.1814925 159.98201754 0.18207282 161.63500977 0.18505859 C162.40396072 0.17382462 163.17291168 0.16259064 163.96516418 0.15101624 C169.16083991 0.21772616 172.06341926 1.29738046 176.20922852 4.68115234 C180.07043772 8.95978957 181.33071869 11.95954245 181.34967041 17.6710968 C181.35538055 18.70149078 181.3610907 19.73188477 181.36697388 20.79350281 C181.36865067 22.48839592 181.36865067 22.48839592 181.37036133 24.2175293 C181.37532623 25.4080188 181.38029114 26.5985083 181.38540649 27.82507324 C181.39751529 31.091729 181.4049734 34.35834898 181.40941715 37.62502313 C181.41234983 39.66686481 181.41645502 41.70870091 181.42092133 43.75053978 C181.43459382 50.14175525 181.44426151 56.53295792 181.44812322 62.924187 C181.45260256 70.29671371 181.47014557 77.66905489 181.49912381 85.04152519 C181.52075652 90.74354694 181.53082835 96.44551655 181.53216434 102.1475789 C181.5332113 105.5515816 181.53909557 108.95540985 181.55698395 112.35936928 C181.57402166 116.15858675 181.5721694 119.95735171 181.56567383 123.7565918 C181.57488861 124.88044785 181.58410339 126.00430389 181.59359741 127.16221619 C181.56304595 132.86119573 181.22225397 136.67607741 178.20922852 141.68115234 C178.73381583 144.08486326 178.73381583 144.08486326 180.20922852 146.68115234 C180.81421506 148.22870305 181.40218781 149.78294834 181.97875977 151.34130859 C186.29541455 162.8174313 186.29541455 162.8174313 190.89672852 174.18115234 C191.27571289 175.08478516 191.65469727 175.98841797 192.04516602 176.91943359 C192.89716526 178.94078751 193.7577566 180.95852576 194.62329102 182.97412109 C199.64460068 195.16271913 199.64460068 195.16271913 198.20922852 201.68115234 C195.55564354 206.79878052 192.67805025 209.85821176 187.20922852 211.68115234 C184.38631036 211.78370885 181.58780688 211.82895825 178.76457214 211.82832336 C177.89236206 211.83200005 177.02015197 211.83567674 176.12151128 211.83946484 C173.18744693 211.85051235 170.25341798 211.85434731 167.31933594 211.8581543 C165.22027982 211.86441806 163.12122481 211.87106478 161.02217102 211.87806702 C155.31138799 211.8954829 149.60061333 211.90603006 143.88981032 211.91427255 C140.32363155 211.9194207 136.75745539 211.92549646 133.19127846 211.93178368 C122.03842386 211.95083607 110.8855759 211.96506798 99.73270816 211.97339565 C86.84917523 211.98317392 73.96581384 212.00950875 61.08234137 212.04989654 C51.12982637 212.08002816 41.17736063 212.09486165 31.22480088 212.09817666 C25.27773675 212.1005302 19.33085586 212.10953049 13.38384056 212.13463783 C7.79010522 212.15787226 2.1966744 212.16217035 -3.39709663 212.15187645 C-5.45059978 212.15137988 -7.50411769 212.15773587 -9.55757523 212.1714325 C-12.36047186 212.18908258 -15.16226743 212.18207917 -17.96516418 212.16889954 C-18.77830371 212.17986878 -19.59144324 212.19083803 -20.42922336 212.20213968 C-25.67500466 212.142562 -28.60363625 211.11107887 -32.79077148 207.68115234 C-36.15250718 203.85572896 -37.20918795 200.2985189 -37.13452148 195.17919922 C-36.37400131 189.65246455 -33.91306104 184.55094174 -31.79077148 179.43115234 C-31.28766647 178.18957813 -30.78588769 176.94746573 -30.28540039 175.70483398 C-29.27901053 173.21171248 -28.26541632 170.72173587 -27.24487305 168.234375 C-25.54188869 164.07298576 -23.87018066 159.89970498 -22.20483398 155.72314453 C-21.52780501 154.02611796 -20.84824177 152.33009955 -20.16577148 150.63525391 C-18.9711015 147.66772429 -17.80266122 144.71682156 -16.79077148 141.68115234 C-17.2571402 140.8742395 -17.72350891 140.06732666 -18.20401001 139.23596191 C-20.49709198 134.09878796 -20.2091532 129.36944183 -20.17895508 123.80419922 C-20.18421204 122.61327164 -20.18946899 121.42234406 -20.19488525 120.19532776 C-20.20580236 116.94112718 -20.20327764 113.68729458 -20.193748 110.43309975 C-20.1861298 107.02061846 -20.19320299 103.608161 -20.19790649 100.19567871 C-20.20335778 94.46601984 -20.19618897 88.73647715 -20.18188477 83.00683594 C-20.16555936 76.39137381 -20.17084832 69.7761891 -20.18736398 63.1607337 C-20.2009968 57.47136998 -20.20288977 51.78208957 -20.19504797 46.09271479 C-20.19038128 42.6988435 -20.1897188 39.30510244 -20.19965744 35.91123962 C-20.20727621 32.12667081 -20.19566064 28.34263462 -20.17895508 24.55810547 C-20.18502777 23.43896255 -20.19110046 22.31981964 -20.19735718 21.16676331 C-20.1356091 13.61552516 -19.1812093 8.83086162 -13.7151947 3.34872437 C-9.35592912 -0.14225896 -5.41685387 -0.13111511 0 0 Z M-6.79077148 147.68115234 C-7.58489743 149.25199214 -8.37698784 150.82386108 -9.16824341 152.39614868 C-9.60956163 153.27136988 -10.05087986 154.14659107 -10.50557137 155.04833412 C-12.38770926 158.90401922 -14.00882747 162.84509352 -15.59545898 166.82958984 C-15.92369659 167.64940338 -16.2519342 168.46921692 -16.59011841 169.31387329 C-17.27302835 171.02534298 -17.95350482 172.7377856 -18.6315918 174.45117188 C-19.67342914 177.0754411 -20.73188297 179.69263076 -21.79077148 182.31005859 C-22.45585966 183.98282824 -23.1199586 185.65599161 -23.78295898 187.32958984 C-24.10054169 188.10877777 -24.41812439 188.8879657 -24.74533081 189.69076538 C-26.2151505 193.45626377 -27.13486949 195.82517574 -25.79077148 199.68115234 C-23.99245646 201.47946737 -21.54293727 200.80640905 -19.14848715 200.81489575 C-18.33177414 200.81266503 -17.51506113 200.81043431 -16.67359924 200.80813599 C-15.38198998 200.81047597 -15.38198998 200.81047597 -14.0642876 200.81286323 C-11.15612265 200.81687705 -8.24800917 200.81368211 -5.33984375 200.81054688 C-3.26414967 200.81190076 -1.18845583 200.81368061 0.88723755 200.81585693 C6.54209691 200.82043311 12.19693812 200.81864088 17.85179782 200.81547785 C23.75659152 200.81295486 29.66138361 200.81529165 35.56617737 200.81686401 C45.48536459 200.81868603 55.40454438 200.81627871 65.32373047 200.81152344 C76.80659024 200.80608225 88.28943226 200.8078423 99.7722916 200.81334984 C109.61345206 200.81788184 119.45460716 200.81853105 129.29576832 200.81591117 C135.18117982 200.81434869 141.06658297 200.81415383 146.95199394 200.81744766 C152.48487177 200.82032758 158.01772662 200.81834843 163.55060196 200.81255341 C165.58642221 200.8112264 167.62224439 200.81161893 169.65806389 200.81381607 C172.42709328 200.81652991 175.19604805 200.81314351 177.96507263 200.80813599 C179.18679606 200.81148207 179.18679606 200.81148207 180.43320078 200.81489575 C184.45159427 200.8931049 184.45159427 200.8931049 188.20922852 199.68115234 C187.65544272 193.57297771 185.7511553 188.50474841 183.39672852 182.86865234 C182.7027181 181.17464193 182.00870768 179.48063151 181.31469727 177.78662109 C180.96761719 176.94663574 180.62053711 176.10665039 180.26293945 175.24121094 C177.1463774 167.66932268 174.20075973 160.04681625 171.35766602 152.36865234 C170.36842073 149.59209912 170.36842073 149.59209912 168.20922852 147.68115234 C165.07967322 147.38076269 165.07967322 147.38076269 161.32504272 147.44064331 C160.60871221 147.43893446 159.8923817 147.43722561 159.1543442 147.43546498 C156.7420375 147.4321576 154.3300059 147.44319408 151.91772461 147.45410156 C150.19331367 147.45466541 148.46890224 147.45434964 146.74449158 147.45321655 C142.05256913 147.452641 137.36074824 147.46442804 132.66884947 147.47836447 C127.76944202 147.49083811 122.87003244 147.49203966 117.97061157 147.49441528 C108.68813061 147.50063998 99.40569657 147.51706414 90.1232363 147.53711426 C79.55749667 147.55944254 68.99175483 147.57045895 58.4259975 147.58050513 C36.68704828 147.60142953 14.94814135 147.63662467 -6.79077148 147.68115234 Z " fill="#32EE88FF" transform="translate(421.790771484375,203.31884765625)"/>
<path d="M0 0 C3.42828835 2.04238455 5.88688048 4.10408169 7 8 C7.11641281 14.0534661 4.76383156 17.01997774 0.88671875 21.30078125 C-1 23 -1 23 -3.16796875 24.04296875 C-5.35820948 24.91721979 -5.35820948 24.91721979 -6 28 C-7.55761719 29.55175781 -7.55761719 29.55175781 -9.546875 31.203125 C-13.92049825 34.91466815 -18.09022425 38.80184424 -22.25 42.75 C-27.28568037 47.50887996 -32.32958191 52.25615867 -37.4375 56.9375 C-38.37335937 57.80117187 -39.30921875 58.66484375 -40.2734375 59.5546875 C-42.09405488 61.18750481 -43.95464618 62.77679429 -45.8515625 64.3203125 C-51.23214204 68.77053247 -53.76780856 71.75956605 -55.32421875 78.578125 C-56.79887411 83.86301705 -59.88827714 87.67770625 -64.5078125 90.5703125 C-72.73685609 94.76880413 -81.3680072 97.0705758 -90.52734375 94.2109375 C-93.85457523 92.58759551 -96.58399673 90.84406391 -99 88 C-99.1875 85.3125 -99.1875 85.3125 -99 83 C-97.783125 82.505 -96.56625 82.01 -95.3125 81.5 C-91.97250673 79.8446268 -90.3310658 78.42804601 -88.5 75.1875 C-85.21731848 69.38881587 -81.29592774 65.08777838 -74.83984375 62.95703125 C-73.71707031 62.66183594 -72.59429687 62.36664063 -71.4375 62.0625 C-65.76188392 60.52589887 -63.10309062 58.80412083 -59.60546875 54.140625 C-57.89997293 51.86663058 -56.04142964 49.9753262 -54 48 C-51.52036671 45.55336563 -49.14559624 43.07892226 -46.875 40.4375 C-43.45564723 36.46513117 -39.89467166 32.63734269 -36.3125 28.8125 C-35.70978271 28.16861328 -35.10706543 27.52472656 -34.48608398 26.86132812 C-33.26000496 25.55168612 -32.03384923 24.24211592 -30.80761719 22.93261719 C-28.00984955 19.94137886 -25.22071356 16.94228039 -22.4375 13.9375 C-21.96159424 13.42614502 -21.48568848 12.91479004 -20.99536133 12.38793945 C-18.69691243 9.90329537 -16.47909922 7.38144038 -14.34765625 4.75390625 C-10.00905958 -0.33546255 -6.37015427 -0.91801872 0 0 Z " fill="#32EE88FF" transform="translate(551,179)"/>
<path d="M0 0 C4.77204096 3.41537723 7.58010337 6.59423268 9.1875 12.3125 C10.97957472 23.19410689 4.83605399 34.218632 -1.3125 42.8125 C-7.0390366 49.61697291 -13.29632645 54.93761249 -21.3125 58.8125 C-22.14523437 59.225 -22.97796875 59.6375 -23.8359375 60.0625 C-34.78922534 64.58190816 -50.30232648 65.01049757 -61.5625 61.1875 C-63.17166402 60.44975228 -64.75752567 59.65851146 -66.3125 58.8125 C-67.57707031 58.17634766 -67.57707031 58.17634766 -68.8671875 57.52734375 C-80.68487048 51.07970212 -87.67369467 41.74411309 -92.6875 29.4375 C-93.31849487 26.78732155 -93.35783639 24.52361617 -93.3125 21.8125 C-85.37600916 26.13517715 -81.18154181 29.71864241 -77.3125 37.8125 C-71.60980644 46.12213919 -62.82011983 50.24137324 -53.3125 52.8125 C-52.64992188 52.99683594 -51.98734375 53.18117188 -51.3046875 53.37109375 C-39.28580105 56.03410193 -27.30601716 51.14389768 -17.3125 44.8125 C-9.58587064 39.61188408 -3.32304926 29.99581958 -1.3125 20.8125 C-0.9578887 17.76084498 -0.70430107 14.83560644 -1.3125 11.8125 C-3.67904551 8.9369489 -5.45237421 7.90599193 -9.1875 7.5 C-12.30316441 7.58328675 -12.30316441 7.58328675 -14.5625 9.1875 C-16.75681224 12.47896836 -17.16726473 15.37840897 -17.84375 19.234375 C-19.44863803 28.06125917 -23.68369894 33.75310973 -30.3125 39.8125 C-32.88450676 41.51800181 -35.42953168 42.73431673 -38.3125 43.8125 C-39.46105469 44.34230469 -39.46105469 44.34230469 -40.6328125 44.8828125 C-48.67546629 47.67312096 -58.04820686 46.36783382 -65.765625 43.1484375 C-71.97179037 39.89305628 -77.05006059 36.64670818 -79.3125 29.8125 C-72.37158023 29.23834303 -67.6600821 29.3887684 -61.96875 33.62109375 C-57.21074555 37.04371487 -50.87254312 36.29026211 -45.3125 35.8125 C-39.31349656 34.36573573 -34.69645101 31.23644036 -30.79296875 26.484375 C-28.56154214 22.45720929 -27.80247924 18.15052386 -26.86767578 13.68994141 C-25.49284036 7.56593682 -23.22674284 3.68568456 -18.3125 -0.1875 C-12.70700367 -3.72781347 -5.58692259 -3.31462945 0 0 Z " fill="#32EE88FF" transform="translate(541.3125,249.1875)"/>
<path d="M0 0 C14.85 0 29.7 0 45 0 C48.5625 15.4375 48.5625 15.4375 49 22 C48 23 48 23 45.94358826 23.12025452 C45.03979935 23.11803391 44.13601044 23.11581329 43.20483398 23.11352539 C42.18385117 23.11344986 41.16286835 23.11337433 40.11094666 23.11329651 C39.0005452 23.10813522 37.89014374 23.10297394 36.74609375 23.09765625 C35.61551041 23.0962413 34.48492706 23.09482635 33.32008362 23.09336853 C29.69252935 23.08775019 26.06503576 23.07519458 22.4375 23.0625 C19.98502693 23.05748736 17.5325529 23.05292405 15.08007812 23.04882812 C9.05336455 23.0377748 3.02668661 23.02101884 -3 23 C-4.16180608 19.07240184 -3.75984959 16.02720283 -3 12 C-2.67 11.67 -2.34 11.34 -2 11 C-1.79231771 9.52603261 -1.63283983 8.0450874 -1.5 6.5625 C-1.10958904 2.21917808 -1.10958904 2.21917808 0 0 Z " fill="#32EE88FF" transform="translate(480,375)"/>
<path d="M0 0 C4.63235294 2.26470588 4.63235294 2.26470588 6 5 C6.98041301 15.13093439 3.29468671 23.33556667 -2.75 31.375 C-11.18217629 41.24681615 -23.35013651 46.91211072 -36.1796875 48.22265625 C-47.5097235 48.686341 -57.13703 44.13856706 -66.1875 37.75 C-70.66827622 33.36879659 -74.79020397 28.27670649 -76 22 C-74.125 22.1875 -74.125 22.1875 -72 23 C-71.7525 23.721875 -71.505 24.44375 -71.25 25.1875 C-68.63646585 31.06795184 -62.60875865 33.97817031 -56.875 36.375 C-47.8522051 39.35339832 -38.00696247 39.44630622 -29.31640625 35.39453125 C-22.93227458 31.55113326 -16.44946268 26.2653554 -14 19 C-13.43583861 15.94858695 -12.99377023 12.89311289 -12.5625 9.8203125 C-11.7983482 5.98894027 -10.53701637 3.93342518 -8 1 C-5.17998673 -0.41000664 -3.12992745 -0.24548451 0 0 Z " fill="#022031FF" transform="translate(535,256)"/>
<path d="M0 0 C11.88 0 23.76 0 36 0 C38 9 38 9 38 13 C24.8 13 11.6 13 -2 13 C-1 3 -1 3 0 0 Z " fill="#022031FF" transform="translate(485,380)"/>
<path d="M0 0 C1.32 0.33 2.64 0.66 4 1 C4.71484375 2.76171875 4.71484375 2.76171875 5 5 C3.62890625 6.89453125 3.62890625 6.89453125 1.5625 8.8125 C0.45648437 9.85277344 0.45648437 9.85277344 -0.671875 10.9140625 C-3.48380166 13.4334733 -6.30837832 15.9344606 -9.17578125 18.390625 C-10.82471916 19.84536251 -12.35489869 21.35053206 -13.875 22.9375 C-16 25 -16 25 -18 25 C-18.33 25.99 -18.66 26.98 -19 28 C-20.55981445 29.55615234 -20.55981445 29.55615234 -22.55078125 31.2109375 C-26.88766954 34.89124894 -31.04702587 38.72621862 -35.1875 42.625 C-35.87263672 43.26695312 -36.55777344 43.90890625 -37.26367188 44.5703125 C-40.90369222 47.98961939 -44.49249822 51.44482344 -48 55 C-48.66 54.67 -49.32 54.34 -50 54 C-49.35933594 53.3709375 -48.71867187 52.741875 -48.05859375 52.09375 C-42.09682445 46.19417502 -36.48493771 40.13925255 -31.0859375 33.7265625 C-30.45945312 32.99179688 -29.83296875 32.25703125 -29.1875 31.5 C-28.62417969 30.8296875 -28.06085937 30.159375 -27.48046875 29.46875 C-26 28 -26 28 -24 28 C-23.73574219 27.40703125 -23.47148438 26.8140625 -23.19921875 26.203125 C-21.95629575 23.91970946 -20.69598354 22.52573277 -18.8125 20.75 C-15.64700826 17.67607207 -12.72507056 14.47252497 -9.84375 11.1328125 C-7.77149536 8.73567047 -5.66948778 6.36665177 -3.5625 4 C-2.88316406 3.236875 -2.20382812 2.47375 -1.50390625 1.6875 C-1.00761719 1.130625 -0.51132812 0.57375 0 0 Z " fill="#022031FF" transform="translate(545,186)"/>
<path d="M0 0 C2.3125 2.125 2.3125 2.125 4 5 C3.26327698 10.051815 0.84448728 12.78135949 -3 16 C-6.73649812 17.83658382 -9.67035583 18.2248107 -13.8125 18.125 C-15.27623047 18.09792969 -15.27623047 18.09792969 -16.76953125 18.0703125 C-17.50558594 18.04710937 -18.24164063 18.02390625 -19 18 C-16.47250948 11.30333118 -13.40081139 4.83478764 -6.8125 1.4375 C-4.21525074 0.28487459 -2.91514105 0 0 0 Z " fill="#022031FF" transform="translate(484,248)"/>
<path d="M0 0 C0.66 0 1.32 0 2 0 C1.75 1.875 1.75 1.875 1 4 C-0.31647119 4.69937532 -1.65022151 5.36729133 -3 6 C-3.33 6.99 -3.66 7.98 -4 9 C-5.55981445 10.55615234 -5.55981445 10.55615234 -7.55078125 12.2109375 C-11.88766954 15.89124894 -16.04702587 19.72621862 -20.1875 23.625 C-20.87263672 24.26695312 -21.55777344 24.90890625 -22.26367188 25.5703125 C-25.90369222 28.98961939 -29.49249822 32.44482344 -33 36 C-33.66 35.67 -34.32 35.34 -35 35 C-34.35933594 34.3709375 -33.71867187 33.741875 -33.05859375 33.09375 C-27.09682445 27.19417502 -21.48493771 21.13925255 -16.0859375 14.7265625 C-15.45945312 13.99179688 -14.83296875 13.25703125 -14.1875 12.5 C-13.34251953 11.49453125 -13.34251953 11.49453125 -12.48046875 10.46875 C-11 9 -11 9 -9 9 C-8.79375 8.4225 -8.5875 7.845 -8.375 7.25 C-6.50122558 4.18382368 -4.02419977 2.86599561 -1 1 C-0.67 0.67 -0.34 0.34 0 0 Z " fill="#022031FF" transform="translate(530,205)"/>
<path d="M0 0 C1.875 0.1875 1.875 0.1875 4 1 C4.69040574 2.65697379 5.3530635 4.3255761 6 6 C8.52056045 8.77152212 8.52056045 8.77152212 11 11 C9.02 11.99 9.02 11.99 7 13 C6.01364163 11.58833114 5.03618745 10.17043816 4.0625 8.75 C3.51722656 7.96109375 2.97195313 7.1721875 2.41015625 6.359375 C1.10377559 4.17363007 0.45019489 2.4846199 0 0 Z " fill="#022031FF" transform="translate(459,278)"/>
<path d="M0 0 C2.125 0.9375 2.125 0.9375 4 2 C4 1.34 4 0.68 4 0 C6.475 0.99 6.475 0.99 9 2 C9 2.99 9 3.98 9 5 C7.02 5.99 7.02 5.99 5 7 C3.35 5.68 1.7 4.36 0 3 C-0.99 3.495 -0.99 3.495 -2 4 C-2 3.01 -2 2.02 -2 1 C-1.34 0.67 -0.68 0.34 0 0 Z " fill="#022031FF" transform="translate(449,269)"/>
<path d="M0 0 C2.0625 0.4375 2.0625 0.4375 4 1 C2.9171875 1.556875 2.9171875 1.556875 1.8125 2.125 C-0.89107783 3.92738522 -2.5426254 5.76791638 -4.53125 8.3046875 C-7.3466962 11.55443126 -10.71221232 14.24250065 -14 17 C-14.66 16.67 -15.32 16.34 -16 16 C-10.66666667 10.66666667 -5.33333333 5.33333333 0 0 Z " fill="#32EE88FF" transform="translate(542,179)"/>
<path d="M0 0 C1.32 0.33 2.64 0.66 4 1 C3.65120368 4.25543229 2.97866739 5.01873107 0.4375 7.25 C-0.7690625 8.11625 -0.7690625 8.11625 -2 9 C-2.66 7.68 -3.32 6.36 -4 5 C-2.68 3.35 -1.36 1.7 0 0 Z " fill="#022031FF" transform="translate(546,187)"/>
<path d="M0 0 C0.33 0.99 0.66 1.98 1 3 C-3.62 7.62 -8.24 12.24 -13 17 C-13.66 16.67 -14.32 16.34 -15 16 C-14.33613281 15.34773437 -13.67226563 14.69546875 -12.98828125 14.0234375 C-8.42649537 9.50826841 -3.97889622 5.03993521 0 0 Z " fill="#022031FF" transform="translate(510,224)"/>
<path d="M0 0 C0.33 0.99 0.66 1.98 1 3 C0.525625 3.350625 0.05125 3.70125 -0.4375 4.0625 C-2.65942465 6.81768657 -2.5527537 9.54981423 -3 13 C-3.99 13.495 -3.99 13.495 -5 14 C-5 13.34 -5 12.68 -5 12 C-5.66 11.67 -6.32 11.34 -7 11 C-7 7.22089522 -6.00296038 6.53893899 -3.5 3.8125 C-2.8503125 3.09707031 -2.200625 2.38164062 -1.53125 1.64453125 C-1.0259375 1.10183594 -0.520625 0.55914062 0 0 Z " fill="#022031FF" transform="translate(556,194)"/>
<path d="M0 0 C0.66 0.99 1.32 1.98 2 3 C0.37660195 4.70884005 -1.29319053 6.37446717 -3 8 C-3.66 8 -4.32 8 -5 8 C-4.45773019 4.20411134 -2.79872437 2.52788007 0 0 Z " fill="#022031FF" transform="translate(516,218)"/>
</svg>
