<?xml version="1.0" standalone="no"?>
<!DOCTYPE svg PUBLIC "-//W3C//DTD SVG 20010904//EN"
 "http://www.w3.org/TR/2001/REC-SVG-20010904/DTD/svg10.dtd">
<svg version="1.0" xmlns="http://www.w3.org/2000/svg"
 width="500.000000pt" height="500.000000pt" viewBox="0 0 500.000000 500.000000"
 preserveAspectRatio="xMidYMid meet">

<g transform="translate(0.000000,500.000000) scale(0.100000,-0.100000)"
fill="#022031FF" stroke="none">
<path d="M1219 3692 c-56 -37 -94 -75 -131 -131 l-28 -45 0 -1016 0 -1016 28
-45 c37 -56 75 -94 131 -131 l45 -28 1246 0 1246 0 45 29 c62 42 71 50 112
104 l37 49 0 1038 0 1038 -37 49 c-41 54 -50 62 -112 104 l-45 29 -1246 0
-1246 0 -45 -28z m1419 -770 c5 -31 69 -63 99 -49 12 5 29 7 37 4 40 -15 0
-98 -66 -139 -43 -26 -44 -30 -22 -89 10 -26 17 -76 17 -121 1 -66 -3 -84 -31
-141 -39 -79 -109 -146 -187 -178 -46 -19 -54 -26 -49 -42 11 -35 7 -113 -7
-143 -18 -37 -62 -41 -67 -6 -4 28 -78 70 -95 53 -17 -17 -45 -13 -56 7 -18
33 34 109 91 133 33 13 32 8 3 114 -45 161 33 323 192 397 l64 30 -6 52 c-7
56 8 131 28 140 26 11 52 1 55 -22z m251 -15 c9 -8 70 -45 136 -84 459 -270
462 -272 479 -307 22 -47 20 -80 -6 -110 -18 -21 -253 -162 -478 -288 -19 -11
-60 -35 -91 -54 -31 -19 -59 -34 -63 -34 -3 0 -6 53 -6 118 l0 118 43 22 c139
71 322 171 324 179 2 4 -32 25 -74 46 -43 21 -125 66 -183 101 l-105 62 -3
122 c-1 67 1 122 4 122 4 0 15 -6 23 -13z m-771 -123 l-3 -117 -174 -92 c-96
-50 -176 -96 -178 -101 -2 -5 27 -24 64 -43 38 -18 114 -59 170 -92 56 -32
106 -59 112 -59 7 0 11 -43 11 -126 0 -69 -3 -124 -7 -122 -9 4 -217 126 -438
259 -178 106 -211 138 -201 199 6 42 19 53 139 123 51 30 126 74 167 98 41 24
84 49 95 55 11 6 44 25 73 42 29 18 55 32 57 32 2 0 26 14 52 30 26 17 51 30
55 30 5 0 7 -52 6 -116z"/>
<path d="M2630 2815 c0 -39 6 -42 38 -19 28 20 28 28 -3 42 -35 16 -35 16 -35
-23z"/>
<path d="M2523 2657 c-24 -11 -43 -23 -43 -26 0 -8 140 -64 146 -59 2 3 -3 28
-11 56 -18 59 -27 62 -92 29z"/>
<path d="M2430 2619 c0 -5 5 -7 10 -4 6 3 10 8 10 11 0 2 -4 4 -10 4 -5 0 -10
-5 -10 -11z"/>
<path d="M2415 2570 c-11 -12 -15 -24 -9 -29 13 -12 189 -91 202 -91 15 0 27
49 16 60 -11 9 -171 80 -183 80 -4 0 -16 -9 -26 -20z"/>
<path d="M2360 2531 c0 -6 5 -13 12 -17 6 -4 8 -3 4 4 -3 5 0 13 6 15 8 3 6 6
-4 6 -10 1 -18 -3 -18 -8z"/>
<path d="M2368 2460 c-4 -29 -2 -31 87 -70 51 -22 98 -40 104 -40 12 0 38 47
30 54 -9 9 -191 86 -203 86 -8 0 -16 -13 -18 -30z"/>
<path d="M2370 2361 c0 -22 20 -83 31 -95 9 -10 109 31 109 44 0 4 -31 21 -70
38 -62 28 -70 29 -70 13z"/>
<path d="M2332 2144 c-28 -20 -28 -28 3 -42 35 -16 35 -16 35 17 0 37 -11 44
-38 25z"/>
<path d="M2370 2050 c0 -5 5 -10 10 -10 6 0 10 5 10 10 0 6 -4 10 -10 10 -5 0
-10 -4 -10 -10z"/>
</g>
</svg>
