<?xml version="1.0" encoding="UTF-8"?>
<!DOCTYPE svg PUBLIC "-//W3C//DTD SVG 1.1//EN" "http://www.w3.org/Graphics/SVG/1.1/DTD/svg11.dtd">
<svg xmlns="http://www.w3.org/2000/svg" version="1.1" width="500px" height="500px" style="shape-rendering:geometricPrecision; text-rendering:geometricPrecision; image-rendering:optimizeQuality; fill-rule:evenodd; clip-rule:evenodd" xmlns:xlink="http://www.w3.org/1999/xlink">
<g><path style="opacity:0.898" fill="#8df3b4" d="M 363.5,147.5 C 362.883,147.611 362.383,147.944 362,148.5C 325.045,147.17 287.879,146.503 250.5,146.5C 213.5,146.667 176.5,146.833 139.5,147C 136.584,149.071 136.918,150.405 140.5,151C 137.1,150.793 133.766,150.959 130.5,151.5C 133.534,147.692 137.534,145.359 142.5,144.5C 214.437,144.36 286.437,144.526 358.5,145C 360.653,145.099 362.319,145.933 363.5,147.5 Z"/></g>
<g><path style="opacity:0.999" fill="#31ef89" d="M 363.5,147.5 C 370.167,150.833 375.167,155.833 378.5,162.5C 379.646,219.149 379.813,275.815 379,332.5C 378.167,331.5 377.333,330.5 376.5,329.5C 375.491,332.473 375.491,335.473 376.5,338.5C 375.5,338.5 374.5,338.5 373.5,338.5C 373.5,339.5 373.5,340.5 373.5,341.5C 372.5,341.5 371.5,341.5 370.5,341.5C 370.5,342.5 370.5,343.5 370.5,344.5C 369.5,344.5 368.5,344.5 367.5,344.5C 367.5,345.833 367.5,347.167 367.5,348.5C 366.106,350.708 364.106,352.208 361.5,353C 287.167,353.667 212.833,353.667 138.5,353C 130.438,348.693 124.272,342.527 120,334.5C 119.333,277.833 119.333,221.167 120,164.5C 122.257,159.085 125.757,154.751 130.5,151.5C 133.766,150.959 137.1,150.793 140.5,151C 136.918,150.405 136.584,149.071 139.5,147C 176.5,146.833 213.5,146.667 250.5,146.5C 287.879,146.503 325.045,147.17 362,148.5C 362.383,147.944 362.883,147.611 363.5,147.5 Z"/></g>
<g><path style="opacity:0.808" fill="#54e998" d="M 378.5,162.5 C 379.601,163.848 380.601,165.348 381.5,167C 381.152,222.749 380.652,278.583 380,334.5C 377.371,340.625 373.204,345.291 367.5,348.5C 367.5,347.167 367.5,345.833 367.5,344.5C 368.5,344.5 369.5,344.5 370.5,344.5C 370.5,343.5 370.5,342.5 370.5,341.5C 371.5,341.5 372.5,341.5 373.5,341.5C 373.5,340.5 373.5,339.5 373.5,338.5C 374.5,338.5 375.5,338.5 376.5,338.5C 375.491,335.473 375.491,332.473 376.5,329.5C 377.333,330.5 378.167,331.5 379,332.5C 379.813,275.815 379.646,219.149 378.5,162.5 Z"/></g>
<g><path style="opacity:1" fill="#197a54" d="M 261.5,206.5 C 265.207,204.871 267.373,206.204 268,210.5C 269.302,211.085 270.469,211.751 271.5,212.5C 267.167,212.833 265.167,210.833 265.5,206.5C 264.167,206.5 262.833,206.5 261.5,206.5 Z"/></g>
<g><path style="opacity:1" fill="#085b40" d="M 259.5,207.5 C 258.8,211.798 258.467,216.131 258.5,220.5C 257.84,219.036 257.507,217.369 257.5,215.5C 257.382,212.514 258.048,209.848 259.5,207.5 Z"/></g>
<g><path style="opacity:1" fill="#072233" d="M 261.5,206.5 C 262.833,206.5 264.167,206.5 265.5,206.5C 265.167,210.833 267.167,212.833 271.5,212.5C 271.842,213.338 272.508,213.672 273.5,213.5C 273.5,213.833 273.5,214.167 273.5,214.5C 272.22,215.931 270.553,216.598 268.5,216.5C 267.5,216.5 266.5,216.5 265.5,216.5C 265.5,217.833 265.5,219.167 265.5,220.5C 265.586,221.496 265.252,222.329 264.5,223C 262.564,223.813 260.564,224.313 258.5,224.5C 258.5,223.167 258.5,221.833 258.5,220.5C 258.467,216.131 258.8,211.798 259.5,207.5C 260.167,207.167 260.833,206.833 261.5,206.5 Z"/></g>
<g><path style="opacity:1" fill="#052031" d="M 330.5,231.5 C 332.484,234.164 335.151,235.831 338.5,236.5C 342.061,239.532 346.061,242.032 350.5,244C 354.641,248.625 355.474,253.791 353,259.5C 332.109,273.035 310.609,285.702 288.5,297.5C 287.702,297.043 287.369,296.376 287.5,295.5C 288.329,288.679 288.829,281.679 289,274.5C 290.518,273.837 291.685,272.837 292.5,271.5C 303.595,265.077 314.928,259.077 326.5,253.5C 313.661,246.246 300.661,239.246 287.5,232.5C 287.169,224.14 287.502,215.807 288.5,207.5C 302.24,216.034 316.24,224.034 330.5,231.5 Z"/></g>
<g><path style="opacity:1" fill="#0b97a3" d="M 273.5,214.5 C 274.833,214.5 276.167,214.5 277.5,214.5C 277.5,215.833 277.5,217.167 277.5,218.5C 275.5,218.5 273.5,218.5 271.5,218.5C 270.5,217.833 269.5,217.167 268.5,216.5C 270.553,216.598 272.22,215.931 273.5,214.5 Z"/></g>
<g><path style="opacity:1" fill="#2ee98f" d="M 268.5,216.5 C 269.5,217.167 270.5,217.833 271.5,218.5C 269.988,220.934 267.988,221.601 265.5,220.5C 265.5,219.167 265.5,217.833 265.5,216.5C 266.5,216.5 267.5,216.5 268.5,216.5 Z"/></g>
<g><path style="opacity:1" fill="#1becb7" d="M 277.5,223.5 C 277.284,221.319 278.117,219.653 280,218.5C 280.808,213.037 278.641,211.37 273.5,213.5C 272.508,213.672 271.842,213.338 271.5,212.5C 275.065,211.534 278.565,211.534 282,212.5C 282.45,217.102 280.95,220.769 277.5,223.5 Z"/></g>
<g><path style="opacity:1" fill="#0ae6d8" d="M 277.5,223.5 C 274.519,225.326 271.519,227.159 268.5,229C 269.056,229.383 269.389,229.883 269.5,230.5C 267.435,230.517 265.435,230.85 263.5,231.5C 259.255,231.709 255.589,233.376 252.5,236.5C 253.193,237.518 253.859,238.518 254.5,239.5C 251.392,237.778 248.725,238.278 246.5,241C 247.056,241.383 247.389,241.883 247.5,242.5C 244.648,242.936 242.981,244.603 242.5,247.5C 241.566,248.568 241.232,249.901 241.5,251.5C 240.307,251.97 239.64,252.97 239.5,254.5C 239.803,256.114 240.47,257.448 241.5,258.5C 239.744,259.552 239.077,261.219 239.5,263.5C 240.309,267.506 241.642,271.173 243.5,274.5C 243.736,277.621 245.069,279.954 247.5,281.5C 247.567,286.418 247.233,291.418 246.5,296.5C 245.05,297.655 244.05,299.155 243.5,301C 242.207,301.49 240.873,301.657 239.5,301.5C 239.634,299.708 239.301,298.042 238.5,296.5C 239.833,296.5 241.167,296.5 242.5,296.5C 242.69,294.041 241.69,292.374 239.5,291.5C 239.802,288.941 239.468,286.607 238.5,284.5C 238.553,280.862 236.887,278.862 233.5,278.5C 234.815,277.333 235.481,275.833 235.5,274C 230.369,264.166 230.202,254.332 235,244.5C 237.663,240.087 240.83,236.087 244.5,232.5C 249.352,229.753 254.019,227.086 258.5,224.5C 260.564,224.313 262.564,223.813 264.5,223C 265.252,222.329 265.586,221.496 265.5,220.5C 267.988,221.601 269.988,220.934 271.5,218.5C 273.5,218.5 275.5,218.5 277.5,218.5C 277.5,217.167 277.5,215.833 277.5,214.5C 276.167,214.5 274.833,214.5 273.5,214.5C 273.5,214.167 273.5,213.833 273.5,213.5C 278.641,211.37 280.808,213.037 280,218.5C 278.117,219.653 277.284,221.319 277.5,223.5 Z"/></g>
<g><path style="opacity:1" fill="#43a37d" d="M 330.5,231.5 C 333.511,232.669 336.178,234.336 338.5,236.5C 335.151,235.831 332.484,234.164 330.5,231.5 Z"/></g>
<g><path style="opacity:1" fill="#35af78" d="M 207.5,234.5 C 207.5,235.5 207.5,236.5 207.5,237.5C 204.673,237.584 202.006,238.25 199.5,239.5C 199.369,238.624 199.702,237.957 200.5,237.5C 202.662,235.98 204.995,234.98 207.5,234.5 Z"/></g>
<g><path style="opacity:1" fill="#30e38a" d="M 263.5,231.5 C 263.36,235.164 264.027,238.664 265.5,242C 265.167,242.833 264.833,243.667 264.5,244.5C 261.153,242.81 257.82,241.143 254.5,239.5C 253.859,238.518 253.193,237.518 252.5,236.5C 255.589,233.376 259.255,231.709 263.5,231.5 Z"/></g>
<g><path style="opacity:1" fill="#389271" d="M 197.5,239.5 C 195.516,242.164 192.849,243.831 189.5,244.5C 191.418,241.862 194.085,240.195 197.5,239.5 Z"/></g>
<g><path style="opacity:1" fill="#052131" d="M 207.5,234.5 C 204.995,234.98 202.662,235.98 200.5,237.5C 199.702,237.957 199.369,238.624 199.5,239.5C 198.833,239.5 198.167,239.5 197.5,239.5C 194.085,240.195 191.418,241.862 189.5,244.5C 186.895,244.621 184.895,245.621 183.5,247.5C 180.504,248.27 177.837,249.604 175.5,251.5C 175.5,252.167 175.5,252.833 175.5,253.5C 177.755,255.38 180.422,256.38 183.5,256.5C 183.842,257.338 184.508,257.672 185.5,257.5C 188.161,260.502 191.495,262.502 195.5,263.5C 196.514,264.674 197.847,265.34 199.5,265.5C 203.323,268.916 207.657,271.582 212.5,273.5C 213.467,281.414 213.801,289.414 213.5,297.5C 211.315,297.296 209.315,296.63 207.5,295.5C 206.22,294.069 204.553,293.402 202.5,293.5C 195.6,287.605 187.933,282.938 179.5,279.5C 174.299,275.399 168.633,272.065 162.5,269.5C 159.931,266.272 156.598,264.272 152.5,263.5C 150.197,261.022 148.031,258.355 146,255.5C 145.098,251.441 145.931,247.774 148.5,244.5C 165.677,233.788 183.01,223.454 200.5,213.5C 204.733,211.216 209.066,209.216 213.5,207.5C 213.5,215.5 213.5,223.5 213.5,231.5C 211.03,231.654 209.03,232.654 207.5,234.5 Z"/></g>
<g><path style="opacity:1" fill="#379266" d="M 183.5,247.5 C 181.388,249.771 178.721,251.104 175.5,251.5C 177.837,249.604 180.504,248.27 183.5,247.5 Z"/></g>
<g><path style="opacity:1" fill="#31e284" d="M 247.5,242.5 C 252.325,243.868 256.992,245.535 261.5,247.5C 263.972,248.642 264.972,250.642 264.5,253.5C 264.209,254.649 263.376,255.316 262,255.5C 255.567,252.701 249.067,250.035 242.5,247.5C 242.981,244.603 244.648,242.936 247.5,242.5 Z"/></g>
<g><path style="opacity:1" fill="#44977c" d="M 175.5,253.5 C 178.578,253.62 181.245,254.62 183.5,256.5C 180.422,256.38 177.755,255.38 175.5,253.5 Z"/></g>
<g><path style="opacity:1" fill="#3eaa7d" d="M 185.5,257.5 C 189.647,258.346 192.98,260.346 195.5,263.5C 191.495,262.502 188.161,260.502 185.5,257.5 Z"/></g>
<g><path style="opacity:1" fill="#31de85" d="M 241.5,251.5 C 247.992,254.751 254.659,257.418 261.5,259.5C 261.67,262.491 260.337,264.491 257.5,265.5C 252.136,263.149 246.802,260.816 241.5,258.5C 240.47,257.448 239.803,256.114 239.5,254.5C 239.64,252.97 240.307,251.97 241.5,251.5 Z"/></g>
<g><path style="opacity:1" fill="#072533" d="M 269.5,230.5 C 276.143,246.752 273.476,261.252 261.5,274C 257.145,277.214 252.478,279.714 247.5,281.5C 245.069,279.954 243.736,277.621 243.5,274.5C 247.146,274.15 250.146,272.483 252.5,269.5C 248.618,266.452 244.284,264.452 239.5,263.5C 239.077,261.219 239.744,259.552 241.5,258.5C 246.802,260.816 252.136,263.149 257.5,265.5C 260.337,264.491 261.67,262.491 261.5,259.5C 254.659,257.418 247.992,254.751 241.5,251.5C 241.232,249.901 241.566,248.568 242.5,247.5C 249.067,250.035 255.567,252.701 262,255.5C 263.376,255.316 264.209,254.649 264.5,253.5C 265.613,252.054 265.78,250.387 265,248.5C 263.989,247.663 262.822,247.33 261.5,247.5C 256.992,245.535 252.325,243.868 247.5,242.5C 247.389,241.883 247.056,241.383 246.5,241C 248.725,238.278 251.392,237.778 254.5,239.5C 257.82,241.143 261.153,242.81 264.5,244.5C 264.833,243.667 265.167,242.833 265.5,242C 264.027,238.664 263.36,235.164 263.5,231.5C 265.435,230.85 267.435,230.517 269.5,230.5 Z"/></g>
<g><path style="opacity:1" fill="#1b8c59" d="M 261.5,247.5 C 262.822,247.33 263.989,247.663 265,248.5C 265.78,250.387 265.613,252.054 264.5,253.5C 264.972,250.642 263.972,248.642 261.5,247.5 Z"/></g>
<g><path style="opacity:1" fill="#3dbb81" d="M 152.5,263.5 C 156.598,264.272 159.931,266.272 162.5,269.5C 158.133,269.028 154.799,267.028 152.5,263.5 Z"/></g>
<g><path style="opacity:1" fill="#3bc182" d="M 199.5,265.5 C 203.112,267.432 207.112,268.432 211.5,268.5C 211.366,270.292 211.699,271.958 212.5,273.5C 207.657,271.582 203.323,268.916 199.5,265.5 Z"/></g>
<g><path style="opacity:1" fill="#30e488" d="M 239.5,263.5 C 244.284,264.452 248.618,266.452 252.5,269.5C 250.146,272.483 247.146,274.15 243.5,274.5C 241.642,271.173 240.309,267.506 239.5,263.5 Z"/></g>
<g><path style="opacity:1" fill="#204b4f" d="M 292.5,271.5 C 291.685,272.837 290.518,273.837 289,274.5C 288.829,281.679 288.329,288.679 287.5,295.5C 287.334,288.159 287.5,280.826 288,273.5C 289.33,272.418 290.83,271.751 292.5,271.5 Z"/></g>
<g><path style="opacity:1" fill="#31de8d" d="M 238.5,284.5 C 239.468,286.607 239.802,288.941 239.5,291.5C 239.167,291.5 238.833,291.5 238.5,291.5C 232.017,289.414 232.017,287.081 238.5,284.5 Z"/></g>
<g><path style="opacity:1" fill="#0a2a34" d="M 233.5,278.5 C 236.887,278.862 238.553,280.862 238.5,284.5C 232.017,287.081 232.017,289.414 238.5,291.5C 238.768,293.099 238.434,294.432 237.5,295.5C 235.213,295.276 233.047,294.609 231,293.5C 228.851,295.458 226.518,295.791 224,294.5C 223.179,286.817 226.345,281.484 233.5,278.5 Z"/></g>
<g><path style="opacity:1" fill="#3ad285" d="M 179.5,279.5 C 187.933,282.938 195.6,287.605 202.5,293.5C 199.951,293.613 197.618,292.946 195.5,291.5C 194.5,292.167 193.5,292.833 192.5,293.5C 191.769,291.599 191.769,289.599 192.5,287.5C 188.437,285.971 184.437,284.138 180.5,282C 179.748,281.329 179.414,280.496 179.5,279.5 Z"/></g>
<g><path style="opacity:1" fill="#258c61" d="M 212.5,273.5 C 214.468,281.433 215.135,289.766 214.5,298.5C 212.801,298.66 211.134,298.494 209.5,298C 208.244,297.583 207.577,296.75 207.5,295.5C 209.315,296.63 211.315,297.296 213.5,297.5C 213.801,289.414 213.467,281.414 212.5,273.5 Z"/></g>
<g><path style="opacity:1" fill="#099ea4" d="M 238.5,291.5 C 238.833,291.5 239.167,291.5 239.5,291.5C 241.69,292.374 242.69,294.041 242.5,296.5C 241.167,296.5 239.833,296.5 238.5,296.5C 237.833,296.5 237.5,296.167 237.5,295.5C 238.434,294.432 238.768,293.099 238.5,291.5 Z"/></g>
</svg>
