<?xml version="1.0" encoding="UTF-8"?>
<svg version="1.1" xmlns="http://www.w3.org/2000/svg" width="1004" height="591">
<path d="M0 0 C331.32 0 662.64 0 1004 0 C1004 195.03 1004 390.06 1004 591 C672.68 591 341.36 591 0 591 C0 395.97 0 200.94 0 0 Z " fill="#022031FF" transform="translate(0,0)"/>
<path d="M0 0 C1.1392392 -0.0071553 2.27847839 -0.01431061 3.45223999 -0.02168274 C7.20164625 -0.03853088 10.94985038 -0.01918786 14.69921875 0.00219727 C17.31420999 0.00136822 19.92920117 -0.0010925 22.54418945 -0.00511169 C28.01820597 -0.00962249 33.49187965 0.00617357 38.96582031 0.03417969 C45.27804916 0.06622743 51.58966 0.0662128 57.90193272 0.04896492 C63.99528799 0.03305426 70.08838223 0.03996191 76.18173218 0.05690193 C78.76524349 0.06207583 81.34877258 0.0616116 83.93228149 0.05535698 C87.54638623 0.04989147 91.15945129 0.07032525 94.7734375 0.09765625 C96.36652237 0.08786743 96.36652237 0.08786743 97.99179077 0.07788086 C105.02399744 0.16805565 110.77762068 1.20621435 116.02038574 6.1813879 C121.68724217 12.67573496 119.90517969 23.12272036 119.69921875 31.13110352 C119.67410692 32.82898738 119.65129883 34.52690697 119.63085938 36.22485352 C119.57608563 40.3611602 119.48997588 44.49573469 119.38671875 48.63110352 C120.41555176 48.61539307 121.44438477 48.59968262 122.50439453 48.58349609 C126.33976338 48.52899017 130.17509832 48.49467874 134.01074219 48.46630859 C135.66737638 48.45126887 137.32397106 48.43083175 138.98046875 48.40478516 C141.36858905 48.36818836 143.75618063 48.35132912 146.14453125 48.33813477 C146.87914581 48.32265091 147.61376038 48.30716705 148.37063599 48.29121399 C153.82917199 48.28944773 157.98742329 49.39138115 162.03125 53.16625977 C165.04558183 57.10807831 166.50807761 59.15385069 166.53388977 64.07646179 C166.54462273 65.47898949 166.54462273 65.47898949 166.55557251 66.90985107 C166.55826141 67.93894592 166.56095032 68.96804077 166.5637207 70.02832031 C166.5702919 71.10976822 166.5768631 72.19121613 166.58363342 73.30543518 C166.603401 76.89706486 166.61503745 80.48865263 166.625 84.08032227 C166.62907553 85.30539804 166.63315105 86.53047382 166.63735008 87.79267311 C166.6560723 93.60884266 166.67063363 99.42499569 166.67896205 105.24118966 C166.68775445 111.28135292 166.70702713 117.32126463 166.7434082 123.36132812 C166.78181753 129.84107619 166.80064715 136.32059729 166.80516624 142.80045509 C166.81003901 145.2703863 166.82167251 147.74031379 166.84020424 150.21018028 C166.86454305 153.66935929 166.8636396 157.1276757 166.85668945 160.58691406 C166.87590454 162.1153746 166.87590454 162.1153746 166.89550781 163.67471313 C166.85008919 169.88276972 166.03859757 173.56118386 162.38671875 178.63110352 C157.248547 183.39331148 153.20550589 183.77532913 146.4375 183.72875977 C145.66488327 183.72734482 144.89226654 183.72592987 144.09623718 183.72447205 C141.63052486 183.71887818 139.1649036 183.70632684 136.69921875 183.69360352 C135.02669402 183.68858772 133.35416787 183.68402495 131.68164062 183.67993164 C127.58329829 183.66891076 123.48502396 183.65165036 119.38671875 183.63110352 C119.41290283 184.89180664 119.43908691 186.15250977 119.46606445 187.45141602 C119.55696857 192.15517234 119.61411385 196.85885193 119.66137695 201.56323242 C119.68642979 203.59428999 119.72048195 205.62525822 119.76391602 207.65600586 C119.82497562 210.58542999 119.85302102 213.5136563 119.875 216.44360352 C119.90080643 217.34288574 119.92661285 218.24216797 119.95320129 219.16870117 C119.95590252 225.32202363 118.81571309 230.14601485 114.38671875 234.63110352 C108.32548449 239.12492494 103.19051092 239.20944474 95.79516602 239.16455078 C94.64631927 239.17316635 93.49747253 239.18178192 92.31381226 239.19065857 C88.5266855 239.21330959 84.74029925 239.20658056 80.953125 239.19750977 C78.31428304 239.20274576 75.67544297 239.20902216 73.03660583 239.21629333 C67.5095999 239.22812479 61.98280382 239.22246825 56.45581055 239.20751953 C50.08162462 239.19060152 43.7081237 239.20643423 37.33401257 239.23874241 C31.18353336 239.26872722 25.03336606 239.27060888 18.88282585 239.26124382 C16.27418057 239.26042462 13.66552099 239.26728192 11.05691719 239.28201485 C7.40666176 239.29947035 3.75786334 239.28490675 0.10766602 239.26220703 C-0.96531235 239.27389923 -2.03829071 239.28559143 -3.14378357 239.29763794 C-9.8486294 239.21297841 -14.47589764 238.09002787 -19.61328125 233.63110352 C-24.41511993 227.67862662 -24.15869752 222.0722178 -24.08203125 214.63500977 C-24.08908081 213.48749741 -24.09613037 212.33998505 -24.10339355 211.15769958 C-24.13280326 206.26972721 -24.11626185 201.38215708 -24.10400391 196.49414062 C-24.10161822 192.91585658 -24.12256743 189.33821404 -24.14453125 185.76000977 C-24.13321167 184.66394913 -24.12189209 183.56788849 -24.11022949 182.43861389 C-24.15470148 175.65857615 -25.18744991 171.48413128 -28.61328125 165.63110352 C-28.61328125 164.97110352 -28.61328125 164.31110352 -28.61328125 163.63110352 C-29.50015625 163.48672852 -30.38703125 163.34235352 -31.30078125 163.19360352 C-33.30691506 162.85293928 -35.30908663 162.48546983 -37.30078125 162.06860352 C-39.71231282 161.53815768 -39.71231282 161.53815768 -42.61328125 161.63110352 C-42.61328125 162.29110352 -42.61328125 162.95110352 -42.61328125 163.63110352 C-45.70173277 164.0645704 -47.63308112 164.33202166 -50.61328125 163.63110352 C-53.38542723 161.27530646 -55.47624364 158.56101304 -57.61328125 155.63110352 C-57.94328125 155.30110352 -58.27328125 154.97110352 -58.61328125 154.63110352 C-58.75273839 150.58684641 -58.68839334 147.05924241 -57.98828125 143.06860352 C-57.53583511 138.92118061 -57.83238519 136.41550764 -59.61328125 132.63110352 C-62.99047321 131.36851985 -62.99047321 131.36851985 -66.61328125 130.63110352 C-69.71311452 128.34905157 -70.52379426 127.1544481 -71.1796875 123.31860352 C-71.17839844 122.10172852 -71.17710937 120.88485352 -71.17578125 119.63110352 C-71.19769531 118.41422852 -71.21960938 117.19735352 -71.2421875 115.94360352 C-70.61328125 112.63110352 -70.61328125 112.63110352 -68.2421875 110.24438477 C-65.61328125 108.63110352 -65.61328125 108.63110352 -62.98828125 107.81860352 C-60.28638868 106.73691845 -60.28638868 106.73691845 -58.73828125 103.44360352 C-57.48838417 99.20784117 -57.78531257 96.92148667 -58.61328125 92.63110352 C-59.56235396 85.98759454 -59.56235396 85.98759454 -57.0390625 82.38110352 C-54.03439178 79.17612142 -51.59716192 76.97835552 -47.42578125 75.50610352 C-44.61328125 75.63110352 -44.61328125 75.63110352 -42.17578125 76.63110352 C-38.68434011 77.99361713 -36.24288557 77.35702438 -32.61328125 76.63110352 C-31.85015625 76.56922852 -31.08703125 76.50735352 -30.30078125 76.44360352 C-28.26342321 75.69857554 -28.26342321 75.69857554 -27.48828125 72.75610352 C-27.19953125 71.72485352 -26.91078125 70.69360352 -26.61328125 69.63110352 C-25.62328125 68.14610352 -25.62328125 68.14610352 -24.61328125 66.63110352 C-24.31265729 64.24356605 -24.31265729 64.24356605 -24.35791016 61.55224609 C-24.34747177 59.9996685 -24.34747177 59.9996685 -24.33682251 58.41572571 C-24.33781952 57.2969957 -24.33881653 56.17826569 -24.33984375 55.02563477 C-24.31954681 52.65648948 -24.29869588 50.2873489 -24.27734375 47.91821289 C-24.25478129 44.1833908 -24.23828934 40.4487542 -24.23242188 36.71386719 C-24.22287223 33.1091148 -24.18905352 29.50519886 -24.15234375 25.90063477 C-24.15738922 24.79202591 -24.16243469 23.68341705 -24.16763306 22.54121399 C-24.08583181 16.06031333 -23.64446839 10.87265606 -19.61328125 5.63110352 C-13.62814751 0.26904987 -7.75145902 -0.08533595 0 0 Z " fill="#32EE88FF" transform="translate(454.61328125,176.368896484375)"/>
<path d="M0 0 C34.32 0 68.64 0 104 0 C104.103125 13.426875 104.20625 26.85375 104.3125 40.6875 C104.35802002 44.92295654 104.40354004 49.15841309 104.45043945 53.5222168 C104.47302246 58.70471191 104.47302246 58.70471191 104.47721863 61.13288879 C104.48488354 62.82440266 104.50244258 64.51588963 104.52787781 66.20722961 C104.56453475 68.77364353 104.56952865 71.33839242 104.56762695 73.9050293 C104.58561749 74.65524447 104.60360804 75.40545965 104.62214375 76.17840862 C104.58227677 80.20362525 104.15510202 81.81539137 101.52702332 84.94343567 C100.69310562 85.6221019 99.85918793 86.30076813 99 87 C98.67 87.33 98.34 87.66 98 88 C95.13015398 88.1218743 92.28396373 88.17864488 89.4128418 88.19287109 C88.51203888 88.20104858 87.61123596 88.20922607 86.68313599 88.21765137 C83.68850379 88.24255694 80.69391914 88.25903439 77.69921875 88.2734375 C76.67910013 88.27876118 75.65898151 88.28408485 74.60795021 88.28956985 C69.20877457 88.3163237 63.80962223 88.33569156 58.41040039 88.35009766 C52.82459492 88.3667523 47.23937869 88.41153075 41.6537962 88.4624691 C37.36702269 88.49607636 33.08039013 88.50766796 28.79349709 88.51332474 C26.73414417 88.52005514 24.6748011 88.53532333 22.61557579 88.55921555 C19.73500543 88.59073056 16.8560383 88.59092445 13.9753418 88.58349609 C12.694842 88.6081041 12.694842 88.6081041 11.38847351 88.63320923 C5.60848999 88.57208219 5.60848999 88.57208219 2.50154114 85.65103149 C-0.05123179 81.14400784 -0.13808088 77.3568006 -0.11352539 72.31567383 C-0.11364593 71.52233737 -0.11376646 70.72900091 -0.11389065 69.91162395 C-0.11314421 67.34339788 -0.1055282 64.77524435 -0.09765625 62.20703125 C-0.096186 60.6215417 -0.0951658 59.03605166 -0.09460449 57.45056152 C-0.08936126 51.57120028 -0.07540007 45.69184943 -0.0625 39.8125 C-0.041875 26.674375 -0.02125 13.53625 0 0 Z " fill="#022031FF" transform="translate(510,264)"/>
<path d="M0 0 C41.91 0 83.82 0 127 0 C127 2.64 127 5.28 127 8 C126.40166855 8.00808685 125.8033371 8.01617371 125.18687439 8.02450562 C118.94085997 8.11078318 112.69515446 8.21029626 106.44946289 8.31738281 C104.12073976 8.35558779 101.79195933 8.39045526 99.46313477 8.421875 C96.1093299 8.46770962 92.75591665 8.52567425 89.40234375 8.5859375 C88.36665756 8.59748871 87.33097137 8.60903992 86.26390076 8.62094116 C76.47951336 8.79507015 76.47951336 8.79507015 68.125 13.4375 C65.31093789 16.83092784 64.87546424 19.25499458 64.85282898 23.5209198 C64.84567368 24.44745361 64.83851837 25.37398743 64.83114624 26.32859802 C64.82845734 27.34317581 64.82576843 28.3577536 64.82299805 29.40307617 C64.81642685 30.47331024 64.80985565 31.54354431 64.80308533 32.64620972 C64.78334274 36.19513008 64.77168703 39.7440081 64.76171875 43.29296875 C64.75764322 44.50484674 64.7535677 45.71672474 64.74936867 46.96532631 C64.72850302 53.38060969 64.71420388 59.79587166 64.70483398 66.21118164 C64.69377353 72.83446511 64.65937873 79.45741226 64.61966228 86.0805769 C64.59350347 91.1755892 64.58514273 96.27052132 64.58155251 101.36559486 C64.57668405 103.80678896 64.56506279 106.24797941 64.54651451 108.68910789 C64.52214164 112.1096591 64.52308533 115.52933953 64.5300293 118.94995117 C64.51721924 119.95440781 64.50440918 120.95886444 64.49121094 121.99375916 C64.53683623 128.17431588 65.47200715 132.83819244 69 138 C72.68012361 141.45708582 76.08302368 142.1199535 81.0222168 142.20532227 C82.04304855 142.22526749 83.06388031 142.24521271 84.11564636 142.26576233 C85.21572525 142.28247482 86.31580414 142.29918732 87.44921875 142.31640625 C89.14084892 142.3475779 89.14084892 142.3475779 90.86665344 142.37937927 C94.4735396 142.44482847 98.08049929 142.50373844 101.6875 142.5625 C104.13086702 142.60568961 106.57422656 142.64930404 109.01757812 142.69335938 C115.01164316 142.8005052 121.00578224 142.90178591 127 143 C127 147.95 127 152.9 127 158 C85.09 158 43.18 158 0 158 C0 150.08 0 142.16 0 134 C4.455 133.01 4.455 133.01 9 132 C10.6430496 130.02261352 10.6430496 130.02261352 11.125 127.5625 C12.62978187 123.28864464 12.62978187 123.28864464 14.61328125 121.7421875 C18.03570474 120.23251033 21.2947063 119.48537587 25 120 C26.485 120.99 26.485 120.99 28 122 C30.78444577 122.75383338 30.78444577 122.75383338 34 122 C37.48103532 119.55817486 41.0739748 116.85205041 43 113 C43.34092041 107.67032792 43.34092041 107.67032792 41 103 C41.25 100.6875 41.25 100.6875 42 98 C42.144375 97.01 42.28875 96.02 42.4375 95 C44.61428691 90.82056913 47.55924335 89.89702582 51.78515625 88.078125 C54.15148328 87.20409694 54.15148328 87.20409694 55 85 C55.17369832 83.04660577 55.26696102 81.08557296 55.3125 79.125 C55.36857422 77.55105469 55.36857422 77.55105469 55.42578125 75.9453125 C54.89795322 72.29409842 53.8847651 71.22495181 51 69 C49.824375 68.566875 48.64875 68.13375 47.4375 67.6875 C44 66 44 66 42 62.6875 C40.96850225 58.88385205 40.92711431 56.75509991 42 53 C42.33 52.67 42.66 52.34 43 52 C43.49025108 48.84060418 43.7456209 47.03076119 43 44 C39.94724049 40.02308005 36.50307587 37.49139019 31.75 35.9375 C29.04409255 35.79799113 29.04409255 35.79799113 27.0625 37 C23.86583654 38.54989744 21.402008 37.71621221 18 37 C17.113125 36.835 16.22625 36.67 15.3125 36.5 C12.06493799 34.39347329 11.59695355 31.74257782 10.578125 28.09375 C8.50169247 24.867723 8.50169247 24.867723 0 24 C0 16.08 0 8.16 0 0 Z " fill="#022031FF" transform="translate(439,217)"/>
<path d="M0 0 C41.91 0 83.82 0 127 0 C127 6.27 127 12.54 127 19 C121.37478567 24.62521433 121.37478567 24.62521433 116.99060059 24.63491821 C115.51444527 24.65606689 115.51444527 24.65606689 114.00846863 24.67764282 C112.94026382 24.66752167 111.87205902 24.65740051 110.77148438 24.64697266 C109.63761795 24.65573425 108.50375153 24.66449585 107.33552551 24.67352295 C103.58787764 24.69552762 99.84140985 24.68095882 96.09375 24.6640625 C93.4897031 24.66743028 90.88565773 24.67228258 88.28161621 24.67855835 C82.8241701 24.68764734 77.36706263 24.67568721 71.90966797 24.65185547 C65.6058779 24.624645 59.30289644 24.63345974 52.99912596 24.6609875 C46.92763794 24.68643667 40.85650759 24.68371125 34.7849884 24.66907883 C32.20457343 24.66574161 29.62413785 24.6698429 27.04374695 24.68147659 C23.43811249 24.69416478 19.83403408 24.67483317 16.22851562 24.64697266 C15.16031082 24.65709381 14.09210602 24.66721497 12.99153137 24.67764282 C12.00742783 24.6635437 11.02332428 24.64944458 10.00939941 24.63491821 C8.73185665 24.63209052 8.73185665 24.63209052 7.42850494 24.6292057 C5 24 5 24 0 19 C0 12.73 0 6.46 0 0 Z " fill="#022031FF" transform="translate(439,383)"/>
<path d="M0 0 C0.98135422 -0.00997513 1.96270844 -0.01995026 2.97380066 -0.03022766 C4.04919601 -0.03089233 5.12459137 -0.03155701 6.23257446 -0.03224182 C7.36614883 -0.04056534 8.49972321 -0.04888885 9.66764832 -0.0574646 C13.42581589 -0.08161757 17.1838101 -0.09034309 20.94204712 -0.09693909 C23.54895074 -0.10590104 26.15585382 -0.1150228 28.76275635 -0.1242981 C34.23203174 -0.14166755 39.70126281 -0.1485245 45.17056274 -0.15138245 C51.48901541 -0.15501757 57.80698227 -0.18491037 64.12528646 -0.22678703 C70.2063116 -0.26567618 76.28710053 -0.27697526 82.36824417 -0.2781086 C84.95426697 -0.28232103 87.54028981 -0.29479596 90.12623215 -0.31562614 C93.74153899 -0.34243028 97.35550081 -0.33774649 100.97085571 -0.32521057 C102.57787605 -0.34746201 102.57787605 -0.34746201 104.21736145 -0.37016296 C105.20435532 -0.36039932 106.19134918 -0.35063568 107.20825195 -0.34057617 C108.48969117 -0.34359316 108.48969117 -0.34359316 109.79701805 -0.3466711 C112.23110962 0.27415466 112.23110962 0.27415466 117.23110962 5.27415466 C117.23110962 11.54415466 117.23110962 17.81415466 117.23110962 24.27415466 C75.32110962 24.27415466 33.41110962 24.27415466 -9.76889038 24.27415466 C-9.76889038 6.27415466 -9.76889038 6.27415466 -7.76889038 2.27415466 C-4.55361442 0.13063735 -3.7011481 0.02016571 0 0 Z " fill="#022031FF" transform="translate(448.7688903808594,184.72584533691406)"/>
<path d="M0 0 C0.73397003 -0.00700928 1.46794006 -0.01401855 2.22415161 -0.02124023 C4.64070922 -0.03878834 7.05608756 -0.02720978 9.47265625 -0.01367188 C11.15747298 -0.01636773 12.84228819 -0.02025093 14.52709961 -0.02526855 C18.05435023 -0.03115925 21.58119507 -0.02261473 25.10839844 -0.00390625 C29.62461142 0.01888338 34.13987353 0.00575795 38.65605164 -0.01819611 C42.13398372 -0.03266586 45.6116912 -0.02804277 49.08963013 -0.01768494 C50.75456862 -0.01502089 52.41952764 -0.0182761 54.08444214 -0.02760315 C56.41361323 -0.0377886 58.74125502 -0.02224207 61.0703125 0 C61.75513702 -0.00809692 62.43996155 -0.01619385 63.14553833 -0.02453613 C67.83916627 0.05829738 70.263819 1.16871408 73.53515625 4.51757812 C74.18212891 7.00366211 74.18212891 7.00366211 74.19921875 9.76367188 C74.20566406 10.76591797 74.21210937 11.76816406 74.21875 12.80078125 C74.18974609 14.3621582 74.18974609 14.3621582 74.16015625 15.95507812 C74.17949219 16.99212891 74.19882812 18.02917969 74.21875 19.09765625 C74.21230469 20.10119141 74.20585938 21.10472656 74.19921875 22.13867188 C74.1935791 23.05060303 74.18793945 23.96253418 74.18212891 24.90209961 C73.2502365 28.66940651 71.52692771 30.0872767 68.53515625 32.51757812 C65.83508749 33.01406871 63.7624969 33.2043391 61.0703125 33.16455078 C59.96935745 33.17769318 59.96935745 33.17769318 58.84616089 33.19110107 C56.42938436 33.2130382 54.01445009 33.19856459 51.59765625 33.18164062 C49.91283824 33.18501045 48.2280226 33.18986445 46.54321289 33.19613647 C43.01587733 33.20350003 39.48917579 33.19281958 35.96191406 33.16943359 C31.44551631 33.14094539 26.93060413 33.15735224 22.41426086 33.18729591 C18.93628796 33.20538332 15.45866598 33.19960441 11.98068237 33.18665695 C10.31574324 33.18332689 8.65077201 33.18739599 6.98587036 33.19905472 C4.65639142 33.21178822 2.32930142 33.19235628 0 33.16455078 C-0.68482452 33.17467194 -1.36964905 33.18479309 -2.07522583 33.19522095 C-5.87600638 33.11137536 -7.40038693 32.56993824 -10.39096069 30.14060974 C-12.73517946 27.17565956 -13.10586458 25.86450999 -13.12890625 22.13867188 C-13.13535156 21.13513672 -13.14179687 20.13160156 -13.1484375 19.09765625 C-13.11943359 17.54208008 -13.11943359 17.54208008 -13.08984375 15.95507812 C-13.10917969 14.91416016 -13.12851562 13.87324219 -13.1484375 12.80078125 C-13.14199219 11.79853516 -13.13554688 10.79628906 -13.12890625 9.76367188 C-13.1232666 8.85286865 -13.11762695 7.94206543 -13.11181641 7.00366211 C-11.44372414 0.59378152 -5.76695052 -0.06818471 0 0 Z " fill="#32EE88FF" transform="translate(531.46484375,271.482421875)"/>
<path d="M0 0 C0.78071869 -0.01409912 1.56143738 -0.02819824 2.36581421 -0.04272461 C3.20803024 -0.03260345 4.05024628 -0.0224823 4.91798401 -0.01205444 C5.81615845 -0.02081604 6.71433289 -0.02957764 7.63972473 -0.03860474 C10.60349597 -0.06057909 13.56577033 -0.04605165 16.52955627 -0.02914429 C18.59312221 -0.03251328 20.65668621 -0.03736659 22.72024536 -0.04364014 C27.04367477 -0.05100907 31.36658737 -0.04030612 35.68995667 -0.01693726 C41.22627436 0.01153233 46.76137917 -0.00484228 52.29765224 -0.03479958 C56.55884908 -0.05288705 60.81975947 -0.04710748 65.08096504 -0.03416061 C67.12187405 -0.0308297 69.16280923 -0.03490259 71.20368767 -0.04655838 C74.05967203 -0.05928874 76.91370698 -0.03985861 79.76954651 -0.01205444 C81.02983421 -0.02723618 81.02983421 -0.02723618 82.31558228 -0.04272461 C83.09912079 -0.02862549 83.8826593 -0.01452637 84.68994141 0 C85.7006251 0.00282769 85.7006251 0.00282769 86.73172665 0.00571251 C88.90846252 0.63491821 88.90846252 0.63491821 94.90846252 5.63491821 C94.90846252 11.90491821 94.90846252 18.17491821 94.90846252 24.63491821 C60.58846252 24.63491821 26.26846252 24.63491821 -9.09153748 24.63491821 C-9.09153748 0.02545056 -9.09153748 0.02545056 0 0 Z " fill="#022031FF" transform="translate(519.0915374755859,232.36508178710938)"/>
<path d="M0 0 C2.64 0 5.28 0 8 0 C8.17273438 0.60328125 8.34546875 1.2065625 8.5234375 1.828125 C9.85004425 5.60104327 10.84330117 8.27438117 14.31640625 10.453125 C20.70123631 13.00325087 25.55157285 14.74058154 32 12 C34.85400362 11.66023766 36.38202591 11.68104563 38.9375 13 C40.47793972 15.89965124 39.37484546 17.88575468 38.50390625 20.8984375 C37.05638225 26.93539806 39.65885175 32.53352779 42.390625 37.8203125 C45.03082231 41.39611371 47.7577062 41.99335401 52 43 C52 45.64 52 48.28 52 51 C48.7 51.99 45.4 52.98 42 54 C41.71125 55.423125 41.4225 56.84625 41.125 58.3125 C40.4619099 61.58058692 39.90318884 63.14521674 38 66 C37.61535105 71.33468429 37.61535105 71.33468429 40 76 C39.64111965 78.96076291 39.15341979 79.84658021 37 82 C33.32917513 81.69911272 30.05199439 81.3506648 26.5625 80.1875 C22.91346793 79.92049765 20.41425085 81.3908566 17.18359375 82.9921875 C15 84 15 84 12.83203125 84.31640625 C10.74324588 84.85016153 10.74324588 84.85016153 9.953125 87.28515625 C9.72109375 88.20167969 9.4890625 89.11820312 9.25 90.0625 C9.00765625 90.98160156 8.7653125 91.90070313 8.515625 92.84765625 C8.34546875 93.55792969 8.1753125 94.26820313 8 95 C5.69 95 3.38 95 1 95 C0.76667969 94.32453125 0.53335938 93.6490625 0.29296875 92.953125 C-1.40618593 88.79830155 -2.65137761 85.77605637 -6.640625 83.48046875 C-9.41275223 82.49095275 -12.13687238 81.67844604 -15 81 C-16.0828125 80.67708984 -16.0828125 80.67708984 -17.1875 80.34765625 C-19.14667499 79.80053443 -19.14667499 79.80053443 -21.4375 81 C-24.47776394 82.18644446 -25.9301741 81.99561921 -29 81 C-29.66 80.34 -30.32 79.68 -31 79 C-30.6521029 75.93850555 -30.02522028 73.08924098 -29.1875 70.125 C-28.95317164 66.21952728 -30.07878712 64.23199679 -31.97265625 60.890625 C-33 59 -33 59 -33.75 56.1875 C-35.76093084 52.66837103 -39.24531719 52.07401392 -43 51 C-43 48.36 -43 45.72 -43 43 C-42.40832031 42.85046875 -41.81664062 42.7009375 -41.20703125 42.546875 C-37.08466436 41.17499434 -34.64484149 40.00693369 -32.25390625 36.2734375 C-29.81108515 30.69577799 -28.57686477 27.03576765 -30 21 C-31.28813559 15.52542373 -31.28813559 15.52542373 -29.9375 13.0625 C-26.42892723 11.13844396 -22.9183565 12.76912105 -19.21875 13.69921875 C-13.17652751 14.26384391 -7.94902233 11.26581826 -3 8 C-1.06632153 5.1996729 -0.64533499 3.4026754 0 0 Z M-20 25.8125 C-26.8576253 34.73244293 -28.16397731 42.76821899 -27 54 C-25.15294965 62.13139324 -20.60388756 68.92052779 -13.65234375 73.5703125 C-4.61453764 78.71377939 5.9429312 79.92629174 16.0625 77.1640625 C23.55112253 73.67717263 29.866192 68.03340597 33.5 60.5625 C36.48104703 51.91345322 36.80811868 40.75706828 32.9375 32.375 C28.18291855 24.52192726 21.97607677 19.22447567 13.19921875 16.42578125 C0.62448731 13.99124177 -10.99478696 16.29215825 -20 25.8125 Z " fill="#022031FF" transform="translate(435,249)"/>
<path d="M0 0 C23.76 0 47.52 0 72 0 C72 5.28 72 10.56 72 16 C48.24 16 24.48 16 0 16 C0 10.72 0 5.44 0 0 Z " fill="#022031FF" transform="translate(526,280)"/>
<path d="M0 0 C1.17303903 2.27481868 2.23171598 4.54977199 3.2265625 6.91015625 C5.70292139 12.94821822 5.70292139 12.94821822 10.171875 17.44921875 C12.57225915 18.38160389 12.57225915 18.38160389 16 19 C16 21.64 16 24.28 16 27 C11.05 28.485 11.05 28.485 6 30 C5.566875 32.1346875 5.566875 32.1346875 5.125 34.3125 C4.4619099 37.58058692 3.90318884 39.14521674 2 42 C1.61535105 47.33468429 1.61535105 47.33468429 4 52 C3.64111965 54.96076291 3.15341979 55.84658021 1 58 C-2.67082487 57.69911272 -5.94800561 57.3506648 -9.4375 56.1875 C-13.08653207 55.92049765 -15.58574915 57.3908566 -18.81640625 58.9921875 C-21 60 -21 60 -23.16796875 60.31640625 C-25.25675412 60.85016153 -25.25675412 60.85016153 -26.046875 63.28515625 C-26.27890625 64.20167969 -26.5109375 65.11820312 -26.75 66.0625 C-26.99234375 66.98160156 -27.2346875 67.90070313 -27.484375 68.84765625 C-27.65453125 69.55792969 -27.8246875 70.26820313 -28 71 C-30.31 71 -32.62 71 -35 71 C-35.23332031 70.32453125 -35.46664063 69.6490625 -35.70703125 68.953125 C-37.96514832 63.24955262 -37.96514832 63.24955262 -42.7109375 59.69140625 C-44.66693826 59.11384697 -46.62654967 58.54835278 -48.58984375 57.99609375 C-51 57 -51 57 -52.19140625 55.28515625 C-53.0024116 52.51185823 -53.31269402 50.62538805 -52 48 C-49.21891558 49.09557871 -46.52521928 50.23152887 -43.8359375 51.54296875 C-39.77306942 53.27856805 -36.06945538 53.53913345 -31.6875 53.5 C-30.56819092 53.49141968 -30.56819092 53.49141968 -29.42626953 53.48266602 C-21.09920154 53.21437146 -15.32273405 50.30712977 -9.125 44.8125 C-1.98362374 36.89452018 -1.31677211 28.16289388 -1.6484375 17.9453125 C-1.94571795 14.60916523 -2.36445443 12.27574769 -3.6875 9.25 C-5 6 -5 6 -3.8125 3.0625 C-2 1 -2 1 0 0 Z " fill="#022031FF" transform="translate(471,273)"/>
<path d="M0 0 C5.97390029 -0.49782502 10.03274294 0.58753478 15 4 C21.25939362 9.44172509 23.47704096 15.88169757 24.5 23.9375 C24.19079903 30.67270372 20.56517953 36.92900264 15.6875 41.4375 C10.93172599 45.10297648 6.05817795 47 0 47 C0 44.36 0 41.72 0 39 C0.66386719 38.79246094 1.32773437 38.58492188 2.01171875 38.37109375 C7.29205821 36.52875633 11.27627265 34.90251571 14.21875 29.984375 C16.0145403 25.42306765 15.84041149 21.37836452 14.21875 16.7890625 C11.37316484 11.32147388 7.7335464 9.53165367 2.01171875 7.59375 C1.01591797 7.29984375 1.01591797 7.29984375 0 7 C0 4.69 0 2.38 0 0 Z " fill="#022031FF" transform="translate(439,273)"/>
<path d="M0 0 C0 0.66 0 1.32 0 2 C0.99 2 1.98 2 3 2 C3.38218767 3.65614657 3.71395102 5.32457024 4 7 C3.67 7.33 3.34 7.66 3 8 C2.76807135 9.51469448 2.58784762 11.03754562 2.4375 12.5625 C2.35371094 13.38878906 2.26992188 14.21507812 2.18359375 15.06640625 C2.09271484 16.02353516 2.09271484 16.02353516 2 17 C1.67 17 1.34 17 1 17 C0.67 14.36 0.34 11.72 0 9 C-6.00060374 12.16051216 -9.09424535 14.83980015 -12 21 C-12.33 21.66 -12.66 22.32 -13 23 C-13.04611401 25.67461231 -13.04673094 28.32699038 -13 31 C-12.86486486 38.72972973 -12.86486486 38.72972973 -14 41 C-15.32 41 -16.64 41 -18 41 C-18 41.66 -18 42.32 -18 43 C-18.66 43 -19.32 43 -20 43 C-22.9870541 35.12284928 -23.46675455 26.69145758 -20.9375 18.6015625 C-17.36413725 10.89164395 -9.6413842 0 0 0 Z " fill="#32EE88FF" transform="translate(430,266)"/>
<path d="M0 0 C0.95088044 7.76552363 0.95088044 7.76552363 -1.3359375 10.734375 C-1.88507813 11.25515625 -2.43421875 11.7759375 -3 12.3125 C-6.11765962 15.45964103 -6.4818491 17.72146087 -6.5625 22.125 C-6.47494708 26.61938347 -5.6660004 29.35709638 -3 33 C-2.01 33.66 -1.02 34.32 0 35 C0.29296875 37.1640625 0.29296875 37.1640625 0.1875 39.625 C0.16042969 40.44226563 0.13335937 41.25953125 0.10546875 42.1015625 C0.07066406 42.72804688 0.03585937 43.35453125 0 44 C-6.1534625 42.0091739 -10.41398949 38.7022994 -13.375 33 C-16.11435101 26.15735333 -16.219408 18.41434241 -13.75 11.5 C-13.1725 10.675 -12.595 9.85 -12 9 C-11.4225 8.13375 -10.845 7.2675 -10.25 6.375 C-7.8673375 3.85996736 -3.68732366 0 0 0 Z " fill="#022031FF" transform="translate(431,274)"/>
<path d="M0 0 C0.8816835 -0.0033284 1.763367 -0.0066568 2.67176819 -0.01008606 C4.54053219 -0.01515908 6.40930529 -0.01749427 8.27807617 -0.01733398 C11.14451969 -0.01951933 14.01057785 -0.0376678 16.87695312 -0.05664062 C18.68880076 -0.05957464 20.50065023 -0.06155938 22.3125 -0.0625 C23.60473732 -0.07327827 23.60473732 -0.07327827 24.92308044 -0.08427429 C30.99383465 -0.06085285 30.99383465 -0.06085285 33.22265625 2.16796875 C32.66710069 6.72352431 32.66710069 6.72352431 31.22265625 8.16796875 C28.36171408 8.28146036 25.52582169 8.33215367 22.6640625 8.3359375 C21.80457504 8.3392659 20.94508759 8.3425943 20.05955505 8.34602356 C18.23786964 8.35109645 16.41617489 8.35343177 14.59448242 8.35327148 C11.80046335 8.35545678 9.00683968 8.37360519 6.21289062 8.39257812 C4.44661594 8.39551215 2.68033937 8.39749689 0.9140625 8.3984375 C0.07444473 8.40562302 -0.76517303 8.41280853 -1.63023376 8.42021179 C-7.54852194 8.39679056 -7.54852194 8.39679056 -9.77734375 6.16796875 C-9.96484375 3.60546875 -9.96484375 3.60546875 -9.77734375 1.16796875 C-7.6590034 -0.9503716 -2.93131001 0.00377762 0 0 Z " fill="#32EE88FF" transform="translate(536.77734375,311.83203125)"/>
<path d="M0 0 C-4.25346535 13.82376238 -4.25346535 13.82376238 -9.0625 17.0625 C-12 18 -12 18 -15 18 C-14.67 20.97 -14.34 23.94 -14 27 C-13.67 27 -13.34 27 -13 27 C-13 28.98 -13 30.96 -13 33 C-13.99 32.67 -14.98 32.34 -16 32 C-17.485 32.495 -17.485 32.495 -19 33 C-21.95142345 30.65294358 -22.92026356 29.46632072 -23.56640625 25.6875 C-23.56511719 24.470625 -23.56382812 23.25375 -23.5625 22 C-23.58441406 20.783125 -23.60632813 19.56625 -23.62890625 18.3125 C-23 15 -23 15 -20.6171875 12.61328125 C-18 11 -18 11 -15.5625 10.1875 C-12.25502752 8.65476885 -10.65164173 6.49074297 -8.4296875 3.65625 C-5.67470212 0.46468224 -4.23878866 0 0 0 Z " fill="#32EE88FF" transform="translate(407,274)"/>
<path d="M0 0 C1.05617271 -0.0049926 1.05617271 -0.0049926 2.13368225 -0.01008606 C3.62581731 -0.0151578 5.11796375 -0.01749431 6.61010742 -0.01733398 C8.89716232 -0.01951884 11.18373378 -0.03766674 13.47070312 -0.05664062 C14.91796709 -0.05957479 16.36523336 -0.06155943 17.8125 -0.0625 C18.49900131 -0.06968552 19.18550262 -0.07687103 19.89280701 -0.08427429 C24.74383256 -0.06085494 24.74383256 -0.06085494 26.97265625 2.16796875 C26.41710069 6.72352431 26.41710069 6.72352431 24.97265625 8.16796875 C22.59697105 8.25636545 20.25056951 8.2832718 17.875 8.265625 C16.81171227 8.26350258 16.81171227 8.26350258 15.72694397 8.26133728 C13.45463913 8.25572318 11.1824315 8.24316838 8.91015625 8.23046875 C7.37304829 8.22545556 5.8359388 8.22089234 4.29882812 8.21679688 C0.52339983 8.20574917 -3.25195546 8.18847516 -7.02734375 8.16796875 C-7.40797596 5.84188305 -7.7400432 3.50741611 -8.02734375 1.16796875 C-6.11444757 -0.74492743 -2.60510292 0.00421048 0 0 Z " fill="#32EE88FF" transform="translate(535.02734375,327.83203125)"/>
<path d="M0 0 C1.61358398 -0.01836914 1.61358398 -0.01836914 3.25976562 -0.03710938 C4.28650391 -0.03904297 5.31324219 -0.04097656 6.37109375 -0.04296875 C7.79119751 -0.04913208 7.79119751 -0.04913208 9.23999023 -0.05541992 C11.5625 0.1875 11.5625 0.1875 13.5625 2.1875 C13.00694444 6.74305556 13.00694444 6.74305556 11.5625 8.1875 C7.75661856 8.43958722 3.93824544 8.37272344 0.125 8.375 C-1.48858398 8.39336914 -1.48858398 8.39336914 -3.13476562 8.41210938 C-4.16150391 8.41404297 -5.18824219 8.41597656 -6.24609375 8.41796875 C-7.66619751 8.42413208 -7.66619751 8.42413208 -9.11499023 8.43041992 C-11.4375 8.1875 -11.4375 8.1875 -13.4375 6.1875 C-12.42668918 -2.10114873 -7.15258778 0.0042702 0 0 Z " fill="#32EE88FF" transform="translate(591.4375,240.8125)"/>
<path d="M0 0 C2 1.5625 2 1.5625 3 4 C3.18114336 7.90639591 2.87213849 10.96635438 0.3125 14 C-2.78714046 15.34038506 -4.65159302 15.54667869 -8 15 C-10.9375 12.9375 -10.9375 12.9375 -13 10 C-13.1506132 5.70752394 -12.66257079 3.77949504 -9.875 0.5 C-6.06467129 -1.48799759 -4.08035596 -1.20899436 0 0 Z " fill="#022031FF" transform="translate(444,289)"/>
<path d="M0 0 C0.88494141 -0.01224609 1.76988281 -0.02449219 2.68164062 -0.03710938 C3.52791016 -0.03904297 4.37417969 -0.04097656 5.24609375 -0.04296875 C6.02525146 -0.04707764 6.80440918 -0.05118652 7.60717773 -0.05541992 C9.5625 0.1875 9.5625 0.1875 11.5625 2.1875 C11.75 4.75 11.75 4.75 11.5625 7.1875 C9.26240227 9.48759773 3.71459334 8.37287365 0.625 8.375 C-0.30763672 8.38724609 -1.24027344 8.39949219 -2.20117188 8.41210938 C-3.09255859 8.41404297 -3.98394531 8.41597656 -4.90234375 8.41796875 C-5.723396 8.42207764 -6.54444824 8.42618652 -7.39038086 8.43041992 C-9.4375 8.1875 -9.4375 8.1875 -11.4375 6.1875 C-10.50064873 -1.49468038 -6.73307155 0.00488258 0 0 Z " fill="#32EE88FF" transform="translate(502.4375,390.8125)"/>
<path d="M0 0 C1.67225729 0.30404678 3.33753959 0.64628502 5 1 C10.73468928 2.20016905 10.73468928 2.20016905 16 0 C15.67 1.32 15.34 2.64 15 4 C17.475 4.495 17.475 4.495 20 5 C18.60812281 8.36370321 17.20568604 10.21906331 14 12 C8.88254225 12.6823277 5.51767413 11.16848358 1 9 C1.226875 8.236875 1.45375 7.47375 1.6875 6.6875 C1.790625 5.800625 1.89375 4.91375 2 4 C0.66621425 2.1645201 0.66621425 2.1645201 -1 1 C-0.67 0.67 -0.34 0.34 0 0 Z " fill="#32EE88FF" transform="translate(459,328)"/>
<path d="M0 0 C2.81256281 -0.02684312 5.62487241 -0.04676188 8.4375 -0.0625 C9.23994141 -0.07087891 10.04238281 -0.07925781 10.86914062 -0.08789062 C12.91295221 -0.0965143 14.95683902 -0.0522815 17 0 C17.33 0.33 17.66 0.66 18 1 C17.71269945 3.33944736 17.38063221 5.6739143 17 8 C14.37472811 8.05382106 11.75055287 8.09358313 9.125 8.125 C8.37863281 8.14175781 7.63226562 8.15851563 6.86328125 8.17578125 C4.90805539 8.1933959 2.95257979 8.10320189 1 8 C0.34 7.34 -0.32 6.68 -1 6 C-0.625 2.875 -0.625 2.875 0 0 Z " fill="#32EE88FF" transform="translate(571,328)"/>
<path d="M0 0 C1.12535156 0.00580078 1.12535156 0.00580078 2.2734375 0.01171875 C3.02367187 0.00785156 3.77390625 0.00398438 4.546875 0 C10.14682697 0.01010822 10.14682697 0.01010822 11.2734375 1.13671875 C11.4609375 3.57421875 11.4609375 3.57421875 11.2734375 6.13671875 C8.78133311 8.62882314 7.26982962 8.39687536 3.86328125 8.41015625 C2.82880859 8.39855469 2.82880859 8.39855469 1.7734375 8.38671875 C1.08378906 8.39445312 0.39414062 8.4021875 -0.31640625 8.41015625 C-5.47322957 8.39005168 -5.47322957 8.39005168 -7.7265625 6.13671875 C-6.989107 0.08958365 -5.96115326 0.0107602 0 0 Z " fill="#32EE88FF" transform="translate(585.7265625,311.86328125)"/>
<path d="M0 0 C1.48831242 0.00667405 2.97660807 0.01863442 4.46484375 0.03515625 C5.22345703 0.03966797 5.98207031 0.04417969 6.76367188 0.04882812 C8.64326246 0.06064945 10.52281274 0.07858547 12.40234375 0.09765625 C13.02734375 2.97265625 13.02734375 2.97265625 13.40234375 6.09765625 C10.91023936 8.58976064 9.39873587 8.35781286 5.9921875 8.37109375 C4.95771484 8.35949219 4.95771484 8.35949219 3.90234375 8.34765625 C3.21269531 8.35539063 2.52304687 8.363125 1.8125 8.37109375 C-3.34432332 8.35098918 -3.34432332 8.35098918 -5.59765625 6.09765625 C-4.8701613 0.13219765 -4.8701613 0.13219765 0 0 Z " fill="#32EE88FF" transform="translate(508.59765625,192.90234375)"/>
<path d="M0 0 C1.63542086 3.20970449 3.14031997 6.46807572 4.625 9.75 C5.07101562 10.73484375 5.51703125 11.7196875 5.9765625 12.734375 C6.31429688 13.48203125 6.65203125 14.2296875 7 15 C6.01 15.495 6.01 15.495 5 16 C5 15.01 5 14.02 5 13 C3.68 13.33 2.36 13.66 1 14 C0.95101563 15.25296875 0.90203125 16.5059375 0.8515625 17.796875 C0.77651417 19.44793821 0.70096723 21.09897881 0.625 22.75 C0.5940625 23.575 0.563125 24.4 0.53125 25.25 C0.49257813 26.04921875 0.45390625 26.8484375 0.4140625 27.671875 C0.36693115 28.77160645 0.36693115 28.77160645 0.31884766 29.89355469 C-0.03772523 32.24922918 -0.83662883 33.93450591 -2 36 C-2.33 35.34 -2.66 34.68 -3 34 C-2.67 33.01 -2.34 32.02 -2 31 C-1.85061629 28.25651066 -1.7626125 25.55674478 -1.75 22.8125 C-1.74460205 22.04454102 -1.7392041 21.27658203 -1.73364258 20.48535156 C-1.76982928 16.38884225 -1.9835664 13.04545725 -3.6875 9.25 C-5 6 -5 6 -3.8125 3.0625 C-2 1 -2 1 0 0 Z " fill="#022031FF" transform="translate(471,273)"/>
<path d="M0 0 C1.91015625 0.23046875 1.91015625 0.23046875 3.91015625 2.23046875 C3.35460069 6.78602431 3.35460069 6.78602431 1.91015625 8.23046875 C-3.82595486 8.5036169 -3.82595486 8.5036169 -6.08984375 8.23046875 C-6.74984375 7.57046875 -7.40984375 6.91046875 -8.08984375 6.23046875 C-7.32934219 -0.00564403 -6.14669459 0.12271078 0 0 Z " fill="#32EE88FF" transform="translate(491.08984375,192.76953125)"/>
<path d="M0 0 C1.91015625 0.1328125 1.91015625 0.1328125 3.91015625 1.1328125 C4.03515625 3.5078125 4.03515625 3.5078125 3.91015625 6.1328125 C1.91015625 8.1328125 1.91015625 8.1328125 -1.58984375 8.3828125 C-5.08984375 8.1328125 -5.08984375 8.1328125 -7.08984375 6.1328125 C-7.27734375 3.5703125 -7.27734375 3.5703125 -7.08984375 1.1328125 C-5.19099279 -0.76603846 -2.51736472 0.00913744 0 0 Z " fill="#32EE88FF" transform="translate(526.08984375,240.8671875)"/>
<path d="M0 0 C1.91015625 0.23046875 1.91015625 0.23046875 3.91015625 2.23046875 C3.35460069 6.78602431 3.35460069 6.78602431 1.91015625 8.23046875 C-1.52734375 8.41796875 -1.52734375 8.41796875 -5.08984375 8.23046875 C-7.08984375 6.23046875 -7.08984375 6.23046875 -7.27734375 3.66796875 C-6.912324 -1.07728802 -4.17475089 0.08334348 0 0 Z " fill="#32EE88FF" transform="translate(546.08984375,240.76953125)"/>
<path d="M0 0 C1.48831242 0.00667405 2.97660807 0.01863442 4.46484375 0.03515625 C5.22345703 0.03966797 5.98207031 0.04417969 6.76367188 0.04882812 C8.64326246 0.06064945 10.52281274 0.07858547 12.40234375 0.09765625 C12.40234375 0.42765625 12.40234375 0.75765625 12.40234375 1.09765625 C6.46234375 1.59265625 6.46234375 1.59265625 0.40234375 2.09765625 C0.73234375 2.75765625 1.06234375 3.41765625 1.40234375 4.09765625 C1.07234375 5.08765625 0.74234375 6.07765625 0.40234375 7.09765625 C4.03234375 7.09765625 7.66234375 7.09765625 11.40234375 7.09765625 C11.40234375 7.42765625 11.40234375 7.75765625 11.40234375 8.09765625 C8.94371974 8.15149473 6.48626825 8.19124663 4.02734375 8.22265625 C2.97933594 8.24779297 2.97933594 8.24779297 1.91015625 8.2734375 C0.07336889 8.29109892 -1.76367588 8.20068886 -3.59765625 8.09765625 C-4.25765625 7.43765625 -4.91765625 6.77765625 -5.59765625 6.09765625 C-4.8701613 0.13219765 -4.8701613 0.13219765 0 0 Z " fill="#32EE88FF" transform="translate(508.59765625,192.90234375)"/>
<path d="M0 0 C1.32 0 2.64 0 4 0 C3.67 1.65 3.34 3.3 3 5 C5.475 5.99 5.475 5.99 8 7 C8 7.33 8 7.66 8 8 C4.625 8.125 4.625 8.125 1 8 C-1 6 -1 6 -1.1875 3.4375 C-1 1 -1 1 0 0 Z " fill="#32EE88FF" transform="translate(520,241)"/>
<path d="M0 0 C0.33 0.99 0.66 1.98 1 3 C0.34 3.66 -0.32 4.32 -1 5 C-1 6.32 -1 7.64 -1 9 C-3 10.75 -3 10.75 -5 12 C-5.66 11.34 -6.32 10.68 -7 10 C-6.34 10 -5.68 10 -5 10 C-4.731875 9.0925 -4.46375 8.185 -4.1875 7.25 C-3.10423706 4.28528037 -2.01640543 2.3830246 0 0 Z " fill="#022031FF" transform="translate(431,242)"/>
<path d="M0 0 C0.66 0.33 1.32 0.66 2 1 C1.125 5.875 1.125 5.875 0 7 C-2.67058851 7.14115161 -5.32432238 7.04247107 -8 7 C-8 6.67 -8 6.34 -8 6 C-5.03 5.34 -2.06 4.68 1 4 C0.67 2.68 0.34 1.36 0 0 Z " fill="#32EE88FF" transform="translate(493,194)"/>
<path d="M0 0 C1.98 0.495 1.98 0.495 4 1 C3.2884375 1.5878125 3.2884375 1.5878125 2.5625 2.1875 C0.64820367 4.40808374 0.38733012 6.13375709 0 9 C-0.33 9 -0.66 9 -1 9 C-1.125 2.25 -1.125 2.25 0 0 Z " fill="#32EE88FF" transform="translate(473,313)"/>
</svg>
