<?xml version="1.0" encoding="UTF-8"?>
<svg version="1.1" xmlns="http://www.w3.org/2000/svg" width="1004" height="591">
<path d="M0 0 C331.32 0 662.64 0 1004 0 C1004 195.03 1004 390.06 1004 591 C672.68 591 341.36 591 0 591 C0 395.97 0 200.94 0 0 Z " fill="#022031FF" transform="translate(0,0)"/>
<path d="M0 0 C1.28696777 -0.00161133 2.57393555 -0.00322266 3.89990234 -0.00488281 C13.15950432 0.10633622 13.15950432 0.10633622 16.5625 2.375 C16.90307617 4.34619141 16.90307617 4.34619141 16.85546875 6.7265625 C16.84580078 7.57734375 16.83613281 8.428125 16.82617188 9.3046875 C16.80103516 10.19414062 16.77589844 11.08359375 16.75 12 C16.73646484 12.8971875 16.72292969 13.794375 16.70898438 14.71875 C16.67356925 16.93809789 16.62418461 19.15625188 16.5625 21.375 C17.86703125 21.313125 19.1715625 21.25125 20.515625 21.1875 C25.62623978 21.19549158 29.62646458 22.43908226 34.3125 24.375 C35.08674316 24.68244141 35.86098633 24.98988281 36.65869141 25.30664062 C42.90336108 27.8803265 48.41846869 31.13055454 53.9609375 34.96875 C56.36926824 36.52845454 56.36926824 36.52845454 58.60546875 36.41015625 C62.47816802 34.36172251 65.11759186 30.73391731 68.02734375 27.52734375 C70.5625 25.375 70.5625 25.375 72.94433594 25.00756836 C78.12937454 25.7352337 81.34719149 30.40815077 84.875 34 C85.71095703 34.80824219 86.54691406 35.61648437 87.40820312 36.44921875 C88.19775391 37.24199219 88.98730469 38.03476563 89.80078125 38.8515625 C90.52305908 39.57424316 91.24533691 40.29692383 91.98950195 41.04150391 C94.00251388 44.02774759 93.98319354 45.84123463 93.5625 49.375 C91.8828125 51.60546875 91.8828125 51.60546875 89.6875 53.5625 C87.21281284 55.81100608 85.43432827 57.5672576 83.5625 60.375 C83.93646181 63.23730089 85.02260229 65.44185031 86.453125 67.921875 C92.52443148 78.72955152 99.17072405 90.60229489 98.5625 103.375 C99.41799438 103.36714478 99.41799438 103.36714478 100.29077148 103.35913086 C102.86050323 103.33841779 105.43021747 103.3253581 108 103.3125 C109.34674805 103.29993164 109.34674805 103.29993164 110.72070312 103.28710938 C111.57470703 103.28388672 112.42871094 103.28066406 113.30859375 103.27734375 C114.09935303 103.27210693 114.8901123 103.26687012 115.70483398 103.26147461 C117.5625 103.375 117.5625 103.375 118.5625 104.375 C118.66262401 106.58150656 118.6933118 108.79122386 118.6953125 111 C118.69626923 111.66209473 118.69722595 112.32418945 118.69821167 113.00634766 C118.69889326 114.40852961 118.69704042 115.8107147 118.69287109 117.21289062 C118.68752246 119.36595713 118.6928167 121.51881502 118.69921875 123.671875 C118.69855796 125.03125046 118.69727679 126.3906258 118.6953125 127.75 C118.69418457 128.99523437 118.69305664 130.24046875 118.69189453 131.5234375 C118.5625 134.375 118.5625 134.375 117.5625 135.375 C116.14679877 135.46151611 114.726905 135.48204904 113.30859375 135.47265625 C112.45458984 135.46943359 111.60058594 135.46621094 110.72070312 135.46289062 C109.82287109 135.45451172 108.92503906 135.44613281 108 135.4375 C107.09830078 135.43298828 106.19660156 135.42847656 105.26757812 135.42382812 C103.03248686 135.41200225 100.79752563 135.3955222 98.5625 135.375 C98.50263916 135.97248047 98.44277832 136.56996094 98.38110352 137.18554688 C97.38341339 146.71237691 94.60254112 154.59263812 90.5625 163.25 C90.21823975 163.98798828 89.87397949 164.72597656 89.51928711 165.48632812 C88.10359504 168.4458875 86.84740231 171.02992435 84.75 173.5703125 C83.33197525 175.3592522 83.33197525 175.3592522 83.58984375 177.84765625 C85.16893835 181.95076552 88.37687238 184.1600767 91.62890625 186.99609375 C93.5625 189.375 93.5625 189.375 93.91845703 192.2409668 C93.48315191 196.07362236 92.49918719 197.19852659 89.80078125 199.8984375 C89.01123047 200.69121094 88.22167969 201.48398437 87.40820312 202.30078125 C86.57224609 203.10902344 85.73628906 203.91726563 84.875 204.75 C83.65006836 205.99716797 83.65006836 205.99716797 82.40039062 207.26953125 C76.32367563 213.26259916 76.32367563 213.26259916 72.96679688 213.75830078 C69.20554759 213.15867026 67.22186866 210.5613833 64.75 207.875 C64.24791016 207.35035156 63.74582031 206.82570313 63.22851562 206.28515625 C61.99487867 204.99277468 60.77708375 203.68530401 59.5625 202.375 C55.89878648 203.74712437 52.46452071 205.40560608 48.99291992 207.19287109 C38.41178254 212.63488616 28.41116022 216.63322403 16.5625 218.375 C16.58570313 219.65117187 16.60890625 220.92734375 16.6328125 222.2421875 C16.65156829 223.9114525 16.66976869 225.5807238 16.6875 227.25 C16.70425781 228.09175781 16.72101563 228.93351563 16.73828125 229.80078125 C16.74472656 230.60644531 16.75117187 231.41210938 16.7578125 232.2421875 C16.76828613 232.98581543 16.77875977 233.72944336 16.78955078 234.49560547 C16.5625 236.375 16.5625 236.375 14.5625 238.375 C9.85347295 238.84653141 5.10537362 238.71354962 0.375 238.6875 C-0.31177826 238.68534485 -0.99855652 238.6831897 -1.70614624 238.68096924 C-11.61501257 238.63070803 -20.90137194 238.31687886 -30.4375 235.375 C-31.43015869 235.07698486 -31.43015869 235.07698486 -32.44287109 234.77294922 C-52.15131758 228.74528002 -68.51899838 218.61325548 -83.4375 204.375 C-84.25166382 203.60349609 -84.25166382 203.60349609 -85.08227539 202.81640625 C-100.2589974 188.10361967 -109.87295838 168.58420735 -115.4375 148.375 C-115.62223877 147.71540283 -115.80697754 147.05580566 -115.99731445 146.3762207 C-118.1290295 137.55082502 -117.87828406 128.46177294 -117.875 119.4375 C-117.87573517 118.56439178 -117.87647034 117.69128357 -117.87722778 116.79171753 C-117.84891119 104.02621792 -117.29157333 92.33303841 -112.4375 80.375 C-112.18049316 79.69614746 -111.92348633 79.01729492 -111.65869141 78.31787109 C-100.36245513 48.67305213 -78.46102343 23.95655173 -49.5625 10.4375 C-47.86199364 9.73086208 -46.15382069 9.04230976 -44.4375 8.375 C-43.61894531 8.03210938 -42.80039062 7.68921875 -41.95703125 7.3359375 C-28.07340833 1.83289786 -14.87530751 0.01829456 0 0 Z " fill="#32EE88FF" transform="translate(501.4375,176.625)"/>
<path d="M0 0 C4.62 0 9.24 0 14 0 C14.06058594 1.12019531 14.12117188 2.24039063 14.18359375 3.39453125 C14.26801424 4.86719984 14.35266149 6.33985544 14.4375 7.8125 C14.47681641 8.55048828 14.51613281 9.28847656 14.55664062 10.04882812 C14.74381035 13.23071342 14.98720793 15.96162378 16 19 C16.7528125 19.08636719 17.505625 19.17273438 18.28125 19.26171875 C34.38539678 21.3920003 49.56840213 26.18192267 62.171875 36.8359375 C63.90897651 38.17130882 63.90897651 38.17130882 65.921875 38.00390625 C68.96823582 36.53226202 70.91339292 34.36634157 73.25 31.9375 C74.58804688 30.55884766 74.58804688 30.55884766 75.953125 29.15234375 C76.62859375 28.44207031 77.3040625 27.73179687 78 27 C81.75263377 28.26579469 83.84665788 29.52836105 86.3125 32.625 C86.82425781 33.25664062 87.33601562 33.88828125 87.86328125 34.5390625 C88.23839844 35.02117187 88.61351562 35.50328125 89 36 C88.10698344 37.06486855 87.2104053 38.12675041 86.3125 39.1875 C85.77109375 39.82816406 85.2296875 40.46882813 84.671875 41.12890625 C83 43 83 43 80.0625 45.625 C77.71871483 47.76337406 77.71871483 47.76337406 78.140625 50.2734375 C79.18891138 53.59936429 80.77414744 56.08441515 82.6875 59 C89.108955 69.104072 93.54880875 79.25062326 96 91 C96.71550802 96.42597994 96.71550802 96.42597994 99 101 C100.34015221 101.15582303 101.68758903 101.25044142 103.03515625 101.31640625 C103.84404297 101.35830078 104.65292969 101.40019531 105.48632812 101.44335938 C106.33646484 101.48267578 107.18660156 101.52199219 108.0625 101.5625 C109.34350586 101.62727539 109.34350586 101.62727539 110.65039062 101.69335938 C112.76672037 101.79976702 114.88333813 101.90041731 117 102 C117 106.62 117 111.24 117 116 C111.06 116.33 105.12 116.66 99 117 C97.53429042 121.39712874 96.3053503 125.64408517 95.1875 130.125 C92.08045675 142.02777097 87.42337564 154.64282967 79.2265625 164.03125 C77.7875257 165.95544854 77.7875257 165.95544854 77.99609375 168.41796875 C79.34566146 171.88903591 81.37185166 173.75808702 84.0625 176.3125 C84.98160156 177.19550781 85.90070313 178.07851563 86.84765625 178.98828125 C87.55792969 179.65214844 88.26820313 180.31601562 89 181 C87.59155282 184.21524305 85.89655214 186.32183868 83.375 188.75 C82.74335937 189.36359375 82.11171875 189.9771875 81.4609375 190.609375 C80.97882813 191.06828125 80.49671875 191.5271875 80 192 C76.61544019 189.16165157 73.35902545 186.39321835 70.375 183.125 C68.24123857 180.84020501 68.24123857 180.84020501 65.765625 180.60546875 C61.98458216 181.1448548 59.42944983 183.04305684 56.375 185.1875 C47.13312949 191.37168269 38.08666104 195.17117994 27.328125 198.0859375 C23.156083 199.23178002 19.08919579 200.58993249 15 202 C14.67 207.28 14.34 212.56 14 218 C9.38 218 4.76 218 0 218 C0 192.59 0 167.18 0 141 C5.445 139.02 5.445 139.02 11 137 C18.73352698 132.02844694 23.84552628 126.51071018 26.4921875 117.58203125 C28.4969065 107.38880617 27.19616711 98.53386466 21.59765625 89.81640625 C16.23264189 82.87730455 8.39307305 79.09826826 0 77 C0 51.59 0 26.18 0 0 Z " fill="#022031FF" transform="translate(495,187)"/>
<path d="M0 0 C0.0154612 1.1993644 0.0154612 1.1993644 0.03123474 2.42295837 C0.12904082 9.94267296 0.23153065 17.46230193 0.33933926 24.98187923 C0.39460355 28.8481601 0.448029 32.71444848 0.49731445 36.58081055 C0.5449065 40.30910087 0.59724715 44.03729652 0.65294075 47.76547432 C0.67338778 49.19086933 0.69209691 50.61629032 0.70907402 52.04173088 C0.73306596 54.03170541 0.76370136 56.02159655 0.79467773 58.01147461 C0.81799416 59.71357338 0.81799416 59.71357338 0.84178162 61.45005798 C0.71350527 63.93415838 0.71350527 63.93415838 2 65 C3.299375 65.061875 4.59875 65.12375 5.9375 65.1875 C12.8207428 65.92185871 18.00583676 69.14869942 22.96484375 73.87109375 C27.56812298 79.60082248 27.77531574 85.29476642 27.4453125 92.46875 C26.57843267 99.34295493 24.47736517 103.08609923 19.0625 107.375 C13.06542126 111.45389546 8.36608227 112.36309283 1 114 C0.67 135.12 0.34 156.24 0 178 C-19.04523882 175.88386235 -36.97898686 166.6505094 -49.625 152 C-50.40875 151.01 -51.1925 150.02 -52 149 C-51.505 148.278125 -51.01 147.55625 -50.5 146.8125 C-48.91577251 143.84207346 -48.6331962 142.3012342 -49 139 C-50.03849381 137.74562338 -50.03849381 137.74562338 -52.3125 137.8125 C-55.10484085 138.00731448 -56.57487265 138.69177565 -59 140 C-67.85340824 125.59845594 -74.79093608 111.40059365 -74 94 C-70.535 93.01 -70.535 93.01 -67 92 C-67 90.02 -67 88.04 -67 86 C-69.31 85.34 -71.62 84.68 -74 84 C-74.17371809 78.42861266 -73.69327987 73.52901622 -72.25 68.125 C-72.06808105 67.42737549 -71.88616211 66.72975098 -71.69873047 66.01098633 C-68.47550046 54.00104778 -63.49466402 42.2441932 -55 33 C-53.515 33.495 -53.515 33.495 -52 34 C-52 34.66 -52 35.32 -52 36 C-49.69 35.34 -47.38 34.68 -45 34 C-44.73781251 30.85375007 -44.75245633 29.38162983 -46.5 26.6875 C-47.2425 25.8521875 -47.2425 25.8521875 -48 25 C-41.51356522 17.91583915 -34.0646203 11.41608831 -25 8 C-23.948125 7.360625 -22.89625 6.72125 -21.8125 6.0625 C-18.10531155 3.87411563 -14.27168044 2.74675467 -10.13671875 1.61328125 C-6.42100418 0.54679645 -4.00205428 -0.08700118 0 0 Z " fill="#022031FF" transform="translate(486,207)"/>
<path d="M0 0 C0 3.63 0 7.26 0 11 C-2.5678125 11.3403125 -2.5678125 11.3403125 -5.1875 11.6875 C-12.21959786 12.86365771 -18.47740647 15.17161873 -25 18 C-26.29744141 18.55494141 -26.29744141 18.55494141 -27.62109375 19.12109375 C-50.33543888 29.62420694 -68.09132376 50.31735331 -76.7578125 73.56640625 C-78.32886617 77.99998081 -79.71543943 82.47576863 -81 87 C-81.268125 87.93972656 -81.53625 88.87945312 -81.8125 89.84765625 C-87.55383586 115.00587102 -80.43634984 142.53364227 -67 164 C-52.7402373 184.84535535 -32.65614981 199.83596255 -8 206 C-7.14921875 206.22300781 -6.2984375 206.44601562 -5.421875 206.67578125 C-3.62001146 207.13884758 -1.81095955 207.57389187 0 208 C0 211.3 0 214.6 0 218 C-22.45728545 215.44803574 -42.21360141 204.82710286 -59 190 C-59.67289062 189.4225 -60.34578125 188.845 -61.0390625 188.25 C-78.53061436 172.12610034 -91.90831685 145.55677008 -93.17700195 121.66699219 C-93.73846578 88.49812535 -88.61063211 60.08491718 -64.98046875 35.03125 C-64.00013672 34.02578125 -64.00013672 34.02578125 -63 33 C-62.195625 32.154375 -61.39125 31.30875 -60.5625 30.4375 C-59.716875 29.633125 -58.87125 28.82875 -58 28 C-56.97712891 27.00226563 -56.97712891 27.00226563 -55.93359375 25.984375 C-42.0985893 12.92661799 -19.72298282 0 0 0 Z " fill="#022031FF" transform="translate(486,187)"/>
<path d="M0 0 C3.61187763 1.34546039 6.32437909 3.25899642 8.9375 6.125 C11.01692147 11.75166986 10.91572748 16.98539953 8.4375 22.4375 C4.55041005 26.5239279 0.89818048 27.8713098 -4.6875 28.25 C-8 28 -8 28 -10.02870178 27.33656311 C-10.67923019 27.22549728 -11.32975861 27.11443146 -12 27 C-14.25264216 28.86714679 -16.14090326 30.68016737 -18.12109375 32.80859375 C-18.7028688 33.40930191 -19.28464386 34.01001007 -19.88404846 34.62892151 C-22.37751841 37.20429322 -24.84069566 39.80795988 -27.30688477 42.40942383 C-29.10972851 44.30261185 -30.92731894 46.18072648 -32.74609375 48.05859375 C-33.57444984 48.94918739 -33.57444984 48.94918739 -34.41954041 49.85777283 C-38.35571199 53.91723992 -38.35571199 53.91723992 -41.89086914 54.37133789 C-42.93488892 54.18752563 -42.93488892 54.18752563 -44 54 C-45.46684017 51.06631966 -45.41753623 49.26370898 -45 46 C-43.16417684 43.64024613 -41.46075626 41.75784242 -39.3125 39.7265625 C-38.73540283 39.15795502 -38.15830566 38.58934753 -37.5637207 38.00350952 C-35.72277877 36.19607263 -33.86206592 34.41064143 -32 32.625 C-30.7460322 31.4011352 -29.49341093 30.17588913 -28.2421875 28.94921875 C-25.17683504 25.94991206 -22.09358313 22.97016891 -19 20 C-20.29212402 19.98018066 -21.58424805 19.96036133 -22.91552734 19.93994141 C-27.69779345 19.86401632 -32.47975005 19.77527922 -37.26171875 19.68261719 C-39.33359681 19.64427315 -41.40554269 19.60942995 -43.47753906 19.578125 C-46.45141887 19.53259191 -49.42482962 19.47457882 -52.3984375 19.4140625 C-53.32868744 19.40251129 -54.25893738 19.39096008 -55.21737671 19.37905884 C-56.07811798 19.35918915 -56.93885925 19.33931946 -57.82568359 19.31884766 C-58.58513275 19.30552399 -59.34458191 19.29220032 -60.12704468 19.2784729 C-62 19 -62 19 -64 17 C-64.3125 14 -64.3125 14 -64 11 C-60.84274381 8.89516254 -60.12625389 8.7527941 -56.52856445 8.77294922 C-55.17750359 8.77317581 -55.17750359 8.77317581 -53.79914856 8.77340698 C-52.83031235 8.78372955 -51.86147614 8.79405212 -50.86328125 8.8046875 C-49.37141548 8.80893234 -49.37141548 8.80893234 -47.84941101 8.81326294 C-44.6703187 8.82446511 -41.49150728 8.84956986 -38.3125 8.875 C-36.15820719 8.88502975 -34.00390997 8.89415561 -31.84960938 8.90234375 C-26.56631028 8.92440454 -21.28317521 8.95788244 -16 9 C-15.72414063 8.22269531 -15.44828125 7.44539063 -15.1640625 6.64453125 C-12.39843942 0.36155533 -6.37930042 -1.21920993 0 0 Z " fill="#32EE88FF" transform="translate(494,282)"/>
<path d="M0 0 C0.33 0 0.66 0 1 0 C1.0989211 4.21746325 1.17149012 8.43431121 1.21972656 12.65258789 C1.23983525 14.08727786 1.26712673 15.52188593 1.30175781 16.95629883 C1.3503146 19.01924839 1.37297406 21.08111431 1.390625 23.14453125 C1.41157227 24.38565674 1.43251953 25.62678223 1.45410156 26.90551758 C1 30 1 30 -0.76757812 31.91015625 C-3.13035884 33.06363975 -4.50273104 33.35221066 -7.109375 33.29296875 C-7.86347656 33.28330078 -8.61757813 33.27363281 -9.39453125 33.26367188 C-10.17183594 33.23853516 -10.94914063 33.21339844 -11.75 33.1875 C-12.93916016 33.16719727 -12.93916016 33.16719727 -14.15234375 33.14648438 C-16.10185564 33.11125223 -18.05101626 33.05744821 -20 33 C-20 32.01 -20 31.02 -20 30 C-13.73 29.67 -7.46 29.34 -1 29 C-0.67 19.43 -0.34 9.86 0 0 Z " fill="#32EE88FF" transform="translate(620,282)"/>
<path d="M0 0 C1.9375 0.75 1.9375 0.75 3.9375 2.75 C3.38194444 7.30555556 3.38194444 7.30555556 1.9375 8.75 C-1.0625 8.875 -1.0625 8.875 -4.0625 8.75 C-5.0625 7.75 -5.0625 7.75 -5.3125 4.8125 C-5.23 3.801875 -5.1475 2.79125 -5.0625 1.75 C-2.0625 -0.25 -2.0625 -0.25 0 0 Z " fill="#32EE88FF" transform="translate(491.0625,291.25)"/>
</svg>
