<?xml version="1.0" encoding="UTF-8"?>
<svg version="1.1" xmlns="http://www.w3.org/2000/svg" width="1004" height="591">
<path d="M0 0 C331.32 0 662.64 0 1004 0 C1004 195.03 1004 390.06 1004 591 C672.68 591 341.36 591 0 591 C0 395.97 0 200.94 0 0 Z " fill="#022031FF" transform="translate(0,0)"/>
<path d="M0 0 C1.98298358 0.01239261 3.96599111 0.02138107 5.94900513 0.02711487 C11.15421042 0.05192018 16.35764065 0.12562506 21.56219482 0.20880127 C25.82501763 0.26896946 30.08773347 0.29532271 34.35088921 0.31977749 C43.13769859 0.37031768 51.92448153 0.44268421 60.71044922 0.57592773 C61.52807236 0.58490082 62.3456955 0.5938739 63.18809509 0.6031189 C68.76703504 0.70062879 68.76703504 0.70062879 69.8828125 1.81640625 C69.96735757 3.58596728 69.98077782 5.35895185 69.9670105 7.13047791 C69.95784859 8.86049294 69.95784859 8.86049294 69.94850159 10.62545776 C69.93121254 12.54130173 69.93121254 12.54130173 69.91357422 14.49584961 C69.90515139 15.84608113 69.89731717 17.19631644 69.89002991 18.54655457 C69.87825336 20.70939116 69.86604313 22.8722181 69.85206103 25.03504169 C69.81748332 30.41975127 69.80133603 35.80428744 69.79641724 41.18910217 C69.79568455 41.97115821 69.79495186 42.75321425 69.79419696 43.55896896 C69.79152994 46.78922589 69.78948333 50.01948293 69.7877214 53.24974048 C69.78195968 62.39987169 69.75863282 71.54914807 69.68066406 80.69897461 C69.61886095 87.96587656 69.59675641 95.23172492 69.61947644 102.49886996 C69.63003513 106.3389322 69.62172341 110.17669299 69.56515121 114.01640129 C69.34160053 129.97394275 69.22638135 143.26492203 79.61843872 156.33253479 C81.80996999 159.2250923 81.88232885 159.73363929 81.90524292 163.65489197 C80.8828125 166.81640625 80.8828125 166.81640625 77.8828125 168.81640625 C75.3203125 169.06640625 75.3203125 169.06640625 72.8828125 168.81640625 C72.2228125 168.15640625 71.5628125 167.49640625 70.8828125 166.81640625 C70.5528125 167.80640625 70.2228125 168.79640625 69.8828125 169.81640625 C33.2528125 169.81640625 -3.3771875 169.81640625 -41.1171875 169.81640625 C-41.39930874 133.48545996 -41.39930874 133.48545996 -41.45898438 118.25976562 C-41.50051874 107.74707128 -41.54934236 97.2347697 -41.64526367 86.72241211 C-41.7150902 79.06621744 -41.76020822 71.41034141 -41.77580696 63.75383717 C-41.78492381 59.70053059 -41.80630898 55.64813547 -41.8572979 51.59512138 C-41.90493685 47.77733296 -41.91944412 43.9608282 -41.90894127 40.14277077 C-41.91086158 38.74432769 -41.9247145 37.34584016 -41.95162582 35.94765472 C-42.14490517 25.38453157 -42.14490517 25.38453157 -39.57460213 21.46267891 C-37.84303813 19.71730134 -36.09661432 18.26670841 -34.1171875 16.81640625 C-32.93195558 15.52064676 -31.76050033 14.21179902 -30.6171875 12.87890625 C-28.8671875 10.84765625 -28.8671875 10.84765625 -27.1171875 8.81640625 C-26.78181976 8.17473511 -26.44645203 7.53306396 -26.10092163 6.87194824 C-20.3042987 -2.35199566 -9.60529374 -0.19701609 0 0 Z " fill="#022031FF" transform="translate(425.1171875,207.18359375)"/>
<path d="M0 0 C1.13526123 -0.00145523 2.27052246 -0.00291046 3.44018555 -0.00440979 C5.83742848 -0.00275179 8.23468217 0.00879827 10.63183594 0.02954102 C14.29928852 0.05848947 17.96529485 0.05014791 21.6328125 0.03710938 C23.96354869 0.04334713 26.29428031 0.05173835 28.625 0.0625 C29.72094482 0.05956436 30.81688965 0.05662872 31.94604492 0.05360413 C32.97060791 0.0662883 33.9951709 0.07897247 35.05078125 0.09204102 C35.94837158 0.097444 36.84596191 0.10284698 37.77075195 0.1084137 C41.92712687 0.74236467 44.40101523 2.42203439 47.10073853 5.60328674 C48.8167414 9.69985628 48.731387 13.38094814 48.70068359 17.78100586 C48.70594055 18.70844101 48.71119751 19.63587616 48.71661377 20.59141541 C48.72979998 23.65226158 48.7210797 26.71258617 48.7109375 29.7734375 C48.7129588 31.90426228 48.71587071 34.0350864 48.71963501 36.16590881 C48.72405665 40.6304483 48.71763298 45.09480764 48.70361328 49.55932617 C48.68653202 55.2769733 48.69635707 60.99419761 48.71433067 66.71182919 C48.72518161 71.11193516 48.72171594 75.51194124 48.7139473 79.91205025 C48.71194838 82.01994438 48.71439371 84.12784764 48.72138596 86.23573112 C48.72902067 89.18466005 48.71736713 92.13290873 48.70068359 95.08178711 C48.70675629 95.95003113 48.71282898 96.81827515 48.71908569 97.71282959 C48.66691587 102.70060612 48.12927301 106.20023195 45.3125 110.49609375 C41.97021543 112.72428346 40.82010467 112.76349544 36.91064453 112.81835938 C35.80584747 112.83757446 34.70105042 112.85678955 33.56277466 112.87658691 C31.77213089 112.88933655 31.77213089 112.88933655 29.9453125 112.90234375 C28.71843719 112.9137439 27.49156189 112.92514404 26.22750854 112.93688965 C23.63006036 112.95579444 21.03256415 112.96885953 18.43505859 112.9765625 C14.45976236 112.99598498 10.48652976 113.05802497 6.51171875 113.12109375 C3.98959563 113.13415292 1.46745771 113.14465422 -1.0546875 113.15234375 C-2.24440155 113.17703735 -3.4341156 113.20173096 -4.65988159 113.22717285 C-12.71294234 113.18367002 -12.71294234 113.18367002 -15.54400635 111.1862793 C-19.81524966 106.1806218 -19.8405927 101.90864098 -19.84863281 95.62768555 C-19.85359772 94.70883575 -19.85856262 93.78998596 -19.86367798 92.84329224 C-19.8783206 89.79395812 -19.88510535 86.74467604 -19.890625 83.6953125 C-19.89637504 81.58022561 -19.90213279 79.46513873 -19.90789795 77.35005188 C-19.91841413 72.91053016 -19.92425265 68.47102657 -19.92773438 64.03149414 C-19.93321819 58.3417286 -19.95724133 52.65220248 -19.98570633 46.96251202 C-20.00432756 42.59163207 -20.00953805 38.22080983 -20.01107025 33.84989357 C-20.01409883 31.75232447 -20.02213424 29.65475643 -20.03525543 27.55722618 C-20.05230381 24.62219401 -20.05043846 21.6877471 -20.04394531 18.75268555 C-20.0531601 17.88548386 -20.06237488 17.01828217 -20.0718689 16.12480164 C-20.02981006 10.05798574 -18.72343051 6.86956813 -14.73046875 2.21459961 C-9.97991823 -0.46825703 -5.36406336 -0.05498431 0 0 Z " fill="#022031FF" transform="translate(531.6875,300.50390625)"/>
<path d="M0 0 C1.98298358 0.01239261 3.96599111 0.02138107 5.94900513 0.02711487 C11.15421042 0.05192018 16.35764065 0.12562506 21.56219482 0.20880127 C25.82501763 0.26896946 30.08773347 0.29532271 34.35088921 0.31977749 C43.13769859 0.37031768 51.92448153 0.44268421 60.71044922 0.57592773 C61.52807236 0.58490082 62.3456955 0.5938739 63.18809509 0.6031189 C68.76703504 0.70062879 68.76703504 0.70062879 69.8828125 1.81640625 C69.96735757 3.58596728 69.98077782 5.35895185 69.9670105 7.13047791 C69.95784859 8.86049294 69.95784859 8.86049294 69.94850159 10.62545776 C69.93121254 12.54130173 69.93121254 12.54130173 69.91357422 14.49584961 C69.90515139 15.84608113 69.89731717 17.19631644 69.89002991 18.54655457 C69.87825336 20.70939116 69.86604313 22.8722181 69.85206103 25.03504169 C69.81748332 30.41975127 69.80133603 35.80428744 69.79641724 41.18910217 C69.79568455 41.97115821 69.79495186 42.75321425 69.79419696 43.55896896 C69.79152994 46.78922589 69.78948333 50.01948293 69.7877214 53.24974048 C69.78195968 62.39987169 69.75863282 71.54914807 69.68066406 80.69897461 C69.61886095 87.96587656 69.59675641 95.23172492 69.61947644 102.49886996 C69.63003513 106.3389322 69.62172341 110.17669299 69.56515121 114.01640129 C69.34160053 129.97394275 69.22638135 143.26492203 79.61843872 156.33253479 C81.80996999 159.2250923 81.88232885 159.73363929 81.90524292 163.65489197 C80.8828125 166.81640625 80.8828125 166.81640625 77.8828125 168.81640625 C75.3203125 169.06640625 75.3203125 169.06640625 72.8828125 168.81640625 C72.2228125 168.15640625 71.5628125 167.49640625 70.8828125 166.81640625 C70.5528125 167.80640625 70.2228125 168.79640625 69.8828125 169.81640625 C33.2528125 169.81640625 -3.3771875 169.81640625 -41.1171875 169.81640625 C-41.39930874 133.48545996 -41.39930874 133.48545996 -41.45898438 118.25976562 C-41.50051874 107.74707128 -41.54934236 97.2347697 -41.64526367 86.72241211 C-41.7150902 79.06621744 -41.76020822 71.41034141 -41.77580696 63.75383717 C-41.78492381 59.70053059 -41.80630898 55.64813547 -41.8572979 51.59512138 C-41.90493685 47.77733296 -41.91944412 43.9608282 -41.90894127 40.14277077 C-41.91086158 38.74432769 -41.9247145 37.34584016 -41.95162582 35.94765472 C-42.14490517 25.38453157 -42.14490517 25.38453157 -39.57460213 21.46267891 C-37.84303813 19.71730134 -36.09661432 18.26670841 -34.1171875 16.81640625 C-32.93195558 15.52064676 -31.76050033 14.21179902 -30.6171875 12.87890625 C-28.8671875 10.84765625 -28.8671875 10.84765625 -27.1171875 8.81640625 C-26.78181976 8.17473511 -26.44645203 7.53306396 -26.10092163 6.87194824 C-20.3042987 -2.35199566 -9.60529374 -0.19701609 0 0 Z M-16.1171875 4.81640625 C-16.1171875 12.07640625 -16.1171875 19.33640625 -16.1171875 26.81640625 C-26.5121875 27.31140625 -26.5121875 27.31140625 -37.1171875 27.81640625 C-37.1171875 73.35640625 -37.1171875 118.89640625 -37.1171875 165.81640625 C-3.4571875 165.81640625 30.2028125 165.81640625 64.8828125 165.81640625 C65.35829799 156.98004517 65.35829799 156.98004517 62.14453125 150.38671875 C61.57154297 149.48953125 60.99855469 148.59234375 60.40820312 147.66796875 C59.80169922 146.76820313 59.19519531 145.8684375 58.5703125 144.94140625 C57.97541016 144.0184375 57.38050781 143.09546875 56.76757812 142.14453125 C55.1687763 139.67933962 53.55146655 137.23479934 51.8828125 134.81640625 C51.41665527 134.06601074 50.95049805 133.31561523 50.47021484 132.54248047 C49.02506533 130.62436721 49.02506533 130.62436721 46.77319336 130.42578125 C45.97276611 130.4721875 45.17233887 130.51859375 44.34765625 130.56640625 C43.45997559 130.60016357 42.57229492 130.6339209 41.65771484 130.66870117 C40.72137207 130.71744385 39.7850293 130.76618652 38.8203125 130.81640625 C31.24120705 131.02547171 24.43176823 131.20684967 17.8828125 126.81640625 C17.43274338 126.30434128 16.98267426 125.79227631 16.51896667 125.26469421 C13.63213582 122.70933455 9.72937338 123.45557902 6.05859375 123.5234375 C4.76649239 123.52980476 4.76649239 123.52980476 3.44828796 123.53630066 C0.69697819 123.55309377 -2.05359912 123.59074669 -4.8046875 123.62890625 C-6.6699113 123.64395229 -8.53514657 123.65764084 -10.40039062 123.66992188 C-14.97293848 123.70299932 -19.5449388 123.75478565 -24.1171875 123.81640625 C-24.1171875 122.49640625 -24.1171875 121.17640625 -24.1171875 119.81640625 C-13.2271875 119.81640625 -2.3371875 119.81640625 8.8828125 119.81640625 C7.2734529 115.79300726 5.58979613 111.79936805 3.8828125 107.81640625 C-5.0271875 107.48640625 -13.9371875 107.15640625 -23.1171875 106.81640625 C-23.4471875 105.82640625 -23.7771875 104.83640625 -24.1171875 103.81640625 C-15.2071875 103.81640625 -6.2971875 103.81640625 2.8828125 103.81640625 C2.8828125 99.85640625 2.8828125 95.89640625 2.8828125 91.81640625 C-9.9871875 91.32140625 -9.9871875 91.32140625 -23.1171875 90.81640625 C-23.4471875 89.82640625 -23.7771875 88.83640625 -24.1171875 87.81640625 C-14.5471875 87.81640625 -4.9771875 87.81640625 4.8828125 87.81640625 C6.2028125 85.17640625 7.5228125 82.53640625 8.8828125 79.81640625 C9.5428125 78.49640625 10.2028125 77.17640625 10.8828125 75.81640625 C-0.3371875 75.48640625 -11.5571875 75.15640625 -23.1171875 74.81640625 C-23.4471875 73.82640625 -23.7771875 72.83640625 -24.1171875 71.81640625 C-22.91707031 71.83735352 -21.71695312 71.85830078 -20.48046875 71.87988281 C-16.00028557 71.95263812 -11.52015395 71.99833457 -7.03955078 72.03613281 C-5.10554198 72.05616766 -3.17159315 72.08340354 -1.23779297 72.11816406 C1.55255993 72.16704196 4.34210751 72.18945644 7.1328125 72.20703125 C7.98834717 72.22767639 8.84388184 72.24832153 9.7253418 72.26959229 C15.00501362 72.27153696 18.62675001 71.39262992 23.21733093 68.74938965 C29.84677936 65.03564976 39.99115984 66.07593456 47.0703125 67.87890625 C54.33058708 70.34974163 60.35201647 74.96250808 63.8828125 81.81640625 C64.5428125 81.81640625 65.2028125 81.81640625 65.8828125 81.81640625 C65.8828125 56.40640625 65.8828125 30.99640625 65.8828125 4.81640625 C38.8228125 4.81640625 11.7628125 4.81640625 -16.1171875 4.81640625 Z " fill="#32EE88" transform="translate(425.1171875,207.18359375)"/>
<path d="M0 0 C3.125 2.125 3.125 2.125 5 4 C5 4.66 5 5.32 5 6 C5.66 6 6.32 6 7 6 C7.81567174 7.43570266 8.62742093 8.87363434 9.4375 10.3125 C9.88996094 11.11300781 10.34242188 11.91351563 10.80859375 12.73828125 C14.39571286 19.54792703 14.01351916 28.51459214 11.9375 35.8125 C8.89623951 43.52174172 3.30954466 48.31915511 -3.88671875 52.08984375 C-10.8460836 55.08713027 -19.92548035 55.09789437 -27.29296875 53.50390625 C-29 52.8125 -29 52.8125 -32 51 C-32.86818359 50.52433594 -32.86818359 50.52433594 -33.75390625 50.0390625 C-40.01120806 46.22791971 -43.71686848 39.84939456 -46 33 C-46.8684016 22.07054563 -46.38915407 13.91362942 -39.42578125 4.98046875 C-29.25635988 -6.27938009 -12.97684018 -7.3369058 0 0 Z " fill="#022031FF" transform="translate(478,281)"/>
<path d="M0 0 C1.32 0 2.64 0 4 0 C4.16276042 1.98567708 4.32552083 3.97135417 4.48828125 5.95703125 C4.8305079 8.07757922 4.8305079 8.07757922 6.42784405 9.40142822 C10.67880122 13.72381122 11.34191188 19.86734797 11.3732605 25.64341736 C11.36247467 26.44687088 11.35168884 27.2503244 11.34057617 28.078125 C11.34123329 29.38197899 11.34123329 29.38197899 11.34190369 30.71217346 C11.33982938 33.5583517 11.31656304 36.40392587 11.29296875 39.25 C11.28736796 41.23396483 11.28310014 43.21793382 11.28010559 45.2019043 C11.2686949 50.4034995 11.23926036 55.60484023 11.20599365 60.80633545 C11.17521116 66.12215737 11.16158281 71.43802073 11.14648438 76.75390625 C11.11438693 87.16938215 11.06323648 97.58466985 11 108 C11.66 108 12.32 108 13 108 C13.33 97.77 13.66 87.54 14 77 C15.32 77 16.64 77 18 77 C18 87.23 18 97.46 18 108 C17.34 108 16.68 108 16 108 C15.67 108.99 15.34 109.98 15 111 C11.535 111.495 11.535 111.495 8 112 C8.0825 113.0725 8.165 114.145 8.25 115.25 C8 119 8 119 6.3125 121.5 C4 123 4 123 1.4375 122.9375 C-2.45423729 121.44067797 -2.45423729 121.44067797 -4 119 C-4.1875 115.3125 -4.1875 115.3125 -4 112 C-4.99 111.67 -5.98 111.34 -7 111 C-7.09290603 99.30784928 -7.16386947 87.61578719 -7.20724869 75.92334175 C-7.22807436 70.49335769 -7.25630013 65.06362721 -7.30175781 59.63378906 C-7.34539476 54.38827923 -7.36917482 49.14301247 -7.37950897 43.89733505 C-7.38686837 41.90156099 -7.40123927 39.90579941 -7.42292023 37.91012955 C-7.63846152 17.23769876 -7.63846152 17.23769876 -3 10 C-2.34 9.34 -1.68 8.68 -1 8 C-0.54188325 6.02764667 -0.54188325 6.02764667 -0.375 3.875 C-0.189375 1.956875 -0.189375 1.956875 0 0 Z " fill="#32EE88" transform="translate(596,292)"/>
<path d="M0 0 C5.28 0 10.56 0 16 0 C16.02312154 12.36918715 16.04091412 24.73836919 16.05181217 37.10757351 C16.05704141 42.85045062 16.0641398 48.59331301 16.07543945 54.33618164 C16.08626687 59.87339995 16.09227652 65.41060404 16.09487724 70.94783211 C16.09673176 73.06544277 16.10035286 75.18305262 16.10573006 77.30065727 C16.11293856 80.25571274 16.11399102 83.21070871 16.11352539 86.16577148 C16.11712067 87.05049637 16.12071594 87.93522125 16.12442017 88.84675598 C16.11405216 94.88594784 16.11405216 94.88594784 15 96 C10.05 96 5.1 96 0 96 C0 64.32 0 32.64 0 0 Z " fill="#022031FF" transform="translate(605,194)"/>
<path d="M0 0 C4.95 0 9.9 0 15 0 C16.75439163 1.75439163 16.11982963 4.05497456 16.12442017 6.39170837 C16.12082489 7.1642244 16.11722961 7.93674042 16.11352539 8.73266602 C16.11367142 9.5423584 16.11381744 10.35205078 16.1139679 11.1862793 C16.11326854 13.87551508 16.1054751 16.56468249 16.09765625 19.25390625 C16.09579215 21.11335716 16.09436821 22.97280856 16.09336853 24.83226013 C16.08954271 29.73629096 16.07971188 34.64029236 16.06866455 39.54431152 C16.05845181 44.54451092 16.05387121 49.54471506 16.04882812 54.54492188 C16.03808967 64.36329628 16.02049235 74.1816411 16 84 C10.72 84 5.44 84 0 84 C0 56.28 0 28.56 0 0 Z " fill="#022031FF" transform="translate(583,205)"/>
<path d="M0 0 C1.13526123 -0.00145523 2.27052246 -0.00291046 3.44018555 -0.00440979 C5.83742848 -0.00275179 8.23468217 0.00879827 10.63183594 0.02954102 C14.29928852 0.05848947 17.96529485 0.05014791 21.6328125 0.03710938 C23.96354869 0.04334713 26.29428031 0.05173835 28.625 0.0625 C29.72094482 0.05956436 30.81688965 0.05662872 31.94604492 0.05360413 C32.97060791 0.0662883 33.9951709 0.07897247 35.05078125 0.09204102 C35.94837158 0.097444 36.84596191 0.10284698 37.77075195 0.1084137 C41.92712687 0.74236467 44.40101523 2.42203439 47.10073853 5.60328674 C48.8167414 9.69985628 48.731387 13.38094814 48.70068359 17.78100586 C48.70594055 18.70844101 48.71119751 19.63587616 48.71661377 20.59141541 C48.72979998 23.65226158 48.7210797 26.71258617 48.7109375 29.7734375 C48.7129588 31.90426228 48.71587071 34.0350864 48.71963501 36.16590881 C48.72405665 40.6304483 48.71763298 45.09480764 48.70361328 49.55932617 C48.68653202 55.2769733 48.69635707 60.99419761 48.71433067 66.71182919 C48.72518161 71.11193516 48.72171594 75.51194124 48.7139473 79.91205025 C48.71194838 82.01994438 48.71439371 84.12784764 48.72138596 86.23573112 C48.72902067 89.18466005 48.71736713 92.13290873 48.70068359 95.08178711 C48.70675629 95.95003113 48.71282898 96.81827515 48.71908569 97.71282959 C48.66691587 102.70060612 48.12927301 106.20023195 45.3125 110.49609375 C41.97021543 112.72428346 40.82010467 112.76349544 36.91064453 112.81835938 C35.80584747 112.83757446 34.70105042 112.85678955 33.56277466 112.87658691 C31.77213089 112.88933655 31.77213089 112.88933655 29.9453125 112.90234375 C28.71843719 112.9137439 27.49156189 112.92514404 26.22750854 112.93688965 C23.63006036 112.95579444 21.03256415 112.96885953 18.43505859 112.9765625 C14.45976236 112.99598498 10.48652976 113.05802497 6.51171875 113.12109375 C3.98959563 113.13415292 1.46745771 113.14465422 -1.0546875 113.15234375 C-2.24440155 113.17703735 -3.4341156 113.20173096 -4.65988159 113.22717285 C-12.71294234 113.18367002 -12.71294234 113.18367002 -15.54400635 111.1862793 C-19.81524966 106.1806218 -19.8405927 101.90864098 -19.84863281 95.62768555 C-19.85359772 94.70883575 -19.85856262 93.78998596 -19.86367798 92.84329224 C-19.8783206 89.79395812 -19.88510535 86.74467604 -19.890625 83.6953125 C-19.89637504 81.58022561 -19.90213279 79.46513873 -19.90789795 77.35005188 C-19.91841413 72.91053016 -19.92425265 68.47102657 -19.92773438 64.03149414 C-19.93321819 58.3417286 -19.95724133 52.65220248 -19.98570633 46.96251202 C-20.00432756 42.59163207 -20.00953805 38.22080983 -20.01107025 33.84989357 C-20.01409883 31.75232447 -20.02213424 29.65475643 -20.03525543 27.55722618 C-20.05230381 24.62219401 -20.05043846 21.6877471 -20.04394531 18.75268555 C-20.0531601 17.88548386 -20.06237488 17.01828217 -20.0718689 16.12480164 C-20.02981006 10.05798574 -18.72343051 6.86956813 -14.73046875 2.21459961 C-9.97991823 -0.46825703 -5.36406336 -0.05498431 0 0 Z M-15.6875 8.49609375 C-16.272374 11.55894301 -16.23384717 14.57285728 -16.20507812 17.68334961 C-16.2120874 18.61224503 -16.21909668 19.54114044 -16.22631836 20.4981842 C-16.24392629 23.56940591 -16.23226452 26.63970638 -16.21875 29.7109375 C-16.22144433 31.84558794 -16.22532626 33.98023719 -16.23034668 36.11488342 C-16.23624572 40.58964721 -16.22766634 45.06409168 -16.20898438 49.53881836 C-16.18620866 55.27352068 -16.19930697 61.00747365 -16.22327423 66.7421484 C-16.23773286 71.15081928 -16.23312562 75.55931272 -16.22276306 79.96798897 C-16.22009525 82.08229219 -16.22336742 84.19661153 -16.23268127 86.31089592 C-16.24284613 89.26751191 -16.22734553 92.22291746 -16.20507812 95.17944336 C-16.21317505 96.0528537 -16.22127197 96.92626404 -16.22961426 97.82614136 C-16.17441898 101.78425876 -15.95073788 104.02771874 -13.97790527 107.53794861 C-11.25726468 109.86391652 -10.06371576 110.12746751 -6.5234375 110.14306641 C-5.49557129 110.15882721 -4.46770508 110.17458801 -3.40869141 110.19082642 C-1.75232666 110.17564468 -1.75232666 110.17564468 -0.0625 110.16015625 C1.07654785 110.16493988 2.2155957 110.16972351 3.38916016 110.1746521 C5.79656353 110.17805344 8.20401295 110.1688349 10.61132812 110.14794922 C14.29922335 110.12119008 17.98407461 110.14769244 21.671875 110.1796875 C24.01042339 110.17638345 26.34896989 110.16997732 28.6875 110.16015625 C29.79174316 110.1702774 30.89598633 110.18039856 32.03369141 110.19082642 C33.06155762 110.17506561 34.08942383 110.15930481 35.1484375 110.14306641 C36.05126465 110.13908844 36.9540918 110.13511047 37.88427734 110.13101196 C40.48043886 109.64087313 40.48043886 109.64087313 42.60290527 107.53794861 C44.96254488 103.33947918 44.87403273 99.92080056 44.83007812 95.17944336 C44.8370874 94.24879562 44.84409668 93.31814789 44.85131836 92.35929871 C44.86889748 89.28870651 44.85727662 86.21903876 44.84375 83.1484375 C44.8464447 81.01282067 44.85032694 78.87720504 44.85534668 76.74159241 C44.86124143 72.26860864 44.85267842 67.79594462 44.83398438 63.32299805 C44.81118129 57.5871054 44.82432701 51.85196083 44.84827423 46.11609554 C44.86272088 41.70746716 44.85813161 37.29901647 44.84776306 32.89038277 C44.84509337 30.77525303 44.84837403 28.6601072 44.85768127 26.54499626 C44.86782951 23.59067847 44.85237019 20.63757671 44.83007812 17.68334961 C44.83817505 16.80791504 44.84627197 15.93248047 44.85461426 15.03051758 C44.80177825 11.25479495 44.74587623 9.14044499 42.60290527 5.95423889 C39.88411596 4.22337079 38.35748319 3.98982718 35.1484375 3.97851562 C34.12057129 3.96590698 33.09270508 3.95329834 32.03369141 3.94030762 C30.92944824 3.94840454 29.82520508 3.95650146 28.6875 3.96484375 C27.54845215 3.96101685 26.4094043 3.95718994 25.23583984 3.95324707 C22.82844153 3.95052601 20.42101374 3.95790065 18.01367188 3.97460938 C14.32615318 3.9960145 10.64058301 3.97481243 6.953125 3.94921875 C4.61457903 3.95186199 2.27603427 3.95698688 -0.0625 3.96484375 C-1.71886475 3.95269836 -1.71886475 3.95269836 -3.40869141 3.94030762 C-4.95049072 3.95922058 -4.95049072 3.95922058 -6.5234375 3.97851562 C-7.42626465 3.981698 -8.3290918 3.98488037 -9.25927734 3.98815918 C-12.67451263 4.70255663 -13.73271118 5.58968009 -15.6875 8.49609375 Z " fill="#32EE88" transform="translate(531.6875,300.50390625)"/>
<path d="M0 0 C2.4375 2.375 2.4375 2.375 4 5 C4 5.66 4 6.32 4 7 C4.66 7 5.32 7 6 7 C6 6.01 6 5.02 6 4 C7.5625 1.8125 7.5625 1.8125 10 0 C13.96521177 -0.56645882 16.07855498 -0.57590314 19.5 1.5625 C21.60481417 4.98282303 20.87885144 7.19164377 20 11 C19.01 11.33 18.02 11.66 17 12 C17 12.66 17 13.32 17 14 C15.02 14.66 13.04 15.32 11 16 C12.093125 16.0825 13.18625 16.165 14.3125 16.25 C18 17 18 17 20 18.625 C21.45635054 22.08383253 20.91305869 24.41298371 20 28 C18.625 29.9375 18.625 29.9375 17 31 C16.01 31 15.02 31 14 31 C14 31.66 14 32.32 14 33 C14.78375 33.2475 15.5675 33.495 16.375 33.75 C19 35 19 35 20.375 36.6875 C21.28724338 40.06280049 20.81108437 42.63088029 20 46 C16.53076119 48.31282587 15.07794425 48.42478586 11 48 C9.125 46.625 9.125 46.625 8 45 C8 44.34 8 43.68 8 43 C7.34 43 6.68 43 6 43 C5.505 41.515 5.505 41.515 5 40 C4.9175 40.94875 4.835 41.8975 4.75 42.875 C4 46 4 46 2.375 47.375 C-0.92438426 48.24325902 -3.60523444 48.37033806 -7 48 C-9.52783106 45.87988363 -9.91928704 44.40356481 -10.5625 41.1875 C-9.76004241 36.64024034 -7.18757789 34.20655157 -4 31 C-4.804375 30.71125 -5.60875 30.4225 -6.4375 30.125 C-9 29 -9 29 -10 27 C-10.44143161 23.02711547 -10.32030013 21.46043144 -8 18.125 C-7.34 17.42375 -6.68 16.7225 -6 16 C-7.75454385 12.81765895 -7.75454385 12.81765895 -10 10 C-10.45681382 3.83301344 -10.45681382 3.83301344 -8.9375 1.0625 C-5.79665674 -0.65989792 -3.50181214 -0.49148241 0 0 Z " fill="#022031FF" transform="translate(532,339)"/>
<path d="M0 0 C5.61 0 11.22 0 17 0 C17.02255299 8.97921106 17.04091622 17.95840345 17.05181217 26.93763638 C17.05704051 31.10662828 17.06413726 35.27559987 17.07543945 39.44458008 C17.08627008 43.46457686 17.09227721 47.48455405 17.09487724 51.50456429 C17.09673118 53.04162975 17.10035119 54.57869409 17.10573006 56.11575127 C17.11294284 58.26135487 17.11399084 60.40687655 17.11352539 62.55249023 C17.115746 63.77604721 17.11796661 64.99960419 17.12025452 66.26023865 C17 69 17 69 16 70 C13.48863896 70.09975032 11.01096585 70.13882183 8.5 70.125 C7.79746094 70.12886719 7.09492187 70.13273437 6.37109375 70.13671875 C1.12661378 70.12661378 1.12661378 70.12661378 0 69 C-0.09425595 66.85256451 -0.11742648 64.70198974 -0.11352539 62.55249023 C-0.11367142 61.87934784 -0.11381744 61.20620544 -0.1139679 60.51266479 C-0.11326878 58.27794216 -0.10547652 56.0433019 -0.09765625 53.80859375 C-0.09579206 52.26302638 -0.09436816 50.71745843 -0.09336853 49.17189026 C-0.0895434 45.09642923 -0.07971317 41.02100363 -0.06866455 36.94555664 C-0.05845032 32.78988118 -0.05387089 28.63420001 -0.04882812 24.47851562 C-0.03809089 16.31899232 -0.02049414 8.15950464 0 0 Z " fill="#32EE88" transform="translate(538,220)"/>
<path d="M0 0 C0.33 0 0.66 0 1 0 C1 25.74 1 51.48 1 78 C-0.65 78.66 -2.3 79.32 -4 80 C-4.66 78.35 -5.32 76.7 -6 75 C-6.66 75 -7.32 75 -8 75 C-8.66 74.2575 -9.32 73.515 -10 72.75 C-15.63471378 67.03385972 -22.71168794 65.72071135 -30.5 65.4375 C-38.48690317 65.68709072 -44.11869837 67.47957841 -50.05859375 72.8671875 C-57.10339584 80.39531281 -58.73292204 87.8928249 -58.43359375 98.03125 C-57.83122628 103.54481173 -55.88002189 107.36363689 -53 112 C-52.67 112.99 -52.34 113.98 -52 115 C-50.23408113 116.00916033 -50.23408113 116.00916033 -48 117 C-47.01 117.680625 -46.02 118.36125 -45 119.0625 C-41.11418131 121.57209124 -38.24038579 122.13028847 -33.671875 122.09765625 C-32.87265625 122.09443359 -32.0734375 122.09121094 -31.25 122.08789062 C-30.425 122.07951172 -29.6 122.07113281 -28.75 122.0625 C-27.90953125 122.05798828 -27.0690625 122.05347656 -26.203125 122.04882812 C-24.13538599 122.03707961 -22.06768376 122.01914522 -20 122 C-20 122.66 -20 123.32 -20 124 C-18.515 124.99 -18.515 124.99 -17 126 C-23.32628619 129.16314309 -34.67671193 127.77697244 -41.375 126.2109375 C-47.15140533 123.95882709 -47.15140533 123.95882709 -49.36824036 121.45402527 C-52.24242223 118.89290477 -56.14741201 119.51633127 -59.82421875 119.48828125 C-61.11632011 119.46135445 -61.11632011 119.46135445 -62.43452454 119.43388367 C-65.18546658 119.37970702 -67.93623441 119.34586177 -70.6875 119.3125 C-72.55275866 119.27933337 -74.4179943 119.24484433 -76.28320312 119.20898438 C-80.85534318 119.12397644 -85.42743091 119.05720057 -90 119 C-90 117.68 -90 116.36 -90 115 C-79.11 115 -68.22 115 -57 115 C-59.475 110.05 -59.475 110.05 -62 105 C-62 104.34 -62 103.68 -62 103 C-70.91 103 -79.82 103 -89 103 C-89.33 101.68 -89.66 100.36 -90 99 C-81.09 99 -72.18 99 -63 99 C-63 95.04 -63 91.08 -63 87 C-71.58 87 -80.16 87 -89 87 C-89.33 85.68 -89.66 84.36 -90 83 C-80.43 83 -70.86 83 -61 83 C-60.67 81.35 -60.34 79.7 -60 78 C-58.68 76.02 -57.36 74.04 -56 72 C-66.89 71.67 -77.78 71.34 -89 71 C-89.33 69.68 -89.66 68.36 -90 67 C-88.79988281 66.9906543 -87.59976562 66.98130859 -86.36328125 66.97167969 C-81.88260683 66.9316088 -77.40260671 66.86580316 -72.92236328 66.79248047 C-70.98853257 66.76436965 -69.05458907 66.74310621 -67.12060547 66.72900391 C-64.32982045 66.70743679 -61.54037741 66.66071744 -58.75 66.609375 C-57.89446533 66.60814636 -57.03893066 66.60691772 -56.1574707 66.60565186 C-50.91537596 66.47963254 -47.22980621 65.53897312 -42.66548157 62.92529297 C-36.01720245 59.23170305 -25.90266847 60.25672272 -18.8125 62.0625 C-11.98157483 64.37620046 -5.96028553 68.95404686 -2 75 C-2 75.66 -2 76.32 -2 77 C-1.34 77 -0.68 77 0 77 C0 51.59 0 26.18 0 0 Z " fill="#32EE88" transform="translate(491,212)"/>
<path d="M0 0 C2.64590014 -0.02684679 5.29153096 -0.04676357 7.9375 -0.0625 C8.69224609 -0.07087891 9.44699219 -0.07925781 10.22460938 -0.08789062 C12.14994313 -0.09652441 14.07535581 -0.05224333 16 0 C17.62754644 1.62754644 17.12737077 3.44138323 17.12939453 5.6875 C17.13254669 6.68523437 17.13569885 7.68296875 17.13894653 8.7109375 C17.1369223 9.79632813 17.13489807 10.88171875 17.1328125 12 C17.13424759 13.65902344 17.13424759 13.65902344 17.13571167 15.3515625 C17.13639367 17.69531308 17.13453804 20.03906553 17.13037109 22.3828125 C17.12502314 25.98441788 17.13031547 29.58589853 17.13671875 33.1875 C17.13605797 35.45833361 17.13477682 37.72916714 17.1328125 40 C17.13483673 41.08539063 17.13686096 42.17078125 17.13894653 43.2890625 C17.13579437 44.28679687 17.13264221 45.28453125 17.12939453 46.3125 C17.12859894 47.19550781 17.12780334 48.07851563 17.12698364 48.98828125 C17 51 17 51 16 52 C13.48863896 52.09975032 11.01096585 52.13882183 8.5 52.125 C7.79746094 52.12886719 7.09492187 52.13273437 6.37109375 52.13671875 C1.12661378 52.12661378 1.12661378 52.12661378 0 51 C-0.09333705 49.40389018 -0.11745372 47.80366572 -0.11352539 46.20483398 C-0.11344986 45.18385117 -0.11337433 44.16286835 -0.11329651 43.11094666 C-0.10813522 42.0005452 -0.10297394 40.89014374 -0.09765625 39.74609375 C-0.0962413 38.61551041 -0.09482635 37.48492706 -0.09336853 36.32008362 C-0.08775019 32.69252935 -0.07519458 29.06503576 -0.0625 25.4375 C-0.05748736 22.98502693 -0.05292405 20.5325529 -0.04882812 18.08007812 C-0.0377748 12.05336455 -0.02101884 6.02668661 0 0 Z " fill="#32EE88" transform="translate(516,238)"/>
<path d="M0 0 C6.81762424 -0.02464247 13.6352228 -0.04283244 20.45288086 -0.05493164 C22.77417451 -0.05997333 25.09546497 -0.06680651 27.41674805 -0.07543945 C30.74528795 -0.08751225 34.07378602 -0.09322979 37.40234375 -0.09765625 C38.44712387 -0.10281754 39.49190399 -0.10797882 40.56834412 -0.11329651 C41.52926468 -0.11337204 42.49018524 -0.11344757 43.48022461 -0.11352539 C44.33071884 -0.115746 45.18121307 -0.11796661 46.05747986 -0.12025452 C48 0 48 0 49 1 C49.09997642 3.49058914 49.13879627 5.94727395 49.125 8.4375 C49.13080078 9.47874023 49.13080078 9.47874023 49.13671875 10.54101562 C49.12663994 15.74672012 49.12663994 15.74672012 48 18 C32.16 18 16.32 18 0 18 C0 12.06 0 6.12 0 0 Z " fill="#32EE88" transform="translate(522,313)"/>
<path d="M0 0 C1.48831242 0.00667405 2.97660807 0.01863442 4.46484375 0.03515625 C5.22345703 0.03966797 5.98207031 0.04417969 6.76367188 0.04882812 C8.64326246 0.06064945 10.52281274 0.07858547 12.40234375 0.09765625 C12.4269915 5.63354158 12.44517871 11.16939525 12.45727539 16.70532227 C12.46231619 18.59009355 12.46914873 20.4748609 12.4777832 22.35961914 C12.48985992 25.06267261 12.49557443 27.76567456 12.5 30.46875 C12.50516129 31.31666611 12.51032257 32.16458221 12.51564026 33.03819275 C12.5158357 35.05836693 12.46440586 37.07843559 12.40234375 39.09765625 C10.64674433 40.85325567 8.36651933 40.22987544 6.03125 40.234375 C5.32871094 40.23050781 4.62617187 40.22664063 3.90234375 40.22265625 C3.19980469 40.22652344 2.49726562 40.23039062 1.7734375 40.234375 C-3.47104247 40.22427003 -3.47104247 40.22427003 -4.59765625 39.09765625 C-4.6986888 36.29772028 -4.73735713 33.52296981 -4.73046875 30.72265625 C-4.73142548 29.88299316 -4.7323822 29.04333008 -4.73336792 28.17822266 C-4.73404973 26.3994133 -4.73219542 24.62060148 -4.72802734 22.84179688 C-4.72267908 20.10931849 -4.7279723 17.37700449 -4.734375 14.64453125 C-4.73371422 12.92057255 -4.73243306 11.19661396 -4.73046875 9.47265625 C-4.73249298 8.64975098 -4.73451721 7.8268457 -4.73660278 6.97900391 C-4.70809253 0.12779839 -4.70809253 0.12779839 0 0 Z " fill="#32EE88" transform="translate(564.59765625,249.90234375)"/>
<path d="M0 0 C3.125 2.125 3.125 2.125 5 4 C5 4.66 5 5.32 5 6 C5.66 6 6.32 6 7 6 C7.81567174 7.43570266 8.62742093 8.87363434 9.4375 10.3125 C9.88996094 11.11300781 10.34242188 11.91351563 10.80859375 12.73828125 C14.39571286 19.54792703 14.01351916 28.51459214 11.9375 35.8125 C8.89623951 43.52174172 3.30954466 48.31915511 -3.88671875 52.08984375 C-10.8460836 55.08713027 -19.92548035 55.09789437 -27.29296875 53.50390625 C-29 52.8125 -29 52.8125 -32 51 C-32.86818359 50.52433594 -32.86818359 50.52433594 -33.75390625 50.0390625 C-40.01120806 46.22791971 -43.71686848 39.84939456 -46 33 C-46.8684016 22.07054563 -46.38915407 13.91362942 -39.42578125 4.98046875 C-29.25635988 -6.27938009 -12.97684018 -7.3369058 0 0 Z M-38 9 C-42.47045442 16.16087987 -44.11556643 22.95137836 -42.57421875 31.30859375 C-40.66033668 38.08350144 -36.86101368 43.46506502 -30.94140625 47.3515625 C-24.17781518 50.90596385 -17.00741961 52.30287093 -9.5078125 50.3515625 C-1.58406405 47.53369451 4.28045412 42.64573319 8 35 C10.0441502 28.49061391 10.31936353 19.99069252 7.5625 13.6875 C3.70453694 7.25301744 -2.67265759 1.59825573 -9.90625 -0.59765625 C-20.81454298 -2.69383942 -30.61922792 0.58400274 -38 9 Z " fill="#022031FF" transform="translate(478,281)"/>
<path d="M0 0 C5.28 0 10.56 0 16 0 C16.02312154 12.36918715 16.04091412 24.73836919 16.05181217 37.10757351 C16.05704141 42.85045062 16.0641398 48.59331301 16.07543945 54.33618164 C16.08626687 59.87339995 16.09227652 65.41060404 16.09487724 70.94783211 C16.09673176 73.06544277 16.10035286 75.18305262 16.10573006 77.30065727 C16.11293856 80.25571274 16.11399102 83.21070871 16.11352539 86.16577148 C16.11712067 87.05049637 16.12071594 87.93522125 16.12442017 88.84675598 C16.11405216 94.88594784 16.11405216 94.88594784 15 96 C10.05 96 5.1 96 0 96 C0 64.32 0 32.64 0 0 Z M3 3 C3 32.37 3 61.74 3 92 C6.3 92 9.6 92 13 92 C13.02312241 80.54349984 13.04091457 69.08700519 13.05181217 57.63048649 C13.05704122 52.31134787 13.06413927 46.99222516 13.07543945 41.6730957 C13.08626755 36.54436015 13.09227667 31.41563994 13.09487724 26.28689384 C13.09673163 24.32558386 13.10035251 22.36427476 13.10573006 20.40297127 C13.11293946 17.66584553 13.11399099 14.92878403 13.11352539 12.19165039 C13.11712067 11.37238068 13.12071594 10.55311096 13.12442017 9.70901489 C13.465555 6.05496562 13.465555 6.05496562 12 3 C9.03 3 6.06 3 3 3 Z " fill="#32EE88" transform="translate(605,194)"/>
<path d="M0 0 C1.18613892 0.00785522 1.18613892 0.00785522 2.39624023 0.01586914 C3.67724609 0.02070313 3.67724609 0.02070313 4.98413086 0.02563477 C6.33087891 0.03820312 6.33087891 0.03820312 7.70483398 0.05102539 C8.6065332 0.05553711 9.50823242 0.06004883 10.43725586 0.06469727 C12.67234712 0.07652315 14.90730835 0.09300319 17.14233398 0.11352539 C16.58566213 4.65967886 14.78983716 7.64227063 12.26733398 11.42602539 C11.21932617 13.02897461 11.21932617 13.02897461 10.15014648 14.66430664 C9.48756836 15.47254883 8.82499023 16.28079102 8.14233398 17.11352539 C7.15233398 17.11352539 6.16233398 17.11352539 5.14233398 17.11352539 C3.14233398 14.11352539 3.14233398 14.11352539 3.14233398 11.11352539 C-12.83533424 17.78428546 -12.83533424 17.78428546 -26.85766602 27.11352539 C-29.60766602 27.48852539 -29.60766602 27.48852539 -32.85766602 27.11352539 C-33.66204102 26.26790039 -34.46641602 25.42227539 -35.29516602 24.55102539 C-37.64628975 21.7415231 -37.64628975 21.7415231 -40.98657227 22.17993164 C-45.65619894 23.306108 -49.23722349 25.20414824 -53.35766602 27.61352539 C-54.13940186 28.05913818 -54.9211377 28.50475098 -55.7265625 28.96386719 C-62.06048358 32.59343189 -68.31850348 36.3512106 -74.56469727 40.12915039 C-77.39890695 41.83707272 -80.23694169 43.53032835 -83.10766602 45.17602539 C-83.77282227 45.55887695 -84.43797852 45.94172852 -85.12329102 46.33618164 C-86.85766602 47.11352539 -86.85766602 47.11352539 -89.85766602 47.11352539 C-89.85766602 45.79352539 -89.85766602 44.47352539 -89.85766602 43.11352539 C-89.13925537 42.71673584 -88.42084473 42.31994629 -87.68066406 41.91113281 C-84.92026461 40.3853071 -82.16084107 38.85773291 -79.40197754 37.32913208 C-78.16626647 36.64492542 -76.93018343 35.96139014 -75.69372559 35.27853394 C-69.43864724 31.82345051 -63.20156795 28.35728362 -57.08032227 24.66821289 C-56.23058838 24.1587915 -55.38085449 23.64937012 -54.50537109 23.12451172 C-52.94904712 22.18431519 -51.40014399 21.23168158 -49.86035156 20.26464844 C-45.39340697 17.57394814 -42.22885558 16.3538286 -36.85766602 17.11352539 C-35.17104144 18.75999224 -33.50254895 20.42535606 -31.85766602 22.11352539 C-27.73690112 21.81694347 -24.51241478 20.07987987 -20.90063477 18.17211914 C-19.23291016 17.29716797 -19.23291016 17.29716797 -17.53149414 16.40454102 C-16.38100586 15.79288086 -15.23051758 15.1812207 -14.04516602 14.55102539 C-12.86383143 13.9286993 -11.68219364 13.30694842 -10.50024414 12.68579102 C-7.61635215 11.1673336 -4.73568462 9.64307732 -1.85766602 8.11352539 C-2.04329102 6.97915039 -2.22891602 5.84477539 -2.42016602 4.67602539 C-2.63672852 2.91258789 -2.63672852 2.91258789 -2.85766602 1.11352539 C-1.85766602 0.11352539 -1.85766602 0.11352539 0 0 Z " fill="#32EE88" transform="translate(594.857666015625,177.886474609375)"/>
<path d="M0 0 C6.64757442 3.35320126 12.70653669 8.11840365 15.75390625 15.06640625 C17.42071533 21.42963335 17.06450763 27.9633844 15.3125 34.25 C10.18832012 42.68010238 4.69537053 47.33070982 -4.625 50.4375 C-12.94771627 51.02155026 -20.40673844 49.61774826 -27 44.25 C-32.68294179 38.83111409 -35.66626878 32.08715458 -35.9375 24.25 C-35.83499221 16.45940762 -32.12799373 9.81820498 -26.625 4.4375 C-18.20932651 -1.03936687 -9.7624997 -3.9660155 0 0 Z M-27.625 11.4375 C-31.65387018 17.33691705 -32.6835442 23.38053869 -31.625 30.4375 C-28.49197001 38.02615396 -24.30710342 42.35656515 -16.8125 45.6875 C-9.24962031 47.4670011 -3.7884328 46.76055817 3.0703125 43 C7.00059235 40.33540349 10.50399192 37.0877014 12.015625 32.48828125 C13.38126603 24.695221 12.59866036 16.9814587 8.375 10.25 C3.62704364 5.16787663 -2.82817664 2.18429565 -9.75 1.875 C-17.30809013 2.30214481 -22.75611821 5.73395276 -27.625 11.4375 Z " fill="#32EE88" transform="translate(470.625,281.5625)"/>
<path d="M0 0 C4.95 0 9.9 0 15 0 C16.75439163 1.75439163 16.11982963 4.05497456 16.12442017 6.39170837 C16.12082489 7.1642244 16.11722961 7.93674042 16.11352539 8.73266602 C16.11367142 9.5423584 16.11381744 10.35205078 16.1139679 11.1862793 C16.11326854 13.87551508 16.1054751 16.56468249 16.09765625 19.25390625 C16.09579215 21.11335716 16.09436821 22.97280856 16.09336853 24.83226013 C16.08954271 29.73629096 16.07971188 34.64029236 16.06866455 39.54431152 C16.05845181 44.54451092 16.05387121 49.54471506 16.04882812 54.54492188 C16.03808967 64.36329628 16.02049235 74.1816411 16 84 C10.72 84 5.44 84 0 84 C0 56.28 0 28.56 0 0 Z M3 4 C3 29.41 3 54.82 3 81 C6.3 81 9.6 81 13 81 C13 55.59 13 30.18 13 4 C9.7 4 6.4 4 3 4 Z " fill="#32EE88" transform="translate(583,205)"/>
<path d="M0 0 C2.97 0 5.94 0 9 0 C9 20.79 9 41.58 9 63 C6.03 63 3.06 63 0 63 C0 42.21 0 21.42 0 0 Z " fill="#022031FF" transform="translate(542,223)"/>
<path d="M0 0 C1.698647 0.002062 1.698647 0.002062 3.43161011 0.00416565 C5.81697058 0.01320072 8.20231503 0.03676299 10.58740234 0.07397461 C14.23729128 0.12883266 17.8848975 0.13550265 21.53515625 0.13476562 C23.85679056 0.1495102 26.17840942 0.16699476 28.5 0.1875 C29.58967072 0.19083847 30.67934143 0.19417694 31.80203247 0.19761658 C41.46962242 0.37935904 41.46962242 0.37935904 45.1171875 3.69140625 C48.75725353 8.29474067 48.52650941 12.46461569 48.45776367 18.0715332 C48.45842079 19.47714256 48.45842079 19.47714256 48.45909119 20.91114807 C48.45700528 24.00087497 48.43368327 27.09005568 48.41015625 30.1796875 C48.4045596 32.32488203 48.40028983 34.47008041 48.39729309 36.61528015 C48.38584981 42.25585555 48.35638686 47.89619846 48.32318115 53.53668213 C48.29246926 59.29460505 48.27878535 65.05256562 48.26367188 70.81054688 C48.23151685 82.1042687 48.18032656 93.39781813 48.1171875 104.69140625 C47.7871875 104.69140625 47.4571875 104.69140625 47.1171875 104.69140625 C47.1171875 73.34140625 47.1171875 41.99140625 47.1171875 9.69140625 C45.4671875 9.03140625 43.8171875 8.37140625 42.1171875 7.69140625 C41.4571875 7.03140625 40.7971875 6.37140625 40.1171875 5.69140625 C37.83451701 5.37833833 37.83451701 5.37833833 35.16430664 5.41674805 C34.13306168 5.40721603 33.10181671 5.39768402 32.0393219 5.38786316 C30.92161911 5.38877457 29.80391632 5.38968597 28.65234375 5.390625 C27.50809433 5.38633987 26.36384491 5.38205475 25.18492126 5.37763977 C22.7613898 5.37188841 20.33784106 5.3714021 17.91430664 5.37573242 C14.19843183 5.37889032 10.48335428 5.35544935 6.76757812 5.33007812 C4.41666768 5.32780509 2.06575508 5.32710166 -0.28515625 5.328125 C-1.40083481 5.31891525 -2.51651337 5.30970551 -3.66600037 5.30021667 C-5.21759605 5.30955986 -5.21759605 5.30955986 -6.80053711 5.3190918 C-7.71161728 5.31846237 -8.62269745 5.31783295 -9.56138611 5.31718445 C-12.40110391 5.77495658 -13.10961423 6.47214173 -14.8828125 8.69140625 C-15.33733082 10.59072319 -15.33733082 10.59072319 -15.28153992 12.69670105 C-15.29407806 13.50858383 -15.30661621 14.32046661 -15.3195343 15.1569519 C-15.31738167 16.48727951 -15.31738167 16.48727951 -15.31518555 17.84448242 C-15.33047302 19.2496537 -15.33047302 19.2496537 -15.34606934 20.68321228 C-15.37629526 23.78365993 -15.38547999 26.88379913 -15.39453125 29.984375 C-15.41137081 32.13244156 -15.42952006 34.28049821 -15.44892883 36.42854309 C-15.49651341 42.08544828 -15.5262681 47.74231335 -15.55236816 53.39935303 C-15.58213102 59.17061285 -15.62867599 64.94173431 -15.67382812 70.71289062 C-15.75995749 82.03899025 -15.82725992 93.36511828 -15.8828125 104.69140625 C-16.2128125 104.69140625 -16.5428125 104.69140625 -16.8828125 104.69140625 C-16.89311996 103.50790085 -16.90342743 102.32439545 -16.91404724 101.10502625 C-17.01169303 89.96578659 -17.11441872 78.82660389 -17.22215176 67.68745708 C-17.27737759 61.96035895 -17.33079713 56.23325571 -17.38012695 50.50610352 C-17.42777541 44.98179933 -17.48011851 39.45755796 -17.53575325 33.93332863 C-17.5561746 31.82297131 -17.57488804 29.71259676 -17.59188652 27.60220909 C-17.61593529 24.65230442 -17.64598937 21.70251872 -17.67749023 18.75268555 C-17.6832457 17.87515121 -17.68900116 16.99761688 -17.69493103 16.0934906 C-17.73602754 12.72027866 -17.80896798 9.9129398 -18.8828125 6.69140625 C-13.28082111 0.21051005 -8.2658126 -0.16412928 0 0 Z " fill="#32EE88" transform="translate(531.8828125,300.30859375)"/>
<path d="M0 0 C13.86 0 27.72 0 42 0 C42 3.3 42 6.6 42 10 C28.14 10 14.28 10 0 10 C0 6.7 0 3.4 0 0 Z " fill="#022031FF" transform="translate(525,317)"/>
<path d="M0 0 C2.97 0 5.94 0 9 0 C9 14.52 9 29.04 9 44 C6.03 44 3.06 44 0 44 C0 29.48 0 14.96 0 0 Z " fill="#022031FF" transform="translate(520,242)"/>
<path d="M0 0 C3.3 0 6.6 0 10 0 C10 12.21 10 24.42 10 37 C6.7 37 3.4 37 0 37 C0 24.79 0 12.58 0 0 Z " fill="#022031FF" transform="translate(593,356)"/>
<path d="M0 0 C25.41 0 50.82 0 77 0 C77.495 1.98 77.495 1.98 78 4 C51.93 4 25.86 4 -1 4 C-0.67 2.68 -0.34 1.36 0 0 Z " fill="#32EE88" transform="translate(402,246)"/>
<path d="M0 0 C3.3 0 6.6 0 10 0 C10 10.23 10 20.46 10 31 C6.7 31 3.4 31 0 31 C0 20.77 0 10.54 0 0 Z " fill="#022031FF" transform="translate(593,322)"/>
<path d="M0 0 C2.97 0 5.94 0 9 0 C9 10.89 9 21.78 9 33 C6.03 33 3.06 33 0 33 C0 22.11 0 11.22 0 0 Z " fill="#022031FF" transform="translate(564,253)"/>
<path d="M0 0 C2.49361571 1.20381448 4.68143083 2.45428722 7 4 C7 4.66 7 5.32 7 6 C7.66 6 8.32 6 9 6 C9.81567174 7.43570266 10.62742093 8.87363434 11.4375 10.3125 C11.88996094 11.11300781 12.34242188 11.91351563 12.80859375 12.73828125 C16.39571286 19.54792703 16.01351916 28.51459214 13.9375 35.8125 C10.98563255 43.29514074 5.4214449 48.47736131 -1.64453125 52.1015625 C-5.43657068 53.5479457 -8.95762321 53.80750587 -13 54 C-13 53.67 -13 53.34 -13 53 C-15.97 52.34 -18.94 51.68 -22 51 C-18 50 -18 50 -14.375 50.1875 C-8.1986262 50.22200488 -2.60311507 48.24725851 2.0859375 44.19921875 C8.5729852 37.15105511 10.61286113 30.68611074 10.33984375 21.15234375 C9.48878851 13.25807273 5.60488789 9.1514412 -0.390625 4.25 C-0.92171875 3.8375 -1.4528125 3.425 -2 3 C-1.34 2.67 -0.68 2.34 0 2 C0 1.34 0 0.68 0 0 Z " fill="#022031FF" transform="translate(476,281)"/>
<path d="M0 0 C3 0.1875 3 0.1875 5 1.1875 C5.57995227 12.05623508 5.57995227 12.05623508 2 17.1875 C-0.56362052 19.96475557 -2.86773597 21.97684623 -6.6875 22.6875 C-9 22.1875 -9 22.1875 -10.875 21.125 C-12 19.1875 -12 19.1875 -11.9375 15.6875 C-10.86256595 11.67441286 -10.17607758 11.4973746 -7 9.1875 C-6.26924352 6.8734378 -5.59861742 4.53921131 -5 2.1875 C-3 0.1875 -3 0.1875 0 0 Z " fill="#32EE88FF" transform="translate(475,300.8125)"/>
<path d="M0 0 C26.07 0 52.14 0 79 0 C79 0.99 79 1.98 79 3 C52.93 3 26.86 3 0 3 C0 2.01 0 1.02 0 0 Z " fill="#32EE88" transform="translate(401,263)"/>
<path d="M0 0 C3.37405722 0.24993016 4.2222071 1.23278839 6.625 3.75 C11.86864084 10.09580738 11.60443141 17.13264283 11 25 C9.20248244 31.44991596 4.87851684 37.7406698 -1.01171875 41.171875 C-2.9375 42 -2.9375 42 -6 43 C-6 42.34 -6 41.68 -6 41 C-7.32 40.67 -8.64 40.34 -10 40 C-9.33613281 39.70867187 -8.67226563 39.41734375 -7.98828125 39.1171875 C-2.28357076 36.46886934 1.51394847 34.28530394 5 29 C7.20273072 22.06704625 6.25827835 14.77483505 4 8 C2.71332828 6.29705213 1.38903267 4.62053812 0 3 C0 2.01 0 1.02 0 0 Z " fill="#32EE88FF" transform="translate(476,287)"/>
<path d="M0 0 C0.33 0 0.66 0 1 0 C1.00386719 1.23363281 1.00386719 1.23363281 1.0078125 2.4921875 C1.28876932 10.60247431 2.46740608 16.82629005 8 23 C13.42576389 26.84922117 19.12794136 28.10787712 25.6875 28.5625 C26.86699219 28.64628906 28.04648437 28.73007812 29.26171875 28.81640625 C30.61716797 28.90728516 30.61716797 28.90728516 32 29 C31.505 30.485 31.505 30.485 31 32 C23.91649959 34.3611668 16.69284782 32.99584617 10 30 C4.33792612 26.32257058 -0.18582086 21.61371635 -2 15 C-2.58968349 9.55676774 -2.81977347 4.82745218 0 0 Z " fill="#32EE88" transform="translate(438,299)"/>
<path d="M0 0 C0.33 1.32 0.66 2.64 1 4 C1.66 4 2.32 4 3 4 C3.433125 4.639375 3.86625 5.27875 4.3125 5.9375 C6.40849852 8.49927596 7.78299472 8.65221564 11 9 C11 10.32 11 11.64 11 13 C10.05125 13.28875 9.1025 13.5775 8.125 13.875 C4.94788422 14.76825109 4.94788422 14.76825109 3 17 C2.59952556 19.32275177 2.2602896 21.65739357 2 24 C0.68 23.67 -0.64 23.34 -2 23 C-2.103125 21.88625 -2.20625 20.7725 -2.3125 19.625 C-2.539375 18.42875 -2.76625 17.2325 -3 16 C-6.6441774 13.5705484 -8.71241272 13.83820425 -13 14 C-13 13.34 -13 12.68 -13 12 C-11.02 11.67 -9.04 11.34 -7 11 C-7.99 10.34 -8.98 9.68 -10 9 C-7.36 8.34 -4.72 7.68 -2 7 C-1.34 4.69 -0.68 2.38 0 0 Z " fill="#022031FF" transform="translate(537,378)"/>
<path d="M0 0 C12.87 0 25.74 0 39 0 C39 1.32 39 2.64 39 4 C26.46 4 13.92 4 1 4 C0.67 2.68 0.34 1.36 0 0 Z " fill="#32EE88" transform="translate(446,227)"/>
<path d="M0 0 C2 1.5625 2 1.5625 3 4 C2.87890756 7.45113452 2.63213135 9.96862779 0.8125 12.9375 C-1.99093325 14.58089191 -3.8187528 14.5193873 -7 14 C-9.4375 11.875 -9.4375 11.875 -11 9 C-10.936318 5.81590023 -10.51040601 3.85067668 -8.875 1.125 C-5.84140473 -0.69515716 -3.44035486 -0.43004436 0 0 Z " fill="#32EE88" transform="translate(550,356)"/>
<path d="M0 0 C3.4166854 0.48809791 4.83978061 0.78733457 7.0625 3.4375 C7.63599318 7.3802656 7.6289946 9.53110864 5.5 12.9375 C3.0625 14.4375 3.0625 14.4375 -0.5625 14.375 C-3.9375 13.4375 -3.9375 13.4375 -5.9375 10.4375 C-6.28863132 7.13686562 -6.23993074 5.07596489 -4.8125 2.0625 C-2.9375 0.4375 -2.9375 0.4375 0 0 Z " fill="#32EE88" transform="translate(562.9375,355.5625)"/>
<path d="M0 0 C3.4375 0.9375 3.4375 0.9375 5.4375 2.0625 C7.12135831 5.21973433 6.33452275 7.58861508 5.4375 10.9375 C3.75 12.9375 3.75 12.9375 1.4375 13.9375 C-2.06239972 13.86607348 -3.85513143 13.59771066 -6.4375 11.1875 C-7.81113504 8.44022993 -8.09312116 6.96962094 -7.5625 3.9375 C-5.24143877 0.40948693 -4.27159402 -0.07494025 0 0 Z " fill="#32EE88" transform="translate(546.5625,391.0625)"/>
<path d="M0 0 C3.4166854 0.48809791 4.83978061 0.78733457 7.0625 3.4375 C7.63599318 7.3802656 7.6289946 9.53110864 5.5 12.9375 C3.0625 14.4375 3.0625 14.4375 -0.5625 14.375 C-3.9375 13.4375 -3.9375 13.4375 -5.9375 10.4375 C-6.28863132 7.13686562 -6.23993074 5.07596489 -4.8125 2.0625 C-2.9375 0.4375 -2.9375 0.4375 0 0 Z " fill="#32EE88" transform="translate(527.9375,355.5625)"/>
<path d="M0 0 C2.375 1.0625 2.375 1.0625 4 3 C4.58004676 6.98782145 4.63226055 9.08673477 2.3125 12.4375 C0 14 0 14 -2.5 14.5 C-5.90524375 13.81895125 -7.02547983 12.8520847 -9 10 C-9.42841969 6.51143969 -9.66830867 4.15097604 -7.875 1.0625 C-5.09808875 -0.51108304 -3.13770673 -0.38420899 0 0 Z " fill="#32EE88" transform="translate(566,391)"/>
<path d="M0 0 C3.5625 0.5 3.5625 0.5 6.0625 2.0625 C7.5625 4.5 7.5625 4.5 7.5 8.125 C6.5625 11.5 6.5625 11.5 3.5625 13.5 C0.0625 13.875 0.0625 13.875 -3.4375 13.5 C-5.83209387 11.41438598 -6.34420561 10.1219626 -6.8125 7 C-6.10053046 2.25353641 -4.81168642 0.69988166 0 0 Z " fill="#32EE88" transform="translate(545.4375,338.5)"/>
<path d="M0 0 C2 2 2 2 2.4375 5.375 C2 9 2 9 -0.1875 11.5 C-3 13 -3 13 -5.625 12.9375 C-8.27319502 11.89215986 -9.47183949 11.41288502 -11 9 C-11.4375 5.5 -11.4375 5.5 -11 2 C-7.87890362 -1.99500336 -4.5824922 -1.10319257 0 0 Z " fill="#32EE88" transform="translate(533,392)"/>
<path d="M0 0 C3.625 0.375 3.625 0.375 6.125 1.9375 C7.625 4.375 7.625 4.375 7.5625 8 C6.625 11.375 6.625 11.375 3.625 13.375 C0.6875 13.8125 0.6875 13.8125 -2.375 13.375 C-4.8125 11.25 -4.8125 11.25 -6.375 8.375 C-6.17117427 3.17744396 -5.50720281 0.61191142 0 0 Z " fill="#32EE88" transform="translate(545.375,373.625)"/>
<path d="M0 0 C1.9375 1.0625 1.9375 1.0625 3 3 C3.36528977 6.4093712 3.6140629 8.88023824 1.9375 11.9375 C-1.11976176 13.6140629 -3.5906288 13.36528977 -7 13 C-8.9375 11.9375 -8.9375 11.9375 -10 10 C-10.36528977 6.5906288 -10.6140629 4.11976176 -8.9375 1.0625 C-5.88023824 -0.6140629 -3.4093712 -0.36528977 0 0 Z " fill="#32EE88" transform="translate(567,374)"/>
<path d="M0 0 C1.9375 1.0625 1.9375 1.0625 3 3 C3.36528977 6.4093712 3.6140629 8.88023824 1.9375 11.9375 C-1.11976176 13.6140629 -3.5906288 13.36528977 -7 13 C-8.9375 11.9375 -8.9375 11.9375 -10 10 C-10.36528977 6.5906288 -10.6140629 4.11976176 -8.9375 1.0625 C-5.88023824 -0.6140629 -3.4093712 -0.36528977 0 0 Z " fill="#32EE88" transform="translate(567,339)"/>
<path d="M0 0 C1.9375 1.0625 1.9375 1.0625 3 3 C3.36528977 6.4093712 3.6140629 8.88023824 1.9375 11.9375 C-1.11976176 13.6140629 -3.5906288 13.36528977 -7 13 C-8.9375 11.9375 -8.9375 11.9375 -10 10 C-10.36528977 6.5906288 -10.6140629 4.11976176 -8.9375 1.0625 C-5.88023824 -0.6140629 -3.4093712 -0.36528977 0 0 Z " fill="#32EE88" transform="translate(532,339)"/>
<path d="M0 0 C1.9375 1.0625 1.9375 1.0625 3 3 C3.36528977 6.4093712 3.6140629 8.88023824 1.9375 11.9375 C-1.15493758 13.63335287 -3.55514741 13.43060657 -7 13 C-9.66266871 10.76679398 -9.95347082 9.3799883 -10.375 5.9375 C-10 3 -10 3 -8.9375 1.125 C-5.8930714 -0.64273274 -3.4368988 -0.36823916 0 0 Z " fill="#32EE88" transform="translate(532,374)"/>
<path d="M0 0 C0.66 0 1.32 0 2 0 C2 5.28 2 10.56 2 16 C-3.28 16 -8.56 16 -14 16 C-14 15.34 -14 14.68 -14 14 C-12.4609375 12.51953125 -12.4609375 12.51953125 -10.375 10.8125 C-6.91212733 7.8899337 -4.02489092 4.84169098 -1.2265625 1.28515625 C-0.82179688 0.86105469 -0.41703125 0.43695313 0 0 Z " fill="#022031FF" transform="translate(404,215)"/>
<path d="M0 0 C0.45375 0.495 0.9075 0.99 1.375 1.5 C2.87635519 3.22609337 2.87635519 3.22609337 5 3 C5.515625 4.19625 6.03125 5.3925 6.5625 6.625 C10.4420606 14.30273181 16.99423557 18.31265201 25 21 C27.36383809 21.5161408 29.58219127 21.79422904 32 22 C31.67 22.66 31.34 23.32 31 24 C24.5700905 24.34931098 19.792035 24.1692267 14 21 C13.41476562 20.68289063 12.82953125 20.36578125 12.2265625 20.0390625 C5.79714425 16.08033772 1.87732704 9.63464059 0.125 2.375 C0.08375 1.59125 0.0425 0.8075 0 0 Z " fill="#022031FF" transform="translate(432,311)"/>
<path d="M0 0 C1.1240625 0.32742188 2.248125 0.65484375 3.40625 0.9921875 C8.14730541 2.17745135 12.63763058 2.22794919 17.5 2.125 C18.32242187 2.11597656 19.14484375 2.10695313 19.9921875 2.09765625 C21.99492083 2.07436865 23.99750154 2.03850959 26 2 C26 2.66 26 3.32 26 4 C26.99 4.66 27.98 5.32 29 6 C25.54712639 7.72643681 21.67979889 7.22701028 17.875 7.25 C17.04484375 7.270625 16.2146875 7.29125 15.359375 7.3125 C9.55338131 7.34890121 5.31972313 6.3342896 0 4 C0 2.68 0 1.36 0 0 Z " fill="#32EE88" transform="translate(445,332)"/>
<path d="M0 0 C0 0.99 0 1.98 0 3 C-3.46941546 2.54177532 -6.67395049 2.10868317 -10 1 C-14.76513541 0.64178178 -19.35407963 0.6161328 -23.9375 2.0625 C-27 3 -27 3 -30 2 C-30 1.34 -30 0.68 -30 0 C-21.0173293 -5.2581487 -9.15439586 -4.48378573 0 0 Z " fill="#022031FF" transform="translate(476,280)"/>
<path d="M0 0 C11.88 0 23.76 0 36 0 C36 0.99 36 1.98 36 3 C17.685 2.505 17.685 2.505 -1 2 C-0.67 1.34 -0.34 0.68 0 0 Z " fill="#32EE88FF" transform="translate(449,227)"/>
<path d="M0 0 C2.65874043 1.04523002 3.35206024 2.24490707 4.796875 4.6796875 C5.43882812 5.72769531 5.43882812 5.72769531 6.09375 6.796875 C7.046875 8.8046875 7.046875 8.8046875 7.046875 11.8046875 C5.726875 12.1346875 4.406875 12.4646875 3.046875 12.8046875 C1.87454815 11.1837662 0.7091673 9.55781917 -0.453125 7.9296875 C-1.1028125 7.02476562 -1.7525 6.11984375 -2.421875 5.1875 C-3.953125 2.8046875 -3.953125 2.8046875 -3.953125 0.8046875 C-1.953125 -0.1953125 -1.953125 -0.1953125 0 0 Z " fill="#022031FF" transform="translate(480.953125,334.1953125)"/>
<path d="M0 0 C0.33 0 0.66 0 1 0 C1 5.94 1 11.88 1 18 C-1.83967231 15.16032769 -3.8346853 12.35997108 -6 9 C-4.47300326 5.56425733 -2.44973747 2.84485642 0 0 Z " fill="#022031FF" transform="translate(490,323)"/>
<path d="M0 0 C-1.50666687 4.22989706 -4.12748974 5.58868509 -7.9375 7.75 C-9.52884766 8.67039063 -9.52884766 8.67039063 -11.15234375 9.609375 C-14 11 -14 11 -17 11 C-17 9.68 -17 8.36 -17 7 C-14.73595458 5.63319847 -12.46498979 4.28155555 -10.1875 2.9375 C-9.54490234 2.54755859 -8.90230469 2.15761719 -8.24023438 1.75585938 C-3.33984375 -1.11328125 -3.33984375 -1.11328125 0 0 Z " fill="#32EE88FF" transform="translate(522,214)"/>
<path d="M0 0 C0.33 0 0.66 0 1 0 C3.01194964 10.1442839 3.01194964 10.1442839 0.61328125 14.54296875 C-2.10283087 17.66906006 -4.02955669 19.6765189 -8 21 C-10.6875 20.5625 -10.6875 20.5625 -13 20 C-12.195625 19.6596875 -12.195625 19.6596875 -11.375 19.3125 C-7.41659132 17.12495836 -3.94662517 14.6678634 -1.6875 10.6875 C-0.7777776 7.13131242 -0.37146429 3.65273222 0 0 Z " fill="#022031FF" transform="translate(480,304)"/>
<path d="M0 0 C0.66 0.33 1.32 0.66 2 1 C0.02 1.99 0.02 1.99 -2 3 C-2 3.99 -2 4.98 -2 6 C-6.455 6.495 -6.455 6.495 -11 7 C-11 6.67 -11 6.34 -11 6 C-15.455 5.01 -15.455 5.01 -20 4 C-16 3 -16 3 -12.25 3.125 C-9.00223485 3.19190153 -6.63738695 2.64793185 -3.625 1.4375 C-2.42875 0.963125 -1.2325 0.48875 0 0 Z " fill="#022031FF" transform="translate(474,328)"/>
<path d="M0 0 C0 4.95 0 9.9 0 15 C-0.99 15.495 -0.99 15.495 -2 16 C-4.02558881 12.65060119 -4.21738987 10.13037449 -4.125 6.25 C-4.09792969 4.77273438 -4.09792969 4.77273438 -4.0703125 3.265625 C-4.04710937 2.51796875 -4.02390625 1.7703125 -4 1 C-2 0 -2 0 0 0 Z " fill="#022031FF" transform="translate(436,299)"/>
<path d="M0 0 C3 1 3 1 4.1875 2.875 C5 5 5 5 5 8 C2.36 8 -0.28 8 -3 8 C-1.125 1.125 -1.125 1.125 0 0 Z " fill="#022031FF" transform="translate(597,303)"/>
<path d="M0 0 C0.99 0 1.98 0 3 0 C2.9375 2.25 2.9375 2.25 2 5 C-0.65742095 7.0898813 -3.53550551 9 -7 9 C-7 7 -7 7 -4.625 4.5 C-3.75875 3.675 -2.8925 2.85 -2 2 C-1.34 1.34 -0.68 0.68 0 0 Z " fill="#022031FF" transform="translate(479,324)"/>
<path d="M0 0 C2.125 0.375 2.125 0.375 4 1 C4.5625 2.9375 4.5625 2.9375 5 5 C4 6 4 6 1.4375 6.0625 C0.2309375 6.0315625 0.2309375 6.0315625 -1 6 C-1.625 4.125 -1.625 4.125 -2 2 C-1.34 1.34 -0.68 0.68 0 0 Z " fill="#022031FF" transform="translate(527,377)"/>
<path d="M0 0 C2.0625 0.4375 2.0625 0.4375 4 1 C4.625 2.875 4.625 2.875 5 5 C4.34 5.66 3.68 6.32 3 7 C0.875 6.625 0.875 6.625 -1 6 C-1.042721 4.33388095 -1.04063832 2.66617115 -1 1 C-0.67 0.67 -0.34 0.34 0 0 Z " fill="#022031FF" transform="translate(562,342)"/>
<path d="M0 0 C0.66 0 1.32 0 2 0 C2 3.63 2 7.26 2 11 C0.68 11 -0.64 11 -2 11 C-1 3.57142857 -1 3.57142857 0 0 Z " fill="#022031FF" transform="translate(488,305)"/>
<path d="M0 0 C1.32 0 2.64 0 4 0 C4 2.64 4 5.28 4 8 C3.01 8.495 3.01 8.495 2 9 C1.34 8.67 0.68 8.34 0 8 C0 5.36 0 2.72 0 0 Z " fill="#32EE88FF" transform="translate(596,292)"/>
<path d="M0 0 C1.67542976 0.28604898 3.34385343 0.61781233 5 1 C5 2.32 5 3.64 5 5 C3.35 5.33 1.7 5.66 0 6 C-0.38218767 4.34385343 -0.71395102 2.67542976 -1 1 C-0.67 0.67 -0.34 0.34 0 0 Z " fill="#022031FF" transform="translate(544,395)"/>
<path d="M0 0 C2.0625 0.4375 2.0625 0.4375 4 1 C4.5625 2.9375 4.5625 2.9375 5 5 C4 6 4 6 1.4375 6.0625 C0.2309375 6.0315625 0.2309375 6.0315625 -1 6 C-1.042721 4.33388095 -1.04063832 2.66617115 -1 1 C-0.67 0.67 -0.34 0.34 0 0 Z " fill="#022031FF" transform="translate(562,377)"/>
<path d="M0 0 C1.67542976 0.28604898 3.34385343 0.61781233 5 1 C4.67 2.65 4.34 4.3 4 6 C2.68 6 1.36 6 0 6 C-0.38218767 4.34385343 -0.71395102 2.67542976 -1 1 C-0.67 0.67 -0.34 0.34 0 0 Z " fill="#022031FF" transform="translate(544,360)"/>
<path d="M0 0 C1.67542976 0.28604898 3.34385343 0.61781233 5 1 C4.67 2.32 4.34 3.64 4 5 C2.68 5.33 1.36 5.66 0 6 C-0.38218767 4.34385343 -0.71395102 2.67542976 -1 1 C-0.67 0.67 -0.34 0.34 0 0 Z " fill="#022031FF" transform="translate(562,395)"/>
<path d="M0 0 C1.32 0 2.64 0 4 0 C5.125 3.75 5.125 3.75 4 6 C2.35 5.67 0.7 5.34 -1 5 C-0.67 3.35 -0.34 1.7 0 0 Z " fill="#022031FF" transform="translate(562,360)"/>
<path d="M0 0 C1.65 0 3.3 0 5 0 C5 1.65 5 3.3 5 5 C3.0625 5.5625 3.0625 5.5625 1 6 C0 5 0 5 -0.0625 2.4375 C-0.041875 1.633125 -0.02125 0.82875 0 0 Z " fill="#022031FF" transform="translate(526,395)"/>
<path d="M0 0 C1.65 0 3.3 0 5 0 C5.5625 1.9375 5.5625 1.9375 6 4 C5 5 5 5 2.4375 5.0625 C1.2309375 5.0315625 1.2309375 5.0315625 0 5 C0 3.35 0 1.7 0 0 Z " fill="#022031FF" transform="translate(526,343)"/>
<path d="M0 0 C1.32 0 2.64 0 4 0 C4 2.31 4 4.62 4 7 C2.68 6.67 1.36 6.34 0 6 C0 4.02 0 2.04 0 0 Z " fill="#022031FF" transform="translate(596,404)"/>
<path d="M0 0 C2.125 0.9375 2.125 0.9375 4 2 C3.34 3.32 2.68 4.64 2 6 C0.68 5.67 -0.64 5.34 -2 5 C-2 3.68 -2 2.36 -2 1 C-1.34 0.67 -0.68 0.34 0 0 Z " fill="#022031FF" transform="translate(528,360)"/>
<path d="M0 0 C1.65 0.33 3.3 0.66 5 1 C4.67 2.32 4.34 3.64 4 5 C2.35 4.67 0.7 4.34 -1 4 C-0.67 2.68 -0.34 1.36 0 0 Z " fill="#022031FF" transform="translate(544,378)"/>
<path d="M0 0 C1.65 0.33 3.3 0.66 5 1 C4.67 2.32 4.34 3.64 4 5 C2.35 4.67 0.7 4.34 -1 4 C-0.67 2.68 -0.34 1.36 0 0 Z " fill="#022031FF" transform="translate(544,343)"/>
<path d="M0 0 C3.63 0.66 7.26 1.32 11 2 C10.67 2.66 10.34 3.32 10 4 C6.7 4 3.4 4 0 4 C0 2.68 0 1.36 0 0 Z " fill="#022031FF" transform="translate(453,331)"/>
<path d="M0 0 C0.33 0 0.66 0 1 0 C1.33 3.96 1.66 7.92 2 12 C1.01 12.495 1.01 12.495 0 13 C-1.29676812 8.38926889 -0.71109139 4.66159911 0 0 Z " fill="#022031FF" transform="translate(480,304)"/>
<path d="M0 0 C0.33 0 0.66 0 1 0 C1.36923077 5.53846154 1.36923077 5.53846154 -0.5 7.875 C-1.2425 8.431875 -1.2425 8.431875 -2 9 C-1.125 1.125 -1.125 1.125 0 0 Z " fill="#32EE88FF" transform="translate(438,299)"/>
<path d="M0 0 C0.66 0 1.32 0 2 0 C1.67 1.65 1.34 3.3 1 5 C-0.65 5.33 -2.3 5.66 -4 6 C-2.7260411 3.96166576 -1.38938077 1.96147874 0 0 Z " fill="#022031FF" transform="translate(478,315)"/>
</svg>
