<?xml version="1.0" encoding="UTF-8"?>
<svg version="1.1" xmlns="http://www.w3.org/2000/svg" width="1004" height="591">
<path d="M0 0 C331.32 0 662.64 0 1004 0 C1004 195.03 1004 390.06 1004 591 C672.68 591 341.36 591 0 591 C0 395.97 0 200.94 0 0 Z " fill="#022031FF" transform="translate(0,0)"/>
<path d="M0 0 C1.08969523 -0.00551503 1.08969523 -0.00551503 2.20140451 -0.01114148 C4.64245042 -0.02217878 7.08345375 -0.02602228 9.52452087 -0.02983093 C11.27226395 -0.0360957 13.02000569 -0.04274251 14.76774597 -0.04974365 C20.51470512 -0.07079013 26.26166454 -0.08114864 32.00865173 -0.09111023 C33.9880417 -0.09515798 35.96743153 -0.09927491 37.94682121 -0.10346031 C47.24906154 -0.12251563 56.55129392 -0.13674426 65.85355002 -0.14507228 C76.58347933 -0.15483735 87.31320195 -0.1811364 98.04305845 -0.22157317 C106.34044825 -0.25176694 114.63777892 -0.26654437 122.93522257 -0.26985329 C127.88868181 -0.27220065 132.84192032 -0.28111974 137.79532051 -0.30631447 C142.45996773 -0.32965633 147.12424987 -0.33380389 151.78894043 -0.32355309 C153.49567825 -0.32305905 155.2024344 -0.3293403 156.90911674 -0.34310913 C168.97536339 -0.43496174 178.94611463 0.46619946 188.15318298 9.07685852 C193.87171442 15.81201777 196.06618989 23.26996995 196.02452087 31.92329407 C196.0246669 32.71377136 196.02481293 33.50424866 196.02496338 34.31867981 C196.02426658 36.93211102 196.01648503 39.54547101 196.00865173 42.15888977 C196.00678673 43.97064169 196.00536321 45.78239412 196.00436401 47.59414673 C196.00054534 52.36334118 195.99072057 57.1325052 195.97966003 61.90168762 C195.96943197 66.76801644 195.9648634 71.63435018 195.95982361 76.50068665 C195.94909774 86.04952815 195.93202908 95.59834705 195.91099548 105.14717102 C197.00226746 105.1026178 198.09353943 105.05806458 199.21788025 105.01216125 C203.8922137 105.18304156 205.78911672 106.97256901 208.84849548 110.20967102 C209.34156189 110.67566711 209.8346283 111.14166321 210.34263611 111.6217804 C213.02030766 114.35144557 213.89233918 116.00342574 214.38755798 119.81904602 C213.91833649 123.0959043 213.69497001 124.15443175 211.34849548 126.33467102 C210.54412048 127.26279602 209.73974548 128.19092102 208.91099548 129.14717102 C209.18594499 131.2960136 209.18594499 131.2960136 209.91099548 133.14717102 C210.68185486 133.2683429 211.45271423 133.38951477 212.24693298 133.51435852 C213.24982361 133.68193665 214.25271423 133.84951477 215.28599548 134.02217102 C216.78259705 134.26580383 216.78259705 134.26580383 218.30943298 134.51435852 C220.91099548 135.14717102 220.91099548 135.14717102 222.91099548 137.14717102 C223.35793127 140.25148767 223.23508138 143.38934535 223.22349548 146.52217102 C223.23960876 147.3858429 223.25572205 148.24951477 223.27232361 149.13935852 C223.27509303 152.72852579 223.24951294 155.42367293 221.71568298 158.70185852 C219.35004285 160.5964188 217.72948869 160.74101553 214.72349548 160.89717102 C213.8224408 160.95388977 212.92138611 161.01060852 211.99302673 161.06904602 C210.96242126 161.1077179 210.96242126 161.1077179 209.91099548 161.14717102 C209.18594499 162.99832844 209.18594499 162.99832844 208.91099548 165.14717102 C211.10768655 167.7839176 211.10768655 167.7839176 212.78208923 169.29170227 C214.65092179 172.36331287 214.37022572 174.63760663 213.91099548 178.14717102 C212.23544659 180.50546137 210.84873849 182.15285341 208.78599548 184.08467102 C208.31162048 184.57773743 207.83724548 185.07080383 207.34849548 185.57881165 C204.78971919 188.07188963 203.24848574 189.10772939 199.66880798 189.52607727 C196.91099548 189.14717102 196.91099548 189.14717102 194.91099548 188.14717102 C194.91099548 193.75717102 194.91099548 199.36717102 194.91099548 205.14717102 C197.24162048 205.08529602 199.57224548 205.02342102 201.97349548 204.95967102 C209.0497363 204.89371506 213.61395633 205.47389603 219.22349548 210.02217102 C222.63845378 214.32248887 223.43515434 218.4011233 223.28208923 223.80342102 C222.62712442 227.94004091 220.90592783 231.23335142 217.91099548 234.14717102 C210.12604364 239.47358127 201.72730884 238.72614047 192.66978455 238.69648743 C190.91468949 238.70519034 189.15960203 238.71555953 187.40452576 238.72746277 C182.6521931 238.75417698 177.90017922 238.75540728 173.14778614 238.75033617 C169.17196479 238.74819161 165.19620725 238.75797691 161.22039962 238.76754701 C151.83433844 238.78971599 142.44843734 238.79062511 133.06236267 238.77851868 C123.40102972 238.76644808 113.74027996 238.79104251 104.07904649 238.83365881 C95.76620229 238.86896995 87.45354304 238.8808809 79.14062667 238.87438333 C74.18375647 238.87076882 69.22730203 238.87591636 64.27050018 238.90381241 C59.60476145 238.92908883 54.93992638 238.92497061 50.27420044 238.89899063 C48.5699202 238.89428517 46.86557519 238.89963452 45.16136932 238.91623688 C33.61458376 239.02054037 23.73456063 237.82714141 15.05943298 229.36592102 C14.18158142 228.02013977 14.18158142 228.02013977 13.28599548 226.64717102 C12.36947205 225.30138977 12.36947205 225.30138977 11.43443298 223.92842102 C8.46706683 218.51107564 7.618621 213.6685561 7.67048645 207.55418396 C7.6687776 206.80993443 7.66706875 206.06568491 7.66530812 205.29888237 C7.66202549 202.81608368 7.67299653 200.33355791 7.6839447 197.8507843 C7.68450908 196.0666708 7.68419173 194.28255683 7.68305969 192.4984436 C7.68248622 187.66213548 7.69423965 182.82592671 7.70820761 177.98964167 C7.72071589 172.93277141 7.72188555 167.87589884 7.72425842 162.8190155 C7.7304729 153.24625741 7.7468833 143.67354504 7.7669574 134.10080707 C7.78931739 123.20124447 7.80031009 112.30167968 7.81034827 101.40209985 C7.83124953 78.9837649 7.86642491 56.56547052 7.91099548 34.14717102 C6.89779236 34.19357727 5.88458923 34.23998352 4.84068298 34.28779602 C3.48915017 34.3253386 2.1375852 34.36173608 0.78599548 34.39717102 C0.12083923 34.43068665 -0.54431702 34.46420227 -1.22962952 34.49873352 C-6.37409125 34.59960532 -9.11328709 33.3246218 -13.08900452 30.14717102 C-17.24194558 26.02382336 -19.2494902 22.75372262 -19.40150452 16.89717102 C-19.34828231 11.80779733 -18.58702175 9.02335228 -15.08900452 5.14717102 C-10.06563828 0.6138893 -6.67067093 0.02185693 0 0 Z " fill="#022031FF" transform="translate(400.08900451660156,176.8528289794922)"/>
<path d="M0 0 C1.08969523 -0.00551503 1.08969523 -0.00551503 2.20140451 -0.01114148 C4.64245042 -0.02217878 7.08345375 -0.02602228 9.52452087 -0.02983093 C11.27226395 -0.0360957 13.02000569 -0.04274251 14.76774597 -0.04974365 C20.51470512 -0.07079013 26.26166454 -0.08114864 32.00865173 -0.09111023 C33.9880417 -0.09515798 35.96743153 -0.09927491 37.94682121 -0.10346031 C47.24906154 -0.12251563 56.55129392 -0.13674426 65.85355002 -0.14507228 C76.58347933 -0.15483735 87.31320195 -0.1811364 98.04305845 -0.22157317 C106.34044825 -0.25176694 114.63777892 -0.26654437 122.93522257 -0.26985329 C127.88868181 -0.27220065 132.84192032 -0.28111974 137.79532051 -0.30631447 C142.45996773 -0.32965633 147.12424987 -0.33380389 151.78894043 -0.32355309 C153.49567825 -0.32305905 155.2024344 -0.3293403 156.90911674 -0.34310913 C168.97536339 -0.43496174 178.94611463 0.46619946 188.15318298 9.07685852 C193.87171442 15.81201777 196.06618989 23.26996995 196.02452087 31.92329407 C196.0246669 32.71377136 196.02481293 33.50424866 196.02496338 34.31867981 C196.02426658 36.93211102 196.01648503 39.54547101 196.00865173 42.15888977 C196.00678673 43.97064169 196.00536321 45.78239412 196.00436401 47.59414673 C196.00054534 52.36334118 195.99072057 57.1325052 195.97966003 61.90168762 C195.96943197 66.76801644 195.9648634 71.63435018 195.95982361 76.50068665 C195.94909774 86.04952815 195.93202908 95.59834705 195.91099548 105.14717102 C197.00226746 105.1026178 198.09353943 105.05806458 199.21788025 105.01216125 C203.8922137 105.18304156 205.78911672 106.97256901 208.84849548 110.20967102 C209.34156189 110.67566711 209.8346283 111.14166321 210.34263611 111.6217804 C213.02030766 114.35144557 213.89233918 116.00342574 214.38755798 119.81904602 C213.91833649 123.0959043 213.69497001 124.15443175 211.34849548 126.33467102 C210.54412048 127.26279602 209.73974548 128.19092102 208.91099548 129.14717102 C209.18594499 131.2960136 209.18594499 131.2960136 209.91099548 133.14717102 C210.68185486 133.2683429 211.45271423 133.38951477 212.24693298 133.51435852 C213.24982361 133.68193665 214.25271423 133.84951477 215.28599548 134.02217102 C216.78259705 134.26580383 216.78259705 134.26580383 218.30943298 134.51435852 C220.91099548 135.14717102 220.91099548 135.14717102 222.91099548 137.14717102 C223.35793127 140.25148767 223.23508138 143.38934535 223.22349548 146.52217102 C223.23960876 147.3858429 223.25572205 148.24951477 223.27232361 149.13935852 C223.27509303 152.72852579 223.24951294 155.42367293 221.71568298 158.70185852 C219.35004285 160.5964188 217.72948869 160.74101553 214.72349548 160.89717102 C213.8224408 160.95388977 212.92138611 161.01060852 211.99302673 161.06904602 C210.96242126 161.1077179 210.96242126 161.1077179 209.91099548 161.14717102 C209.18594499 162.99832844 209.18594499 162.99832844 208.91099548 165.14717102 C211.10768655 167.7839176 211.10768655 167.7839176 212.78208923 169.29170227 C214.65092179 172.36331287 214.37022572 174.63760663 213.91099548 178.14717102 C212.23544659 180.50546137 210.84873849 182.15285341 208.78599548 184.08467102 C208.31162048 184.57773743 207.83724548 185.07080383 207.34849548 185.57881165 C204.78971919 188.07188963 203.24848574 189.10772939 199.66880798 189.52607727 C196.91099548 189.14717102 196.91099548 189.14717102 194.91099548 188.14717102 C194.91099548 193.75717102 194.91099548 199.36717102 194.91099548 205.14717102 C197.24162048 205.08529602 199.57224548 205.02342102 201.97349548 204.95967102 C209.0497363 204.89371506 213.61395633 205.47389603 219.22349548 210.02217102 C222.63845378 214.32248887 223.43515434 218.4011233 223.28208923 223.80342102 C222.62712442 227.94004091 220.90592783 231.23335142 217.91099548 234.14717102 C210.12604364 239.47358127 201.72730884 238.72614047 192.66978455 238.69648743 C190.91468949 238.70519034 189.15960203 238.71555953 187.40452576 238.72746277 C182.6521931 238.75417698 177.90017922 238.75540728 173.14778614 238.75033617 C169.17196479 238.74819161 165.19620725 238.75797691 161.22039962 238.76754701 C151.83433844 238.78971599 142.44843734 238.79062511 133.06236267 238.77851868 C123.40102972 238.76644808 113.74027996 238.79104251 104.07904649 238.83365881 C95.76620229 238.86896995 87.45354304 238.8808809 79.14062667 238.87438333 C74.18375647 238.87076882 69.22730203 238.87591636 64.27050018 238.90381241 C59.60476145 238.92908883 54.93992638 238.92497061 50.27420044 238.89899063 C48.5699202 238.89428517 46.86557519 238.89963452 45.16136932 238.91623688 C33.61458376 239.02054037 23.73456063 237.82714141 15.05943298 229.36592102 C14.18158142 228.02013977 14.18158142 228.02013977 13.28599548 226.64717102 C12.36947205 225.30138977 12.36947205 225.30138977 11.43443298 223.92842102 C8.46706683 218.51107564 7.618621 213.6685561 7.67048645 207.55418396 C7.6687776 206.80993443 7.66706875 206.06568491 7.66530812 205.29888237 C7.66202549 202.81608368 7.67299653 200.33355791 7.6839447 197.8507843 C7.68450908 196.0666708 7.68419173 194.28255683 7.68305969 192.4984436 C7.68248622 187.66213548 7.69423965 182.82592671 7.70820761 177.98964167 C7.72071589 172.93277141 7.72188555 167.87589884 7.72425842 162.8190155 C7.7304729 153.24625741 7.7468833 143.67354504 7.7669574 134.10080707 C7.78931739 123.20124447 7.80031009 112.30167968 7.81034827 101.40209985 C7.83124953 78.9837649 7.86642491 56.56547052 7.91099548 34.14717102 C6.89779236 34.19357727 5.88458923 34.23998352 4.84068298 34.28779602 C3.48915017 34.3253386 2.1375852 34.36173608 0.78599548 34.39717102 C0.12083923 34.43068665 -0.54431702 34.46420227 -1.22962952 34.49873352 C-6.37409125 34.59960532 -9.11328709 33.3246218 -13.08900452 30.14717102 C-17.24194558 26.02382336 -19.2494902 22.75372262 -19.40150452 16.89717102 C-19.34828231 11.80779733 -18.58702175 9.02335228 -15.08900452 5.14717102 C-10.06563828 0.6138893 -6.67067093 0.02185693 0 0 Z M140.91099548 11.14717102 C139.70310624 15.51468016 140.4874554 19.82007876 141.84849548 24.08467102 C144.97376768 27.20994322 148.70075201 28.06151075 152.91099548 29.14717102 C152.91099548 30.46717102 152.91099548 31.78717102 152.91099548 33.14717102 C107.04099548 33.47717102 61.17099548 33.80717102 13.91099548 34.14717102 C13.73618122 66.45279116 13.73618122 66.45279116 13.61802673 98.75849915 C13.58242808 111.93320227 13.54058424 125.10767512 13.45835876 138.28218079 C13.39850217 147.87723689 13.35983332 157.47210614 13.34646451 167.06734377 C13.33865139 172.1467134 13.32032593 177.22554853 13.27661514 182.30474663 C13.2357753 187.08927533 13.2233494 191.87305128 13.2323494 196.65773773 C13.23070383 198.41007394 13.21883651 200.16243629 13.19576263 201.91462135 C13.07856271 211.27674793 12.98865613 219.00903749 19.91099548 226.14717102 C26.79169171 232.85143914 33.79086801 233.63273108 42.97349548 233.52217102 C43.94093689 233.53377258 44.9083783 233.54537415 45.90513611 233.55732727 C51.28567048 233.53523062 55.34014282 233.29899142 59.91099548 230.14717102 C62.69651352 227.30251247 63.38217913 225.16062534 63.47349548 221.20967102 C63.34159342 217.14468913 63.08734327 216.35792813 60.34849548 213.08467102 C56.71421933 211.03626083 54.04922888 210.39546502 49.91099548 210.14717102 C50.24099548 208.82717102 50.57099548 207.50717102 50.91099548 206.14717102 C96.78099548 205.81717102 142.65099548 205.48717102 189.91099548 205.14717102 C189.91099548 198.21717102 189.91099548 191.28717102 189.91099548 184.14717102 C188.59099548 184.14717102 187.27099548 184.14717102 185.91099548 184.14717102 C185.78982361 184.83424133 185.66865173 185.52131165 185.54380798 186.22920227 C185.2924408 187.5807843 185.2924408 187.5807843 185.03599548 188.95967102 C184.79236267 190.29965149 184.79236267 190.29965149 184.54380798 191.66670227 C183.91099548 194.14717102 183.91099548 194.14717102 181.91099548 197.14717102 C179.8480072 197.57954407 179.8480072 197.57954407 177.34068298 197.65888977 C176.44478455 197.69433899 175.54888611 197.72978821 174.62583923 197.76631165 C173.6886908 197.78887024 172.75154236 197.81142883 171.78599548 197.83467102 C170.84111267 197.86883118 169.89622986 197.90299133 168.92271423 197.93818665 C166.58559296 198.02081215 164.24885357 198.0899109 161.91099548 198.14717102 C161.80142517 197.23193665 161.69185486 196.31670227 161.57896423 195.37373352 C161.42040955 194.1852179 161.26185486 192.99670227 161.09849548 191.77217102 C160.87226501 189.99713196 160.87226501 189.99713196 160.64146423 188.18623352 C160.20400215 184.85185018 160.20400215 184.85185018 156.91099548 183.14717102 C153.58373198 183.26190424 152.50948913 184.50596393 149.97349548 186.77217102 C146.91099548 189.14717102 146.91099548 189.14717102 144.34849548 189.27217102 C141.10801521 187.77656474 139.31337542 185.78392948 136.91099548 183.14717102 C136.07761658 182.44527649 136.07761658 182.44527649 135.22740173 181.72920227 C133.54746253 180.2820491 132.17522999 178.97033025 130.91099548 177.14717102 C130.66426158 172.45922692 131.38516306 170.74995453 134.47349548 167.20967102 C135.27787048 166.52904602 136.08224548 165.84842102 136.91099548 165.14717102 C136.32217263 162.62549938 136.32217263 162.62549938 134.91099548 160.14717102 C132.3506349 159.18179249 132.3506349 159.18179249 129.41099548 158.95967102 C124.08588338 158.32205891 124.08588338 158.32205891 121.91099548 156.14717102 C121.6839447 154.08418274 121.6839447 154.08418274 121.71568298 151.57685852 C121.7221283 150.68096008 121.72857361 149.78506165 121.73521423 148.86201477 C121.76035095 147.45629211 121.76035095 147.45629211 121.78599548 146.02217102 C121.79501892 145.07728821 121.80404236 144.1324054 121.81333923 143.15888977 C121.8369488 140.82154275 121.87282055 138.48432553 121.91099548 136.14717102 C128.34599548 135.15717102 128.34599548 135.15717102 134.91099548 134.14717102 C135.24099548 132.16717102 135.57099548 130.18717102 135.91099548 128.14717102 C134.2693002 126.12662298 132.6018777 124.12674045 130.91099548 122.14717102 C130.16099548 119.20967102 130.16099548 119.20967102 130.91099548 116.14717102 C132.98418237 113.49649475 135.37082213 111.34264444 137.91099548 109.14717102 C138.77724548 108.32217102 139.64349548 107.49717102 140.53599548 106.64717102 C142.91099548 105.14717102 142.91099548 105.14717102 145.34849548 105.08467102 C147.91099548 106.14717102 147.91099548 106.14717102 150.91099548 108.77217102 C153.64179085 111.46672781 153.64179085 111.46672781 156.72349548 111.02217102 C158.85218114 110.33729179 158.85218114 110.33729179 159.91099548 109.14717102 C160.14527326 107.1312252 160.32435673 105.10869702 160.47349548 103.08467102 C160.55728455 101.97994446 160.64107361 100.8752179 160.72740173 99.73701477 C160.78798767 98.88236633 160.84857361 98.0277179 160.91099548 97.14717102 C164.18175431 97.08912342 167.45238072 97.05355937 170.72349548 97.02217102 C171.65226501 97.00541321 172.58103455 96.9886554 173.53794861 96.97138977 C174.43062439 96.96494446 175.32330017 96.95849915 176.24302673 96.95185852 C177.06520691 96.94138489 177.88738708 96.93091125 178.73448181 96.92012024 C180.91099548 97.14717102 180.91099548 97.14717102 183.91099548 99.14717102 C184.42271423 101.74873352 184.42271423 101.74873352 184.59849548 104.77217102 C184.69710876 106.27650696 184.69710876 106.27650696 184.79771423 107.81123352 C184.85378845 108.96752258 184.85378845 108.96752258 184.91099548 110.14717102 C186.56099548 110.47717102 188.21099548 110.80717102 189.91099548 111.14717102 C190.0502897 99.56822064 190.15676591 87.98947105 190.22186852 76.40985203 C190.25312182 71.03235751 190.29548524 65.65543811 190.3636322 60.27827454 C190.42903837 55.08460817 190.46474663 49.89149341 190.48025894 44.69744682 C190.49130716 42.72033446 190.51288213 40.74325079 190.54537582 38.76637459 C191.16736153 25.3858342 191.16736153 25.3858342 185.56300354 13.68585205 C177.61739342 6.28530729 171.11503136 5.89286157 160.59849548 5.77217102 C159.37453064 5.73478821 158.1505658 5.6974054 156.88951111 5.65888977 C147.64386258 5.50483011 147.64386258 5.50483011 140.91099548 11.14717102 Z " fill="#32EE88FF" transform="translate(400.08900451660156,176.8528289794922)"/>
<path d="M0 0 C4.95 0 9.9 0 15 0 C15.495 5.94 15.495 5.94 16 12 C20.58540419 14.31876824 20.58540419 14.31876824 25.5625 15 C29.00273674 13.58862083 31.24787081 11.49611717 34 9 C37.81552617 10.49895671 39.53745046 12.7986856 42 16 C42.66 16.33 43.32 16.66 44 17 C43.6166314 20.32252783 42.71667689 21.31030627 40.375 23.875 C37.67170846 26.7607016 37.67170846 26.7607016 38.0625 30.125 C38.371875 31.07375 38.68125 32.0225 39 33 C39.22300781 33.70382812 39.44601562 34.40765625 39.67578125 35.1328125 C40.90528554 37.31169068 40.90528554 37.31169068 43.8203125 37.609375 C44.91085937 37.65578125 46.00140625 37.7021875 47.125 37.75 C49.06375 37.8325 51.0025 37.915 53 38 C53 42.95 53 47.9 53 53 C51.081875 53.20625 49.16375 53.4125 47.1875 53.625 C42.20062444 54.35311894 42.20062444 54.35311894 38.6875 57.8125 C37.94866029 61.23802957 37.70414568 62.76036421 39 66 C39.8246021 67.06522369 40.681488 68.10593769 41.5625 69.125 C44 72 44 72 44 75 C42.3203125 76.7890625 42.3203125 76.7890625 40.125 78.625 C39.40570312 79.23601562 38.68640625 79.84703125 37.9453125 80.4765625 C36 82 36 82 34 83 C33.49210938 82.55527344 32.98421875 82.11054688 32.4609375 81.65234375 C28.15258075 77.95237038 28.15258075 77.95237038 22.75 77 C21.38875 77.495 21.38875 77.495 20 78 C19.29875 78.22429687 18.5975 78.44859375 17.875 78.6796875 C15.68752195 79.90329375 15.68752195 79.90329375 15.390625 82.8203125 C15.34421875 83.91085937 15.2978125 85.00140625 15.25 86.125 C15.1675 88.06375 15.085 90.0025 15 92 C10.05 92 5.1 92 0 92 C0 88.04 0 84.08 0 80 C-2.32809543 79.31526605 -4.66237777 78.65146849 -7 78 C-7.825 77.67 -8.65 77.34 -9.5 77 C-13.70356735 77 -16.13738194 80.15388118 -19 83 C-21.85114555 81.69555432 -24.04747746 80.29447569 -26.3125 78.125 C-26.84488281 77.63257813 -27.37726562 77.14015625 -27.92578125 76.6328125 C-29 75 -29 75 -28.80078125 72.9453125 C-28 71 -28 71 -25.875 68.75 C-23.83677147 65.76059816 -23.77124704 65.26715096 -24.1875 61.875 C-24.89948612 58.11018568 -24.89948612 58.11018568 -26 55 C-29.96 54.67 -33.92 54.34 -38 54 C-38 49.05 -38 44.1 -38 39 C-36.2675 38.814375 -34.535 38.62875 -32.75 38.4375 C-28.65901035 37.74563904 -28.65901035 37.74563904 -25.34375 35.44921875 C-23.89177464 33.02753128 -23.02351392 30.77595928 -22.9375 27.9375 C-24.07694032 25.69462231 -24.07694032 25.69462231 -26.625 23 C-29 20 -29 20 -28.87109375 18.046875 C-27.79764616 15.52451385 -26.42446947 14.12858932 -24.4375 12.25 C-23.79683594 11.63640625 -23.15617188 11.0228125 -22.49609375 10.390625 C-22.00238281 9.93171875 -21.50867188 9.4728125 -21 9 C-18.4193304 10.2057674 -16.7185108 11.25261851 -14.5625 13.1875 C-12.18186917 15.26703424 -12.18186917 15.26703424 -9.5 14.875 C-8.675 14.58625 -7.85 14.2975 -7 14 C-6.15050781 13.77828125 -5.30101562 13.5565625 -4.42578125 13.328125 C-1.70980899 12.20034928 -1.70980899 12.20034928 -1.07421875 9.1796875 C-0.94660156 8.08914063 -0.81898438 6.99859375 -0.6875 5.875 C-0.460625 3.93625 -0.23375 1.9975 0 0 Z " fill="#022031FF" transform="translate(565,278)"/>
<path d="M0 0 C18.63703067 -0.11690492 37.27398673 -0.20502317 55.91130829 -0.25906086 C64.56534599 -0.28482067 73.21915559 -0.31992845 81.87304688 -0.37719727 C89.41754833 -0.42710059 96.96188457 -0.45930718 104.5065465 -0.47044247 C108.499888 -0.47694959 112.49275692 -0.49219604 116.48594666 -0.52865028 C120.2485831 -0.5627198 124.01055464 -0.57303124 127.77333069 -0.56553841 C129.80437728 -0.56755865 131.8353523 -0.5943963 133.86621094 -0.62210083 C140.4482702 -0.5850983 145.18484321 -0.20741182 150.64899445 3.63323689 C152.89224223 5.90264897 153.02454454 8.21681013 153.375 11.3125 C152.87239265 16.25480563 151.51987555 17.56012162 148 21 C144.66348476 23.13694435 141.97438631 23.24734214 138.05218506 23.24050903 C136.83504822 23.24325836 135.61791138 23.24600769 134.3638916 23.24884033 C133.01830956 23.24176257 131.67272851 23.23449296 130.32714844 23.22705078 C128.90785734 23.22648653 127.48856566 23.22680349 126.0692749 23.22793579 C122.21834376 23.22850978 118.36753714 23.21674804 114.51663494 23.20278788 C110.49142271 23.1902882 106.46620765 23.18911062 102.440979 23.18673706 C94.81956851 23.18052005 87.19821538 23.16410624 79.57683015 23.14403808 C70.89976423 23.12168596 62.22269558 23.11068738 53.54560804 23.10064721 C35.69703951 23.07974021 17.84852437 23.04455993 0 23 C1.875 17.25 1.875 17.25 3 15 C3.09585131 13.35643193 3.12983511 11.70885358 3.125 10.0625 C3.12757813 9.18722656 3.13015625 8.31195313 3.1328125 7.41015625 C3.09822003 4.85540944 3.09822003 4.85540944 2 2 C1.34 2 0.68 2 0 2 C0 1.34 0 0.68 0 0 Z " fill="#022031FF" transform="translate(465,387)"/>
<path d="M0 0 C1.22280167 -0.00137466 2.44560333 -0.00274933 3.70545959 -0.00416565 C5.06774927 -0.00062628 6.43003869 0.00300853 7.79232788 0.00672913 C9.22117613 0.00701108 10.65002452 0.00685311 12.07887268 0.00628662 C15.96500656 0.00599896 19.85110977 0.01189067 23.7372365 0.01886058 C27.79583106 0.02509928 31.85442628 0.02569833 35.9130249 0.02688599 C43.6017716 0.02999777 51.29050414 0.03820911 58.97924459 0.04823548 C67.73123859 0.05940134 76.48323325 0.06490826 85.23523259 0.06993091 C103.24173984 0.08039185 121.2482339 0.09798835 139.25473022 0.12025452 C138.76903564 1.78507874 138.76903564 1.78507874 138.27352905 3.48353577 C137.5063311 6.22213648 136.9602893 8.32711741 136.94223022 11.12025452 C136.91709351 12.01744202 136.91709351 12.01744202 136.89144897 12.93275452 C137.43824184 16.22527069 138.91807528 19.07716106 140.25473022 22.12025452 C121.32238925 22.23707985 102.39012147 22.32523874 83.45749474 22.37931538 C74.66663943 22.40509204 65.87600814 22.44023213 57.08529663 22.49745178 C49.42288711 22.54730341 41.76063983 22.57954945 34.09807265 22.59069699 C30.04108254 22.59721284 25.98455658 22.61251515 21.9277153 22.6489048 C18.10763335 22.68289248 14.28820585 22.69330216 10.46798706 22.68579292 C9.06754624 22.68716626 7.66708311 22.6970831 6.26677322 22.71628189 C-5.62721318 22.87132725 -5.62721318 22.87132725 -9.56298828 19.77227783 C-12.1276204 16.65560191 -12.6688263 14.7955052 -13.12026978 10.80775452 C-12.62292906 5.91723751 -11.17442485 4.54940959 -7.74526978 1.12025452 C-5.06109446 -0.22183314 -3.00668054 -0.00259644 0 0 Z " fill="#022031FF" transform="translate(398.7452697753906,182.87974548339844)"/>
<path d="M0 0 C24.42 0 48.84 0 74 0 C74 7.92 74 15.84 74 24 C72.10877886 25.89122114 68.80408428 25.12782618 66.29296875 25.12939453 C65.59217194 25.13114685 64.89137512 25.13289917 64.16934204 25.13470459 C61.84203651 25.13912266 59.51480636 25.13618529 57.1875 25.1328125 C55.57706691 25.13348555 53.96663391 25.13445559 52.35620117 25.13571167 C48.97671545 25.13718858 45.5972561 25.13503431 42.21777344 25.13037109 C37.87623495 25.1246738 33.53475827 25.12795285 29.19322205 25.13394356 C25.86649099 25.13754936 22.5397747 25.1364105 19.21304321 25.13381577 C17.61178582 25.13314655 16.0105271 25.13397474 14.40927124 25.13629532 C12.17515489 25.13882216 9.94114 25.13498085 7.70703125 25.12939453 C5.79627808 25.12820114 5.79627808 25.12820114 3.84692383 25.12698364 C1 25 1 25 0 24 C0 16.08 0 8.16 0 0 Z " fill="#32EE88FF" transform="translate(426,261)"/>
<path d="M0 0 C4.31876466 2.23416613 6.90311479 4.89694507 8.8046875 9.30859375 C9.51958916 15.51423496 9.76180829 21.17347814 7.1796875 26.93359375 C2.50557879 31.60770246 -0.50949833 33.55577973 -7.1953125 33.74609375 C-12.67040813 33.53629404 -16.61902104 32.88488521 -20.625 28.87890625 C-25.04630414 23.85810324 -25.66086366 19.65086496 -25.609375 13.171875 C-24.93672039 8.52040494 -22.60516369 5.44476925 -19.1953125 2.30859375 C-13.49929422 -1.80889526 -6.66976245 -2.10061913 0 0 Z " fill="#022031FF" transform="translate(580.1953125,307.69140625)"/>
<path d="M0 0 C21.12 0 42.24 0 64 0 C64 4.62 64 9.24 64 14 C42.88 14 21.76 14 0 14 C0 9.38 0 4.76 0 0 Z " fill="#022031FF" transform="translate(431,266)"/>
<path d="M0 0 C6.45296107 2.85395147 12.11623566 8.78964407 14.68359375 15.3828125 C15.62732112 22.80348982 15.30739977 29.16694708 11.16796875 35.515625 C6.74777664 41.07576139 1.27203872 44.74920326 -5.890625 45.73828125 C-14.11324634 46.16260062 -19.34393234 43.91471629 -25.4296875 38.50390625 C-29.44365822 34.13599823 -30.76863352 30.76814785 -30.87890625 24.8203125 C-30.13403864 12.54432129 -30.13403864 12.54432129 -26.00390625 7.6328125 C-25.11703125 6.8903125 -24.23015625 6.1478125 -23.31640625 5.3828125 C-22.47078125 4.6609375 -21.62515625 3.9390625 -20.75390625 3.1953125 C-14.46577393 -1.4804782 -7.59352524 -2.0232327 0 0 Z M-23.19140625 12.4453125 C-26.28910327 17.10689539 -26.173669 21.99316986 -25.31640625 27.3828125 C-23.62785456 32.25985276 -20.58611201 35.536342 -16.31640625 38.3828125 C-10.29302994 40.3906046 -3.57694216 40.43234703 2.18359375 37.7578125 C7.40201538 32.80031195 8.9548012 29.62790994 9.18359375 22.3828125 C9.0054807 16.92450931 8.7486261 13.34361325 4.68359375 9.3828125 C-0.5364812 5.25025317 -4.90485097 4.74852857 -11.51171875 5.00390625 C-16.83796112 5.72346824 -19.80146014 8.53889261 -23.19140625 12.4453125 Z " fill="#32EE88FF" transform="translate(580.31640625,301.6171875)"/>
<path d="M0 0 C2.64590014 -0.02684679 5.29153096 -0.04676357 7.9375 -0.0625 C8.69224609 -0.07087891 9.44699219 -0.07925781 10.22460938 -0.08789062 C12.14994313 -0.09652441 14.07535581 -0.05224333 16 0 C17.74545605 1.74545605 17.1302316 4.16124217 17.1328125 6.53125 C17.13474609 8.21154297 17.13474609 8.21154297 17.13671875 9.92578125 C17.13285156 11.10527344 17.12898438 12.28476563 17.125 13.5 C17.13080078 15.26923828 17.13080078 15.26923828 17.13671875 17.07421875 C17.13542969 18.19441406 17.13414062 19.31460938 17.1328125 20.46875 C17.13168457 21.50451172 17.13055664 22.54027344 17.12939453 23.60742188 C17 26 17 26 16 27 C13.3226862 27.09981214 10.67695825 27.13879875 8 27.125 C6.87464844 27.13080078 6.87464844 27.13080078 5.7265625 27.13671875 C0.12661053 27.12661053 0.12661053 27.12661053 -1 26 C-1.09949077 24.24314326 -1.1308026 22.48232667 -1.1328125 20.72265625 C-1.13410156 19.65208984 -1.13539063 18.58152344 -1.13671875 17.47851562 C-1.13285156 16.35123047 -1.12898438 15.22394531 -1.125 14.0625 C-1.12886719 12.93908203 -1.13273437 11.81566406 -1.13671875 10.65820312 C-1.13542969 9.58634766 -1.13414062 8.51449219 -1.1328125 7.41015625 C-1.13168457 6.42152588 -1.13055664 5.43289551 -1.12939453 4.41430664 C-1 2 -1 2 0 0 Z " fill="#32EE88FF" transform="translate(472,219)"/>
<path d="M0 0 C0.70706085 0.00359528 1.4141217 0.00719055 2.14260864 0.01089478 C3.25473473 0.01067574 3.25473473 0.01067574 4.389328 0.01045227 C6.85130696 0.01115152 9.31321119 0.01894442 11.775177 0.02676392 C13.47768614 0.02862806 15.18019582 0.03005198 16.88270569 0.03105164 C21.37245148 0.03487714 25.86216513 0.0447077 30.35189819 0.05575562 C34.92983566 0.06596903 39.50777831 0.07054911 44.08572388 0.07559204 C53.07467032 0.08632994 62.06359287 0.10340675 71.05252075 0.12442017 C71.43470842 1.78056674 71.76647177 3.44899041 72.05252075 5.12442017 C70.36748376 6.80945716 68.28992191 6.24408 66.0415802 6.24884033 C65.32516861 6.24524506 64.60875702 6.24164978 63.87063599 6.23794556 C62.74387955 6.2381646 62.74387955 6.2381646 61.59436035 6.23838806 C59.09991616 6.2376888 56.60554572 6.22989581 54.1111145 6.22207642 C52.38618511 6.22021228 50.66125519 6.21878836 48.93632507 6.2177887 C44.38739572 6.21396314 39.83849809 6.20413254 35.2895813 6.19308472 C30.65132069 6.1828714 26.01305498 6.17829125 21.37478638 6.17324829 C12.26735053 6.1625103 3.15993828 6.14543343 -5.94747925 6.12442017 C-5.99020025 4.45830111 -5.98811757 2.79059132 -5.94747925 1.12442017 C-4.27411929 -0.54893979 -2.23360016 0.00479121 0 0 Z " fill="#32EE88FF" transform="translate(431.9474792480469,340.8755798339844)"/>
<path d="M0 0 C0.70706085 0.00359528 1.4141217 0.00719055 2.14260864 0.01089478 C3.25473473 0.01067574 3.25473473 0.01067574 4.389328 0.01045227 C6.85130696 0.01115152 9.31321119 0.01894442 11.775177 0.02676392 C13.47768614 0.02862806 15.18019582 0.03005198 16.88270569 0.03105164 C21.37245148 0.03487714 25.86216513 0.0447077 30.35189819 0.05575562 C34.92983566 0.06596903 39.50777831 0.07054911 44.08572388 0.07559204 C53.07467032 0.08632994 62.06359287 0.10340675 71.05252075 0.12442017 C71.43470842 1.78056674 71.76647177 3.44899041 72.05252075 5.12442017 C70.3791608 6.79778012 68.33864166 6.24404912 66.1050415 6.24884033 C65.39798065 6.24524506 64.6909198 6.24164978 63.96243286 6.23794556 C63.22101547 6.23809158 62.47959808 6.23823761 61.7157135 6.23838806 C59.25373454 6.23768882 56.79183032 6.22989591 54.3298645 6.22207642 C52.62735536 6.22021228 50.92484568 6.21878836 49.22233582 6.2177887 C44.73259002 6.21396319 40.24287637 6.20413263 35.75314331 6.19308472 C31.17520584 6.1828713 26.5972632 6.17829123 22.01931763 6.17324829 C13.03037118 6.16251039 4.04144864 6.14543358 -4.94747925 6.12442017 C-5.32966692 4.46827359 -5.66143027 2.79984992 -5.94747925 1.12442017 C-4.27411929 -0.54893979 -2.23360016 0.00479121 0 0 Z " fill="#32EE88FF" transform="translate(431.9474792480469,321.8755798339844)"/>
<path d="M0 0 C2.62527189 -0.05382106 5.24944713 -0.09358313 7.875 -0.125 C8.62136719 -0.14175781 9.36773437 -0.15851563 10.13671875 -0.17578125 C12.09194461 -0.1933959 14.04742021 -0.10320189 16 0 C18 2 18 2 18.265625 4.96875 C18.26046875 6.1340625 18.2553125 7.299375 18.25 8.5 C18.25515625 9.6653125 18.2603125 10.830625 18.265625 12.03125 C18 15 18 15 16 17 C14.68 17 13.36 17 12 17 C12.804375 17.7425 13.60875 18.485 14.4375 19.25 C16.76988591 21.75304829 17.63534394 22.7180955 18 26 C15.76953125 26.71484375 15.76953125 26.71484375 13 27 C10.76171875 25.56640625 10.76171875 25.56640625 8.6875 23.5625 C7.99011719 22.90378906 7.29273438 22.24507812 6.57421875 21.56640625 C6.05472656 21.04949219 5.53523438 20.53257812 5 20 C5 21.98 5 23.96 5 26 C1.25 27.125 1.25 27.125 -1 26 C-1.02892857 22.04168191 -1.04677427 18.08339083 -1.0625 14.125 C-1.07087891 12.99707031 -1.07925781 11.86914062 -1.08789062 10.70703125 C-1.09111328 9.63066406 -1.09433594 8.55429688 -1.09765625 7.4453125 C-1.10289307 6.45031738 -1.10812988 5.45532227 -1.11352539 4.43017578 C-1 2 -1 2 0 0 Z " fill="#32EE88FF" transform="translate(449,219)"/>
<path d="M0 0 C25.41 0 50.82 0 77 0 C77.495 1.98 77.495 1.98 78 4 C76.31496301 5.68503699 74.23740116 5.11965983 71.98905945 5.12442017 C71.27264786 5.12082489 70.55623627 5.11722961 69.81811523 5.11352539 C68.6913588 5.11374443 68.6913588 5.11374443 67.5418396 5.1139679 C65.04739541 5.11326863 62.55302497 5.10547564 60.05859375 5.09765625 C58.33366436 5.09579212 56.60873443 5.09436819 54.88380432 5.09336853 C50.33487497 5.08954297 45.78597733 5.07971238 41.23706055 5.06866455 C36.59879994 5.05845124 31.96053423 5.05387108 27.32226562 5.04882812 C18.21482978 5.03809014 9.10741752 5.02101327 0 5 C0 3.35 0 1.7 0 0 Z " fill="#32EE88FF" transform="translate(426,361)"/>
<path d="M0 0 C1.03447266 0.01160156 1.03447266 0.01160156 2.08984375 0.0234375 C2.77949219 0.01570312 3.46914063 0.00796875 4.1796875 0 C9.33651082 0.02010457 9.33651082 0.02010457 11.58984375 2.2734375 C11.25984375 3.5934375 10.92984375 4.9134375 10.58984375 6.2734375 C6.62984375 6.2734375 2.66984375 6.2734375 -1.41015625 6.2734375 C-1.41015625 7.9234375 -1.41015625 9.5734375 -1.41015625 11.2734375 C2.54984375 11.2734375 6.50984375 11.2734375 10.58984375 11.2734375 C10.91984375 12.5934375 11.24984375 13.9134375 11.58984375 15.2734375 C10.58984375 16.2734375 10.58984375 16.2734375 7.6484375 16.37109375 C6.45347656 16.35949219 5.25851562 16.34789062 4.02734375 16.3359375 C2.23103516 16.32240234 2.23103516 16.32240234 0.3984375 16.30859375 C-0.52839844 16.29699219 -1.45523438 16.28539062 -2.41015625 16.2734375 C-2.41015625 18.2534375 -2.41015625 20.2334375 -2.41015625 22.2734375 C1.87984375 22.2734375 6.16984375 22.2734375 10.58984375 22.2734375 C10.91984375 23.5934375 11.24984375 24.9134375 11.58984375 26.2734375 C9.77796533 28.08531592 7.32006865 27.40578212 4.91210938 27.41015625 C3.79352539 27.40435547 3.79352539 27.40435547 2.65234375 27.3984375 C1.53956055 27.40423828 1.53956055 27.40423828 0.40429688 27.41015625 C-5.15688623 27.40007251 -5.15688623 27.40007251 -7.41015625 26.2734375 C-7.46801272 22.31516515 -7.50370342 18.3570008 -7.53515625 14.3984375 C-7.55191406 13.27050781 -7.56867187 12.14257812 -7.5859375 10.98046875 C-7.59238281 9.90410156 -7.59882812 8.82773438 -7.60546875 7.71875 C-7.61594238 6.72375488 -7.62641602 5.72875977 -7.63720703 4.70361328 C-7.17716647 -0.22030471 -4.28028597 0.01668727 0 0 Z " fill="#32EE88FF" transform="translate(523.41015625,218.7265625)"/>
<path d="M0 0 C1.12535156 0.00580078 1.12535156 0.00580078 2.2734375 0.01171875 C3.02367187 0.00785156 3.77390625 0.00398437 4.546875 0 C10.14682697 0.01010822 10.14682697 0.01010822 11.2734375 1.13671875 C11.37253052 3.4683193 11.40314254 5.80301817 11.3984375 8.13671875 C11.40230469 10.05484375 11.40230469 10.05484375 11.40625 12.01171875 C11.2734375 15.13671875 11.2734375 15.13671875 10.2734375 16.13671875 C8.25379551 16.20915928 6.23176626 16.22049063 4.2109375 16.19921875 C2.55384766 16.18568359 2.55384766 16.18568359 0.86328125 16.171875 C0.00863281 16.16027344 -0.84601563 16.14867187 -1.7265625 16.13671875 C-1.7265625 19.43671875 -1.7265625 22.73671875 -1.7265625 26.13671875 C-3.0465625 26.46671875 -4.3665625 26.79671875 -5.7265625 27.13671875 C-7.47201855 25.3912627 -6.8567941 22.97547658 -6.859375 20.60546875 C-6.86066406 19.48527344 -6.86195313 18.36507812 -6.86328125 17.2109375 C-6.85941406 16.03144531 -6.85554688 14.85195312 -6.8515625 13.63671875 C-6.85542969 12.45722656 -6.85929687 11.27773437 -6.86328125 10.0625 C-6.86199219 8.94230469 -6.86070312 7.82210937 -6.859375 6.66796875 C-6.85824707 5.63220703 -6.85711914 4.59644531 -6.85595703 3.52929688 C-6.60683251 -1.07715657 -4.00829462 0.00723519 0 0 Z " fill="#32EE88FF" transform="translate(431.7265625,218.86328125)"/>
<path d="M0 0 C1.48831242 0.00667405 2.97660807 0.01863442 4.46484375 0.03515625 C5.22345703 0.03966797 5.98207031 0.04417969 6.76367188 0.04882812 C8.64326246 0.06064945 10.52281274 0.07858547 12.40234375 0.09765625 C12.78453142 1.75380282 13.11629477 3.42222649 13.40234375 5.09765625 C12.40234375 6.09765625 12.40234375 6.09765625 9.6796875 6.1953125 C6.58723958 6.16276042 3.49479167 6.13020833 0.40234375 6.09765625 C0.40234375 11.37765625 0.40234375 16.65765625 0.40234375 22.09765625 C4.69234375 22.09765625 8.98234375 22.09765625 13.40234375 22.09765625 C13.07234375 23.74765625 12.74234375 25.39765625 12.40234375 27.09765625 C9.75644361 27.12450304 7.11081279 27.14441982 4.46484375 27.16015625 C3.71009766 27.16853516 2.95535156 27.17691406 2.17773438 27.18554688 C0.25240062 27.19418066 -1.67301206 27.14989958 -3.59765625 27.09765625 C-5.3431123 25.3522002 -4.72788785 22.93641408 -4.73046875 20.56640625 C-4.73175781 19.44621094 -4.73304688 18.32601562 -4.734375 17.171875 C-4.73050781 15.99238281 -4.72664062 14.81289062 -4.72265625 13.59765625 C-4.72652344 12.41816406 -4.73039063 11.23867187 -4.734375 10.0234375 C-4.73308594 8.90324219 -4.73179687 7.78304687 -4.73046875 6.62890625 C-4.72934082 5.59314453 -4.72821289 4.55738281 -4.72705078 3.49023438 C-4.51782343 -0.3784977 -4.03909208 0.10963876 0 0 Z " fill="#32EE88FF" transform="translate(543.59765625,218.90234375)"/>
<path d="M0 0 C1.72974441 0.00015918 3.45949355 0.0058569 5.18920898 0.01586914 C6.09783188 0.01728409 7.00645477 0.01869904 7.94261169 0.02015686 C10.85687494 0.02577346 13.77106254 0.03832874 16.68530273 0.05102539 C18.65600475 0.05603825 20.62670797 0.06060153 22.59741211 0.06469727 C27.43923832 0.07574828 32.28100768 0.09302401 37.12280273 0.11352539 C37.50499041 1.76967196 37.83675375 3.43809563 38.12280273 5.11352539 C37.12280273 6.11352539 37.12280273 6.11352539 33.24560547 6.22705078 C31.51586106 6.2268916 29.78611192 6.22119389 28.05639648 6.21118164 C27.14777359 6.20976669 26.2391507 6.20835175 25.30299377 6.20689392 C22.38873053 6.20127732 19.47454293 6.18872204 16.56030273 6.17602539 C14.58960072 6.17101253 12.6188975 6.16644925 10.64819336 6.16235352 C5.80636715 6.1513025 0.96459778 6.13402677 -3.87719727 6.11352539 C-4.25938494 4.45737882 -4.59114828 2.78895515 -4.87719727 1.11352539 C-3.87719727 0.11352539 -3.87719727 0.11352539 0 0 Z " fill="#32EE88FF" transform="translate(430.877197265625,302.886474609375)"/>
<path d="M0 0 C1.48831242 0.00667405 2.97660807 0.01863442 4.46484375 0.03515625 C5.22345703 0.03966797 5.98207031 0.04417969 6.76367188 0.04882812 C8.64326246 0.06064945 10.52281274 0.07858547 12.40234375 0.09765625 C12.78453142 1.75380282 13.11629477 3.42222649 13.40234375 5.09765625 C13.07234375 5.42765625 12.74234375 5.75765625 12.40234375 6.09765625 C10.75234375 6.09765625 9.10234375 6.09765625 7.40234375 6.09765625 C7.40234375 12.69765625 7.40234375 19.29765625 7.40234375 26.09765625 C6.08234375 26.42765625 4.76234375 26.75765625 3.40234375 27.09765625 C1.40234375 25.09765625 1.40234375 25.09765625 1.17529297 23.12646484 C1.19100342 21.94818115 1.19100342 21.94818115 1.20703125 20.74609375 C1.21669922 19.46992188 1.21669922 19.46992188 1.2265625 18.16796875 C1.24332031 17.27851563 1.26007812 16.3890625 1.27734375 15.47265625 C1.28636719 14.57546875 1.29539062 13.67828125 1.3046875 12.75390625 C1.32829405 10.53489039 1.36122065 8.31640548 1.40234375 6.09765625 C-0.24765625 6.09765625 -1.89765625 6.09765625 -3.59765625 6.09765625 C-3.97984392 4.44150968 -4.31160727 2.77308601 -4.59765625 1.09765625 C-3.59765625 0.09765625 -3.59765625 0.09765625 0 0 Z " fill="#32EE88FF" transform="translate(565.59765625,218.90234375)"/>
<path d="M0 0 C1.65 0 3.3 0 5 0 C5.02886751 4.14581887 5.04675327 8.29161216 5.0625 12.4375 C5.07087891 13.62150391 5.07925781 14.80550781 5.08789062 16.02539062 C5.09272461 17.71245117 5.09272461 17.71245117 5.09765625 19.43359375 C5.10551147 20.99678345 5.10551147 20.99678345 5.11352539 22.59155273 C5 25 5 25 4 26 C1.3226862 26.09981214 -1.32304175 26.13879875 -4 26.125 C-5.12535156 26.13080078 -5.12535156 26.13080078 -6.2734375 26.13671875 C-11.87338947 26.12661053 -11.87338947 26.12661053 -13 25 C-13.14115161 22.32941149 -13.04247107 19.67567762 -13 17 C-11.68 16.67 -10.36 16.34 -9 16 C-8.67 17.65 -8.34 19.3 -8 21 C-5.36 21 -2.72 21 0 21 C0 14.07 0 7.14 0 0 Z " fill="#32EE88FF" transform="translate(507,220)"/>
<path d="M0 0 C2.31 0 4.62 0 7 0 C7 4.95 7 9.9 7 15 C4.69 15 2.38 15 0 15 C0 10.05 0 5.1 0 0 Z " fill="#022031FF" transform="translate(477,225)"/>
<path d="M0 0 C3.96 0 7.92 0 12 0 C12 1.98 12 3.96 12 6 C8.04 6 4.08 6 0 6 C0 4.02 0 2.04 0 0 Z " fill="#022031FF" transform="translate(521,235)"/>
<path d="M0 0 C0 7.92 0 15.84 0 24 C-0.33 24 -0.66 24 -1 24 C-1.33 21.36 -1.66 18.72 -2 16 C-3.32 16.33 -4.64 16.66 -6 17 C-5.505 15.515 -5.505 15.515 -5 14 C-4.77548542 11.77425665 -4.59217122 9.54418481 -4.4375 7.3125 C-4.35371094 6.13300781 -4.26992188 4.95351562 -4.18359375 3.73828125 C-4.12300781 2.83464844 -4.06242187 1.93101562 -4 1 C-1 0 -1 0 0 0 Z " fill="#022031FF" transform="translate(471,220)"/>
<path d="M0 0 C2.31 0 4.62 0 7 0 C7 1.65 7 3.3 7 5 C4.69 5 2.38 5 0 5 C0 3.35 0 1.7 0 0 Z " fill="#022031FF" transform="translate(454,225)"/>
<path d="M0 0 C2.31 0 4.62 0 7 0 C7 1.65 7 3.3 7 5 C4.69 5 2.38 5 0 5 C0 3.35 0 1.7 0 0 Z " fill="#022031FF" transform="translate(430,225)"/>
<path d="M0 0 C0.66 0.33 1.32 0.66 2 1 C-0.97 3.97 -3.94 6.94 -7 10 C-7 7 -7 7 -4.625 4.4375 C-3.75875 3.633125 -2.8925 2.82875 -2 2 C-1.34 1.34 -0.68 0.68 0 0 Z " fill="#32EE88FF" transform="translate(560,304)"/>
<path d="M0 0 C0.66 0.33 1.32 0.66 2 1 C-0.97 3.97 -3.94 6.94 -7 10 C-7 7 -7 7 -4.625 4.4375 C-3.75875 3.633125 -2.8925 2.82875 -2 2 C-1.34 1.34 -0.68 0.68 0 0 Z " fill="#32EE88FF" transform="translate(560,304)"/>
</svg>
