<?xml version="1.0" encoding="UTF-8"?>
<svg version="1.1" xmlns="http://www.w3.org/2000/svg" width="1004" height="591">
<path d="M0 0 C331.32 0 662.64 0 1004 0 C1004 195.03 1004 390.06 1004 591 C672.68 591 341.36 591 0 591 C0 395.97 0 200.94 0 0 Z " fill="#022031FF" transform="translate(0,0)"/>
<path d="M0 0 C0.99 0.99 0.99 0.99 2 2 C1.8984375 4.81640625 1.8984375 4.81640625 1.375 8.5625 C1.28017334 9.24417236 1.18534668 9.92584473 1.08764648 10.62817383 C0.86627279 12.18628442 0.63814551 13.74344423 0.40478516 15.29980469 C0.1139942 17.23958032 -0.16930013 19.1804853 -0.44775391 21.12207031 C-0.93068229 24.4793845 -1.43153308 27.83358577 -1.9375 31.1875 C-2.09492676 32.27426025 -2.25235352 33.36102051 -2.41455078 34.48071289 C-2.57552246 35.51188232 -2.73649414 36.54305176 -2.90234375 37.60546875 C-3.04148193 38.52481201 -3.18062012 39.44415527 -3.32397461 40.39135742 C-4.08543052 43.32965875 -5.33189779 45.47949558 -7 48 C-11.24822374 47.52797514 -13.19989709 45.03344482 -16 42 C-21.19628175 44.30047139 -24.7926898 48.26710803 -28.8125 52.1875 C-30.01422852 53.3022168 -30.01422852 53.3022168 -31.24023438 54.43945312 C-35.87691066 58.74207398 -35.87691066 58.74207398 -37.078125 64.67578125 C-36.54445313 66.32126953 -36.54445313 66.32126953 -36 68 C-31.73680165 91.89880536 -34.20415887 114.87998107 -47.3515625 135.64453125 C-50.88145293 140.68842682 -54.6416871 145.6416871 -59 150 C-58.70116567 153.64731135 -56.84598073 155.62256648 -54.4375 158.25 C-53.79683594 158.95640625 -53.15617188 159.6628125 -52.49609375 160.390625 C-52.00238281 160.92171875 -51.50867188 161.4528125 -51 162 C-47.44245668 160.7974323 -47.44245668 160.7974323 -44.59765625 158.45703125 C-42.02704921 156.11268791 -39.67447169 156.45974075 -36.328125 156.60546875 C-28.81570025 157.87854744 -24.59475696 164.72116939 -20.1875 170.3046875 C-18.37973648 172.53211041 -16.56595091 174.52013038 -14.5 176.5 C-9.88894126 180.94983291 -5.99055544 185.99889725 -2 191 C-0.93845703 192.28003906 -0.93845703 192.28003906 0.14453125 193.5859375 C5.03634414 199.95044353 4.81974803 206.14767672 4 214 C2.05758859 220.34219913 -1.42202588 223.92518182 -7.1328125 227.125 C-12.51896187 229.64905326 -18.41879311 230.02041648 -24.15234375 228.38671875 C-32.10912229 224.8101074 -37.58158549 217.60453622 -43.15234375 211.1328125 C-45.2371655 208.72623179 -47.36521533 206.36235055 -49.5 204 C-51.00014143 202.33346063 -52.50014641 200.66679842 -54 199 C-54.66773438 198.26136719 -55.33546875 197.52273438 -56.0234375 196.76171875 C-64.66580376 187.0800806 -64.66580376 187.0800806 -64.4296875 179.22265625 C-63.69387346 175.41649091 -61.77545759 173.64329294 -59 171 C-58.34 170.67 -57.68 170.34 -57 170 C-58.70236236 166.24819169 -61.00252547 163.60488836 -63.7578125 160.5859375 C-65 159 -65 159 -65 157 C-65.9075 157.515625 -66.815 158.03125 -67.75 158.5625 C-68.3790625 158.91957031 -69.008125 159.27664063 -69.65625 159.64453125 C-71.45828204 160.68670645 -73.2476336 161.75083105 -75.03125 162.82421875 C-76.0934375 163.45972656 -77.155625 164.09523438 -78.25 164.75 C-79.26578125 165.36359375 -80.2815625 165.9771875 -81.328125 166.609375 C-84 168 -84 168 -87 168 C-86.99555878 168.59690643 -86.99111755 169.19381287 -86.98654175 169.80880737 C-86.94239419 176.00516371 -86.91216941 182.20147558 -86.89013672 188.39794922 C-86.88006108 190.71242079 -86.86640025 193.02687959 -86.84912109 195.34130859 C-86.82494135 198.66246693 -86.8135327 201.9834574 -86.8046875 205.3046875 C-86.79436493 206.34430634 -86.78404236 207.38392517 -86.77340698 208.45504761 C-86.77325592 209.41589264 -86.77310486 210.37673767 -86.77294922 211.36669922 C-86.768508 212.21497284 -86.76406677 213.06324646 -86.75949097 213.93722534 C-87 216 -87 216 -89 218 C-91.32041264 218.24888897 -91.32041264 218.24888897 -94.28297424 218.24723816 C-95.4033609 218.25143265 -96.52374756 218.25562714 -97.67808533 218.25994873 C-98.91297195 218.25432922 -100.14785858 218.24870972 -101.42016602 218.24291992 C-102.71607666 218.24481827 -104.0119873 218.24671661 -105.34716797 218.24867249 C-108.9069672 218.25352839 -112.46664148 218.24585628 -116.0264256 218.23571944 C-119.74555656 218.22695258 -123.46468345 218.22869611 -127.18382263 218.2290802 C-133.42912901 218.22814304 -139.67438686 218.21945146 -145.91967773 218.20581055 C-153.14968988 218.1900776 -160.37964887 218.18481265 -167.6096769 218.1855461 C-174.55405643 218.18615554 -181.49841858 218.18105826 -188.44279289 218.17275429 C-191.40331088 218.16921538 -194.36382272 218.16739018 -197.32434273 218.16686058 C-201.45266375 218.16567351 -205.58092124 218.15597749 -209.70922852 218.14526367 C-210.94613937 218.14571686 -212.18305023 218.14617004 -213.45744324 218.14663696 C-214.57501007 218.14237198 -215.6925769 218.13810699 -216.8440094 218.13371277 C-218.30991186 218.131199 -218.30991186 218.131199 -219.8054285 218.12863445 C-222 218 -222 218 -223 217 C-223.10035816 214.47997549 -223.13617712 211.987338 -223.12939453 209.46679688 C-223.13114685 208.67821793 -223.13289917 207.88963898 -223.13470459 207.0771637 C-223.13912358 204.4576704 -223.13618496 201.83824404 -223.1328125 199.21875 C-223.13348553 197.4065347 -223.13445554 195.59431948 -223.13571167 193.78210449 C-223.13718871 189.97891381 -223.1350339 186.17574656 -223.13037109 182.37255859 C-223.1246738 177.48621505 -223.12795278 172.59992643 -223.13394356 167.7135849 C-223.13754901 163.96994611 -223.13641066 160.22632045 -223.13381577 156.48268127 C-223.13314645 154.68046563 -223.13397507 152.87824882 -223.13629532 151.07603455 C-223.13882159 148.56172509 -223.13498162 146.04750583 -223.12939453 143.53320312 C-223.13141876 142.78095963 -223.13344299 142.02871613 -223.13552856 141.25367737 C-223.1142626 136.1142626 -223.1142626 136.1142626 -222 135 C-220.00035018 134.91241997 -217.9976389 134.89303424 -215.99609375 134.90234375 C-214.78115234 134.90556641 -213.56621094 134.90878906 -212.31445312 134.91210938 C-211.03505859 134.92048828 -209.75566406 134.92886719 -208.4375 134.9375 C-207.15423828 134.94201172 -205.87097656 134.94652344 -204.54882812 134.95117188 C-201.36583978 134.96300455 -198.18294238 134.97948932 -195 135 C-195.495 133.02 -195.495 133.02 -196 131 C-196.66 131 -197.32 131 -198 131 C-199.47681225 127.71636159 -200.75338428 124.37741255 -202 121 C-202.68255859 119.1746875 -202.68255859 119.1746875 -203.37890625 117.3125 C-209.54306625 99.2305296 -209.60032779 77.95958758 -203 60 C-202.47891984 58.29174194 -201.95805527 56.58341808 -201.4375 54.875 C-200.38063745 51.60594691 -198.81059912 48.91732229 -197 46 C-196.525625 45.18402344 -196.05125 44.36804688 -195.5625 43.52734375 C-184.05766691 24.45808291 -166.58637441 11.07529298 -145.5625 3.8125 C-119.74924485 -2.07473363 -96.86739523 1.25964931 -74 15 C-66.91891066 19.54330296 -66.91891066 19.54330296 -64 22 C-64 22.66 -64 23.32 -64 24 C-63.40703125 24.25523437 -62.8140625 24.51046875 -62.203125 24.7734375 C-59.78775462 26.11816498 -58.48788294 27.49214367 -56.75 29.625 C-55.96882813 30.57246094 -55.96882813 30.57246094 -55.171875 31.5390625 C-54.59179688 32.26222656 -54.59179688 32.26222656 -54 33 C-49.08064098 28.88380164 -44.47352044 24.59589638 -40 20 C-41.08050154 17.73047494 -42.02561939 15.97058514 -43.6875 14.0625 C-45 12 -45 12 -44.6875 9.25 C-44.3471875 8.13625 -44.3471875 8.13625 -44 7 C-37.41637816 5.02344389 -30.82196194 3.83246187 -24.0390625 2.71289062 C-22.00393214 2.37565159 -19.97075237 2.02804879 -17.9375 1.6796875 C-16.638125 1.463125 -15.33875 1.2465625 -14 1.0234375 C-12.824375 0.82669434 -11.64875 0.62995117 -10.4375 0.42724609 C-6.89337804 -0.01325202 -3.56645454 -0.21143044 0 0 Z " fill="#32EE88" transform="translate(611,186)"/>
<path d="M0 0 C39.6 0 79.2 0 120 0 C120 22.44 120 44.88 120 68 C80.4 68 40.8 68 0 68 C0 45.56 0 23.12 0 0 Z " fill="#022031FF" transform="translate(396,329)"/>
<path d="M0 0 C0.66 0 1.32 0 2 0 C3.33984375 1.3984375 3.33984375 1.3984375 4.9375 3.375 C8.66521808 7.77977753 12.80906748 11.52789404 17.15625 15.3125 C19.29998266 17.33844515 21.17631717 19.30480762 23.0859375 21.53125 C27.67117602 26.85442926 32.56964801 31.86416489 37.50732422 36.85742188 C38.59471111 37.96154789 39.67667965 39.07103393 40.75341797 40.18554688 C42.32627604 41.81300159 43.91481431 43.42353363 45.5078125 45.03125 C45.9850174 45.53112427 46.46222229 46.03099854 46.95388794 46.54602051 C48.98312111 48.56261313 50.64698949 49.89155558 53.39770508 50.73657227 C57.69394923 49.52053243 60.1310712 46.37586205 63.12890625 43.18359375 C63.80042221 42.49314468 64.47193817 41.80269562 65.1638031 41.09132385 C67.30906984 38.8849495 69.4374845 36.66337509 71.5625 34.4375 C74.36208866 31.50536403 77.1774712 28.58983263 80.00390625 25.68359375 C80.64566299 25.00034531 81.28741974 24.31709686 81.94862366 23.61314392 C82.55282639 22.99242508 83.15702911 22.37170624 83.77954102 21.73217773 C84.30628922 21.17924545 84.83303741 20.62631317 85.37574768 20.05662537 C87 19 87 19 89.06884766 19.21214294 C91.83486125 20.34060043 93.34045759 22.11116394 95.37109375 24.2890625 C96.19287109 25.14757812 97.01464844 26.00609375 97.86132812 26.890625 C99.5808477 28.71574055 101.29439318 30.54650279 103.00195312 32.3828125 C103.82501953 33.23875 104.64808594 34.0946875 105.49609375 34.9765625 C106.61262329 36.16886475 106.61262329 36.16886475 107.75170898 37.38525391 C109.86386481 39.26622648 109.86386481 39.26622648 112.38702393 38.82603455 C115.45460649 37.85628622 116.80486029 36.67935563 119.0559082 34.39819336 C119.81631912 33.63748032 120.57673004 32.87676727 121.36018372 32.09300232 C122.1655809 31.26695999 122.97097809 30.44091766 123.80078125 29.58984375 C124.63715622 28.74780899 125.47353119 27.90577423 126.33525085 27.03822327 C129.00386488 24.34722282 131.65823482 21.6426472 134.3125 18.9375 C136.11952155 17.11041662 137.92745359 15.28423326 139.73632812 13.45898438 C144.16816941 8.98304542 148.58839569 4.49588149 153 0 C159.38668031 12.34758193 157.10870875 31.07984357 153 44 C146.68080003 62.30947682 135.67375235 77.88593878 119 88 C118.14277344 88.55429687 117.28554688 89.10859375 116.40234375 89.6796875 C114 91 114 91 111 91 C110.97494385 90.30849854 110.9498877 89.61699707 110.92407227 88.90454102 C110.80847839 85.79032134 110.68558758 82.67643211 110.5625 79.5625 C110.52318359 78.47388672 110.48386719 77.38527344 110.44335938 76.26367188 C110.40146484 75.22919922 110.35957031 74.19472656 110.31640625 73.12890625 C110.27974854 72.17056885 110.24309082 71.21223145 110.20532227 70.22485352 C110.24165576 68.02861075 110.24165576 68.02861075 109 67 C106.01799663 66.92793249 103.05890237 66.92016904 100.07739258 66.95336914 C98.13540351 66.96614841 96.19341218 66.97858849 94.25141907 66.99073792 C93.21595758 66.99865419 92.1804961 67.00657047 91.113657 67.01472664 C84.50488243 67.05666806 77.89593517 67.04499842 71.28705311 67.04483891 C65.47111313 67.04783734 59.65624464 67.06854618 53.84057617 67.12670898 C48.22383792 67.18184495 42.60890442 67.1883691 36.9919796 67.16201591 C34.85052865 67.16078009 32.70899096 67.17730628 30.5678196 67.21193123 C13.7455281 67.46955302 13.7455281 67.46955302 9.38339233 63.79708862 C7.80354913 61.20350461 6.85136738 58.90279437 6 56 C5.443125 55.05125 4.88625 54.1025 4.3125 53.125 C2.66508183 49.20257578 1.71098534 45.2352422 0.74609375 41.09765625 C0.03144803 37.94687441 0.03144803 37.94687441 -1.07421875 34.73046875 C-2.21069636 30.15099148 -2.29979798 25.94701666 -2.25 21.25 C-2.24613281 20.37053711 -2.24226563 19.49107422 -2.23828125 18.58496094 C-2.15401243 12.23905096 -1.58398328 6.16622062 0 0 Z " fill="#022031FF" transform="translate(413,255)"/>
<path d="M0 0 C17.94489705 -0.27081771 17.94489705 -0.27081771 25.55371094 1.03710938 C25.55371094 1.69710937 25.55371094 2.35710937 25.55371094 3.03710938 C26.50117188 3.11445313 26.50117188 3.11445313 27.46777344 3.19335938 C41.89251727 5.02243352 55.14710682 14.84639887 64.80371094 25.34960938 C66.55371094 28.03710938 66.55371094 28.03710938 66.51098633 29.83886719 C65.06099069 33.16856897 62.55243755 35.40467509 59.98730469 37.89648438 C59.43381851 38.44572571 58.88033234 38.99496704 58.31007385 39.56085205 C56.54404535 41.31011402 54.76786401 43.04864581 52.99121094 44.78710938 C51.79065652 45.97261438 50.59077834 47.15880461 49.39160156 48.34570312 C46.45341999 51.2508423 43.50609019 54.14640274 40.55371094 57.03710938 C36.85208525 53.96031053 33.31141506 50.86804588 29.98339844 47.38867188 C29.396875 46.77636719 28.81035156 46.1640625 28.20605469 45.53320312 C27.00572825 44.26956276 25.81317208 42.99850241 24.62792969 41.72070312 C24.04398437 41.11613281 23.46003906 40.5115625 22.85839844 39.88867188 C22.3426123 39.34033691 21.82682617 38.79200195 21.29541016 38.22705078 C19.57128744 36.90784068 19.57128744 36.90784068 17.29272461 36.43286133 C12.83584133 37.41608498 10.47700722 40.60335368 7.42480469 43.85351562 C6.75328873 44.54396469 6.08177277 45.23441376 5.38990784 45.94578552 C3.24464109 48.15215987 1.11622644 50.37373429 -1.00878906 52.59960938 C-3.80837772 55.53174535 -6.62376026 58.44727675 -9.45019531 61.35351562 C-10.09195206 62.03676407 -10.7337088 62.72001251 -11.39491272 63.42396545 C-11.99911545 64.0446843 -12.60331818 64.66540314 -13.22583008 65.30493164 C-13.75257828 65.85786392 -14.27932648 66.4107962 -14.82203674 66.98048401 C-16.44628906 68.03710938 -16.44628906 68.03710938 -18.48155212 67.8533783 C-21.58972862 66.56205638 -23.65750701 64.17567484 -25.94628906 61.78710938 C-26.419375 61.30886719 -26.89246094 60.830625 -27.37988281 60.33789062 C-29.56489243 58.10445974 -31.60879081 55.83239938 -33.55175781 53.38476562 C-35.32431312 51.18825895 -37.08442876 49.50926762 -39.25878906 47.72460938 C-42.8067474 44.69763377 -45.83370653 41.453721 -48.83691406 37.89257812 C-50.28052973 36.2282154 -51.77660589 34.72795768 -53.38378906 33.22460938 C-55.44628906 31.03710938 -55.44628906 31.03710938 -55.44628906 28.03710938 C-51.07662033 21.51154447 -44.6929695 16.64988935 -38.44628906 12.03710938 C-37.83398438 11.57433594 -37.22167969 11.1115625 -36.59082031 10.63476562 C-25.61607548 3.05177416 -13.07866343 0.19839889 0 0 Z " fill="#022031FF" transform="translate(484.4462890625,195.962890625)"/>
<path d="M0 0 C1.21405518 0.00422974 1.21405518 0.00422974 2.45263672 0.00854492 C3.37713623 0.01398315 3.37713623 0.01398315 4.3203125 0.01953125 C3.84196897 3.22798786 3.36248939 6.43627373 2.8828125 9.64453125 C2.68075195 10.99998047 2.68075195 10.99998047 2.47460938 12.3828125 C1.79341806 16.93516422 1.09663702 21.48217824 0.3203125 26.01953125 C-0.2365625 25.68953125 -0.7934375 25.35953125 -1.3671875 25.01953125 C-4.24071382 23.77692527 -5.56094372 23.52092525 -8.6796875 24.01953125 C-11.07565051 25.97392743 -13.11654661 27.87548621 -15.24243164 30.09399414 C-15.88047226 30.73933609 -16.51851288 31.38467804 -17.17588806 32.04957581 C-18.55918686 33.45189852 -19.93667883 34.85996756 -21.30900764 36.27302742 C-23.47893596 38.50669364 -25.66404078 40.72443207 -27.85386658 42.93858337 C-32.49740698 47.63930289 -37.12110587 52.35924539 -41.7421875 57.08203125 C-47.09943311 62.55708553 -52.46440765 68.02405872 -57.85085869 73.47039604 C-60.00831017 75.66036702 -62.15021937 77.86480681 -64.29200745 80.07008362 C-65.60937666 81.40560798 -66.92744867 82.74043958 -68.24633789 84.07446289 C-68.84125031 84.69520691 -69.43616272 85.31595093 -70.04910278 85.95550537 C-71.72669983 87.63417053 -71.72669983 87.63417053 -74.6796875 90.01953125 C-78.42377002 89.57203609 -80.05851448 87.96500461 -82.6171875 85.26953125 C-83.31328125 84.54636719 -84.009375 83.82320313 -84.7265625 83.078125 C-85.37109375 82.39878906 -86.015625 81.71945312 -86.6796875 81.01953125 C-87.5665625 80.13265625 -88.4534375 79.24578125 -89.3671875 78.33203125 C-91.02373229 76.67548646 -92.64510342 74.98347515 -94.2421875 73.26953125 C-96.65517914 71.04215435 -97.50595192 70.31234726 -100.6796875 70.01953125 C-102.50961191 71.01719634 -102.50961191 71.01719634 -104.18359375 72.71875 C-104.87855957 73.36763184 -105.57352539 74.01651367 -106.28955078 74.68505859 C-107.0782959 75.45543457 -107.86704102 76.22581055 -108.6796875 77.01953125 C-109.59862793 77.91236816 -110.51756836 78.80520508 -111.46435547 79.72509766 C-114.01330335 82.21968396 -116.53821043 84.73734421 -119.05493164 87.2644043 C-120.63508394 88.84998921 -122.22060726 90.43006567 -123.80664062 92.00976562 C-124.81542556 93.01921017 -125.82390088 94.02896424 -126.83203125 95.0390625 C-127.73945068 95.94760986 -128.64687012 96.85615723 -129.58178711 97.79223633 C-131.70715284 99.8346971 -131.70715284 99.8346971 -132.6796875 102.01953125 C-136.29934216 100.48379038 -138.65701852 98.31832317 -141.44824219 95.57324219 C-142.38891541 94.65178406 -143.32958862 93.73032593 -144.29876709 92.78094482 C-145.31691729 91.77248869 -146.33450237 90.76346174 -147.3515625 89.75390625 C-148.39959482 88.71738451 -149.44762953 87.68086518 -150.4956665 86.64434814 C-152.68832977 84.47266223 -154.87632495 82.29638148 -157.06201172 80.11767578 C-159.86199659 77.32867882 -162.68005743 74.55872779 -165.50281906 71.79281235 C-167.6730307 69.65985897 -169.82969898 67.5135964 -171.98288727 65.36347198 C-173.01616122 64.33624658 -174.05443011 63.31402002 -175.09774017 62.29698944 C-176.55547295 60.87339807 -177.9925992 59.42879814 -179.42871094 57.98339844 C-180.25159607 57.16780457 -181.0744812 56.35221069 -181.92230225 55.51190186 C-184.09917974 52.42459618 -184.11385682 50.72302013 -183.6796875 47.01953125 C-182.5859375 44.46484375 -182.5859375 44.46484375 -181.1796875 42.14453125 C-180.48359375 40.97277344 -180.48359375 40.97277344 -179.7734375 39.77734375 C-179.23203125 38.90722656 -179.23203125 38.90722656 -178.6796875 38.01953125 C-173.85807743 40.3542056 -170.28381481 43.23012651 -166.83203125 47.32421875 C-161.89025596 53.01498287 -156.61793512 58.37661939 -151.31787109 63.73144531 C-150.13347763 64.93256658 -148.95449869 66.13904902 -147.78076172 67.35058594 C-146.06890803 69.11701771 -144.34134313 70.86659456 -142.609375 72.61328125 C-142.08842255 73.15690308 -141.56747009 73.7005249 -141.0307312 74.26062012 C-138.90239493 76.37676542 -137.13878475 77.87491076 -134.25463867 78.78344727 C-129.99140614 77.51866537 -127.53890175 74.38504868 -124.55078125 71.203125 C-123.87926529 70.51267593 -123.20774933 69.82222687 -122.5158844 69.1108551 C-120.37061766 66.90448075 -118.242203 64.68290634 -116.1171875 62.45703125 C-113.31759884 59.52489528 -110.5022163 56.60936388 -107.67578125 53.703125 C-107.03402451 53.01987656 -106.39226776 52.33662811 -105.73106384 51.63267517 C-105.12686111 51.01195633 -104.52265839 50.39123749 -103.90014648 49.75170898 C-103.37339828 49.1987767 -102.84665009 48.64584442 -102.30393982 48.07615662 C-100.6796875 47.01953125 -100.6796875 47.01953125 -98.61183167 47.23167419 C-95.84135031 48.36137421 -94.31653853 50.13593235 -92.2734375 52.30859375 C-91.44714844 53.16710937 -90.62085938 54.025625 -89.76953125 54.91015625 C-88.03906431 56.73719525 -86.31251159 58.56794934 -84.58984375 60.40234375 C-83.76355469 61.25828125 -82.93726563 62.11421875 -82.0859375 62.99609375 C-81.33634766 63.79096191 -80.58675781 64.58583008 -79.81445312 65.40478516 C-77.85509543 67.22983071 -77.85509543 67.22983071 -75.64355469 66.99414062 C-73.23067712 65.79670064 -71.72523523 64.38748462 -69.8515625 62.44921875 C-69.13355469 61.71703125 -68.41554688 60.98484375 -67.67578125 60.23046875 C-66.93457031 59.45960938 -66.19335938 58.68875 -65.4296875 57.89453125 C-57.08676398 49.29968997 -57.08676398 49.29968997 -52.5703125 45.46484375 C-49.26112926 42.62938344 -46.49418744 39.57280299 -43.6796875 36.25537109 C-41.28575502 33.57914628 -38.73488388 31.08864966 -36.1484375 28.6015625 C-35.42092285 27.89663162 -35.42092285 27.89663162 -34.67871094 27.17745972 C-32.66702767 25.22839324 -30.65457112 23.28098646 -28.61914062 21.35668945 C-27.1150669 19.9310912 -25.63069132 18.48728884 -24.1484375 17.0390625 C-23.26607422 16.19448486 -22.38371094 15.34990723 -21.47460938 14.47973633 C-19.390721 12.17193782 -19.390721 12.17193782 -19.83789062 9.39331055 C-20.11568359 8.60996338 -20.39347656 7.82661621 -20.6796875 7.01953125 C-21.0096875 6.02953125 -21.3396875 5.03953125 -21.6796875 4.01953125 C-7.35476474 -0.03324939 -7.35476474 -0.03324939 0 0 Z " fill="#022031FF" transform="translate(600.6796875,194.98046875)"/>
<path d="M0 0 C3.44360076 1.19279254 5.35307039 3.52105213 7.6640625 6.21118164 C8.14222412 6.7499292 8.62038574 7.28867676 9.11303711 7.84375 C12.91276179 12.15877722 16.54131376 16.61109746 20.140625 21.09399414 C23.39167107 25.01535898 26.85751756 28.71741167 30.34765625 32.42602539 C33.79318295 36.44472099 34.88763611 39.34646585 34.7265625 44.74243164 C34.157419 48.55569307 32.73061216 50.72712816 30.4140625 53.83618164 C26.52625552 56.63901923 22.57423998 57.69463963 17.8203125 57.48071289 C8.80392036 55.06560785 1.43755076 43.44506774 -4.38671875 36.57836914 C-8.03371689 32.28377319 -11.83316551 28.14195826 -15.66015625 24.00805664 C-17.5859375 21.83618164 -17.5859375 21.83618164 -19.5859375 18.83618164 C-19.14729012 13.51193286 -14.49367091 10.45280672 -10.8359375 7.02368164 C-10.11921875 6.31791992 -9.4025 5.6121582 -8.6640625 4.88500977 C-7.6121875 3.89210938 -7.6121875 3.89210938 -6.5390625 2.87915039 C-5.90129883 2.27095459 -5.26353516 1.66275879 -4.60644531 1.03613281 C-2.5859375 -0.16381836 -2.5859375 -0.16381836 0 0 Z " fill="#022031FF" transform="translate(573.5859375,350.163818359375)"/>
<path d="M0 0 C3.42612481 1.63213032 5.46080983 3.88938925 7.13134766 7.33032227 C8.68372607 12.1013335 8.36903708 16.96144305 8.375 21.9375 C8.39949219 23.00935547 8.42398437 24.08121094 8.44921875 25.18554688 C8.47186189 31.28032504 8.30369469 35.2961372 4 40 C0.97504529 42.91383393 -1.20644035 43.45329345 -5.375 43.5 C-9.13923749 43.39948632 -11.59168353 43.12665318 -14.5625 40.75 C-19.97990427 34.63805672 -19.39868114 29.01816913 -19.4375 21.125 C-19.47037109 19.95324219 -19.50324219 18.78148437 -19.53710938 17.57421875 C-19.59728582 7.93504578 -19.59728582 7.93504578 -16.66015625 4.3046875 C-11.17749267 -0.44534409 -7.09397433 -0.99315641 0 0 Z " fill="#32EE88" transform="translate(498,341)"/>
<path d="M0 0 C1.49249268 0.01571045 1.49249268 0.01571045 3.01513672 0.03173828 C4.6296875 0.04140625 4.6296875 0.04140625 6.27685547 0.05126953 C7.40478516 0.06802734 8.53271484 0.08478516 9.69482422 0.10205078 C11.39832031 0.11558594 11.39832031 0.11558594 13.13623047 0.12939453 C15.94763721 0.1530198 18.7586272 0.18596065 21.56982422 0.22705078 C22.19482422 3.10205078 22.19482422 3.10205078 22.56982422 6.22705078 C20.56982422 8.22705078 20.56982422 8.22705078 16.65576172 8.42236328 C15.08533071 8.40905454 13.51496201 8.38518681 11.94482422 8.35205078 C11.14302734 8.34302734 10.34123047 8.33400391 9.51513672 8.32470703 C7.53323899 8.30111301 5.55149441 8.26524143 3.56982422 8.22705078 C3.56982422 11.52705078 3.56982422 14.82705078 3.56982422 18.22705078 C4.77380859 18.20384766 5.97779297 18.18064453 7.21826172 18.15673828 C8.79377637 18.13798215 10.3692977 18.11978179 11.94482422 18.10205078 C12.73888672 18.08529297 13.53294922 18.06853516 14.35107422 18.05126953 C16.42474437 18.03369606 18.49865663 18.12369911 20.56982422 18.22705078 C21.22982422 18.88705078 21.88982422 19.54705078 22.56982422 20.22705078 C22.01426866 24.78260634 22.01426866 24.78260634 20.56982422 26.22705078 C17.70714855 26.30030246 14.86910522 26.31943283 12.00732422 26.28955078 C11.20101563 26.28503906 10.39470703 26.28052734 9.56396484 26.27587891 C7.56588666 26.26405596 5.56784639 26.24611992 3.56982422 26.22705078 C3.56982422 29.52705078 3.56982422 32.82705078 3.56982422 36.22705078 C4.77380859 36.20384766 5.97779297 36.18064453 7.21826172 36.15673828 C8.79377637 36.13798215 10.3692977 36.11978179 11.94482422 36.10205078 C12.73888672 36.08529297 13.53294922 36.06853516 14.35107422 36.05126953 C16.42474437 36.03369606 18.49865663 36.12369911 20.56982422 36.22705078 C21.22982422 36.88705078 21.88982422 37.54705078 22.56982422 38.22705078 C22.19482422 40.85205078 22.19482422 40.85205078 21.56982422 43.22705078 C17.61155187 43.28490725 13.65338752 43.32059795 9.69482422 43.35205078 C8.56689453 43.36880859 7.43896484 43.38556641 6.27685547 43.40283203 C4.66230469 43.4125 4.66230469 43.4125 3.01513672 43.42236328 C1.52264404 43.43807373 1.52264404 43.43807373 0 43.45410156 C-2.43017578 43.22705078 -2.43017578 43.22705078 -4.43017578 41.22705078 C-4.63015902 38.30955943 -4.70992465 35.48903149 -4.69580078 32.57080078 C-4.69771423 31.71272827 -4.69962769 30.85465576 -4.70159912 29.97058105 C-4.70296122 28.15486356 -4.69926306 26.33913633 -4.69091797 24.5234375 C-4.6802187 21.73822228 -4.69081231 18.9536521 -4.70361328 16.16845703 C-4.70229169 14.40673685 -4.69972931 12.64501708 -4.69580078 10.88330078 C-4.69984924 10.04682007 -4.70389771 9.21033936 -4.70806885 8.34851074 C-4.64361992 0.43385237 -4.64361992 0.43385237 0 0 Z " fill="#32EE88" transform="translate(446.43017578125,340.77294921875)"/>
<path d="M0 0 C1.18335938 0.0009668 1.18335938 0.0009668 2.390625 0.00195312 C8.2346388 0.0471388 8.2346388 0.0471388 9.375 1.1875 C9.08769945 3.52694736 8.75563221 5.8614143 8.375 8.1875 C7.23160156 8.24808594 6.08820313 8.30867188 4.91015625 8.37109375 C3.41925695 8.45548428 1.92837225 8.54013302 0.4375 8.625 C-0.69461914 8.68397461 -0.69461914 8.68397461 -1.84960938 8.74414062 C-5.54444187 8.62788024 -5.54444187 8.62788024 -8.625 10.1875 C-8.8750773 12.64559998 -8.8750773 12.64559998 -8.625 15.1875 C-6.10770629 17.70479371 -4.85784397 17.50863527 -1.375 17.875 C3.6676821 18.73643058 6.38616699 19.95708474 9.421875 24.109375 C11.08826781 27.74265768 11.00185964 31.29144832 10.375 35.1875 C10.045 35.8475 9.715 36.5075 9.375 37.1875 C8.715 37.1875 8.055 37.1875 7.375 37.1875 C7.106875 37.80625 6.83875 38.425 6.5625 39.0625 C5.375 41.1875 5.375 41.1875 2.375 43.1875 C0.39794922 43.43041992 0.39794922 43.43041992 -1.8203125 43.41796875 C-2.61824219 43.41603516 -3.41617187 43.41410156 -4.23828125 43.41210938 C-5.48158203 43.39374023 -5.48158203 43.39374023 -6.75 43.375 C-7.58660156 43.37435547 -8.42320312 43.37371094 -9.28515625 43.37304688 C-15.48466837 43.32783163 -15.48466837 43.32783163 -16.625 42.1875 C-16.75 39.6875 -16.75 39.6875 -16.625 37.1875 C-14.6604874 35.2229874 -10.94907149 35.82295526 -8.25 35.6875 C-2.86144863 35.43473559 -2.86144863 35.43473559 2.375 34.1875 C1.715 31.8775 1.055 29.5675 0.375 27.1875 C-0.62080078 27.04054688 -0.62080078 27.04054688 -1.63671875 26.890625 C-6.95073102 25.99073387 -10.7933653 25.25861187 -14.625 21.1875 C-17.30362831 16.73582946 -17.44539631 12.24934523 -16.625 7.1875 C-11.82207877 0.95668327 -7.54348346 -0.11825593 0 0 Z " fill="#32EE88" transform="translate(422.625,340.8125)"/>
<path d="M0 0 C3 0.4375 3 0.4375 6 2.4375 C6.38818359 4.72827148 6.38818359 4.72827148 6.3984375 7.55859375 C6.40230469 8.57630859 6.40617187 9.59402344 6.41015625 10.64257812 C6.39855469 11.70927734 6.38695312 12.77597656 6.375 13.875 C6.38660156 14.93783203 6.39820313 16.00066406 6.41015625 17.09570312 C6.40628906 18.11470703 6.40242188 19.13371094 6.3984375 20.18359375 C6.39505371 21.11872803 6.39166992 22.0538623 6.38818359 23.01733398 C6 25.4375 6 25.4375 4.69775391 27.26977539 C3 28.4375 3 28.4375 -0.5625 28.375 C-4 27.4375 -4 27.4375 -5.1953125 25.9375 C-6.41747874 22.14047867 -6.32842005 18.4640917 -6.3125 14.5 C-6.32861328 13.70142578 -6.34472656 12.90285156 -6.36132812 12.08007812 C-6.36578462 6.70108996 -6.33858808 0.92437743 0 0 Z " fill="#022031FF" transform="translate(492,348.5625)"/>
<path d="M0 0 C2.375 0.9375 2.375 0.9375 4.375 3.9375 C3.715 3.9375 3.055 3.9375 2.375 3.9375 C2.045 4.5975 1.715 5.2575 1.375 5.9375 C-3.625 5.9375 -3.625 5.9375 -6.625 3.9375 C-3.3383758 -0.07948514 -3.3383758 -0.07948514 0 0 Z " fill="#022031FF" transform="translate(573.625,350.0625)"/>
<path d="M0 0 C1.80411967 2.75924185 2.0127245 3.88972103 1.625 7.25 C1.41875 8.1575 1.2125 9.065 1 10 C-1.0625 8.25 -1.0625 8.25 -3 6 C-2.82246387 2.98188578 -2.16264785 2.16264785 0 0 Z " fill="#022031FF" transform="translate(557,363)"/>
</svg>
