<?xml version="1.0" encoding="UTF-8"?>
<svg version="1.1" xmlns="http://www.w3.org/2000/svg" width="1004" height="591">
<path d="M0 0 C331.32 0 662.64 0 1004 0 C1004 195.03 1004 390.06 1004 591 C672.68 591 341.36 591 0 591 C0 395.97 0 200.94 0 0 Z " fill="#022031" transform="translate(0,0)"/>
<path d="M0 0 C1.17820312 0.350625 2.35640625 0.70125 3.5703125 1.0625 C18.40076284 5.84009474 31.08027145 14.14898467 43 24 C43.77085937 24.6290625 44.54171875 25.258125 45.3359375 25.90625 C57.85591351 36.45948648 67.10202964 50.38474983 74.125 65.0625 C74.69226807 66.23969604 74.69226807 66.23969604 75.27099609 67.44067383 C77.37202411 72.00984759 78.56049965 75.98570058 79 81 C78.46890625 80.66226563 77.9378125 80.32453125 77.390625 79.9765625 C76.68421875 79.53054688 75.9778125 79.08453125 75.25 78.625 C74.55390625 78.18414062 73.8578125 77.74328125 73.140625 77.2890625 C71.08665349 75.95141793 71.08665349 75.95141793 68.96875 75.296875 C65.82877502 73.22847879 64.75598306 69.94650379 63.25 66.625 C57.94890202 55.52333498 51.48898668 45.94052852 43 37 C39.2520551 38.73123745 35.87694559 40.98691049 32.4375 43.25 C26.45113072 47.15068855 20.34145333 50.69985592 14 54 C14.17390259 54.8521106 14.17390259 54.8521106 14.35131836 55.72143555 C16.52535269 66.4699221 18.59240574 77.01533468 19 88 C14.545 88.99 14.545 88.99 10 90 C9.82609741 88.86570557 9.82609741 88.86570557 9.64868164 87.70849609 C9.12035382 84.263936 8.59143254 80.81946728 8.0625 77.375 C7.78889648 75.59029297 7.78889648 75.59029297 7.50976562 73.76953125 C7.33251953 72.61582031 7.15527344 71.46210938 6.97265625 70.2734375 C6.81031494 69.21560059 6.64797363 68.15776367 6.48071289 67.06787109 C6.00654757 64.04178604 5.50868751 61.02045582 5 58 C3.9378125 58.27714844 2.875625 58.55429688 1.78125 58.83984375 C0.35423263 59.20598636 -1.07285448 59.57185722 -2.5 59.9375 C-3.19609375 60.11990234 -3.8921875 60.30230469 -4.609375 60.49023438 C-13.22754896 62.68467682 -20.985641 63 -30 63 C-30 78.51 -30 94.02 -30 110 C-22.74 110 -15.48 110 -8 110 C-8.33 112.64 -8.66 115.28 -9 118 C-15.93 118 -22.86 118 -30 118 C-30 130.87 -30 143.74 -30 157 C-27.03 157 -24.06 157 -21 157 C-21 159.64 -21 162.28 -21 165 C-23.97 165 -26.94 165 -30 165 C-30 184.14 -30 203.28 -30 223 C-18.96851593 217.48425796 -12.46726594 211.93453187 -7 201 C-6.34 201 -5.68 201 -5 201 C-3.1411321 203.20810975 -1.62305722 205.6081262 0 208 C-2.64 211.63 -5.28 215.26 -8 219 C-4.38239515 219 -2.79591056 218.68715434 0.4375 217.4375 C7.1378692 215.13493013 11.63129677 217.51728518 18 220 C0.97706998 234.11057332 -27.60959731 234.37186051 -48.5234375 232.53613281 C-70.37672584 230.21066672 -92.32188704 221.38995722 -109 207 C-109.86625 206.27039063 -110.7325 205.54078125 -111.625 204.7890625 C-136.09766203 183.52470677 -150.82359564 154.03438019 -153.16845703 121.67529297 C-154.73408557 90.34307003 -145.18591976 59.58678649 -124.21679688 35.99365234 C-92.8529558 2.08528805 -45.44098405 -14.85382705 0 0 Z " fill="#32EE88FF" transform="translate(515,182)"/>
<path d="M0 0 C0.8765625 -0.01933594 1.753125 -0.03867187 2.65625 -0.05859375 C7.04916558 -0.02551457 10.08056577 0.21570413 13.5625 3.0390625 C16.90200906 6.5819391 17.17515382 8.49117549 17.5625 13.25 C17.64628906 14.25289063 17.73007812 15.25578125 17.81640625 16.2890625 C17.87699219 17.05992187 17.93757812 17.83078125 18 18.625 C20.65228005 19.41504087 22.28398008 19.84925853 25 19.625 C27.28701352 18.37420395 27.28701352 18.37420395 29.5 16.6875 C32.42337751 14.58029388 33.97534327 13.63062346 37.5625 12.8125 C42.64863196 14.01467665 45.389474 16.97914596 49 20.625 C49.66902344 21.26953125 50.33804688 21.9140625 51.02734375 22.578125 C56.74752871 28.14623961 56.74752871 28.14623961 57.4375 32.1875 C56.9567025 35.96519467 56.13347484 36.99479474 53.875 39.9375 C51.46686015 43.24125195 51.46686015 43.24125195 51.046875 47.203125 C51.56346238 49.42305456 52.16787573 51.50458694 53 53.625 C54.19625 53.563125 55.3925 53.50125 56.625 53.4375 C61.46628003 53.4375 64.84780446 54.90484252 68.64306641 57.93823242 C70.42510454 60.153436 70.38687851 61.47956122 70.3984375 64.30078125 C70.40230469 65.21150391 70.40617188 66.12222656 70.41015625 67.06054688 C70.39275391 68.48463867 70.39275391 68.48463867 70.375 69.9375 C70.38660156 70.87529297 70.39820313 71.81308594 70.41015625 72.77929688 C70.38758667 78.11700258 70.06127777 82.04801641 67 86.625 C64.29816945 87.97591528 61.88191794 87.96358058 58.875 88.1875 C57.77929688 88.27128906 56.68359375 88.35507812 55.5546875 88.44140625 C54.71164062 88.50199219 53.86859375 88.56257813 53 88.625 C51.98125078 92.62590601 51.10233326 96.09206142 53.26953125 99.79296875 C54.3751299 101.13159756 55.48706095 102.46502318 56.60546875 103.79296875 C58 105.625 58 105.625 58.75 108.625 C56.7278572 116.7135712 48.76808501 124.11294332 42 128.625 C38.67794732 129.0721994 36.15021879 129.39354348 33.26953125 127.46875 C32.70621094 127.0046875 32.14289063 126.540625 31.5625 126.0625 C29.51782283 124.42028191 28.49214942 123.65810823 25.8515625 123.48046875 C23.04687265 123.82978933 20.53707194 124.35646403 18 125.625 C17.46939009 128.32793595 17.16973448 131.02966452 16.85546875 133.765625 C15.66119825 137.75743325 14.43212956 139.22207867 11 141.625 C7.31601315 142.35058246 3.74380675 142.32350406 0 142.25 C-0.98484375 142.26933594 -1.9696875 142.28867187 -2.984375 142.30859375 C-7.65330104 142.27704695 -10.22846277 142.16411164 -14.125 139.44140625 C-16.67100798 135.61709009 -16.86170852 132.53433447 -17.25 128.05078125 C-17.77055744 125.41354322 -17.77055744 125.41354322 -20.3125 124.23046875 C-23.98111604 123.40396368 -25.76519765 123.86262203 -28.9296875 125.81640625 C-30.22431586 126.72888527 -31.51600641 127.64554709 -32.8046875 128.56640625 C-35.79174407 130.00678406 -37.71679783 130.06527615 -41 129.625 C-43.59765625 127.8671875 -43.59765625 127.8671875 -46.0625 125.5 C-46.9184375 124.68144531 -47.774375 123.86289062 -48.65625 123.01953125 C-56.74994428 114.75047359 -56.74994428 114.75047359 -57.375 109.4375 C-56.99183153 105.54195392 -56.77172503 105.02391284 -54.4375 102.25 C-52.65439907 100.0511761 -52.0189595 99.04820301 -51.890625 96.18359375 C-52.15516561 93.95936416 -52.50012152 91.8076377 -53 89.625 C-53.73605469 89.61082031 -54.47210937 89.59664063 -55.23046875 89.58203125 C-63.27727388 89.18872638 -63.27727388 89.18872638 -67.125 86.1875 C-70.7686607 81.20783038 -70.32602335 76.83608296 -70.4375 70.8125 C-70.48326172 69.81412109 -70.52902344 68.81574219 -70.57617188 67.78710938 C-70.6854555 60.65516515 -70.6854555 60.65516515 -68.81787109 57.84838867 C-65.76804198 55.12199654 -62.74829848 53.99789753 -58.75 53.5625 C-56.21024592 53.36015242 -56.21024592 53.36015242 -54 52.625 C-52.41108101 50.29172256 -51.98800254 49.08090351 -52.0625 46.25 C-52.90677761 43.36732503 -52.90677761 43.36732503 -55.5625 40.75 C-58 37.625 -58 37.625 -58.75 34.25 C-57.65481265 28.95659447 -54.72948789 26.37575873 -51 22.625 C-50.36320313 21.87089844 -49.72640625 21.11679687 -49.0703125 20.33984375 C-44.42484947 15.05073222 -44.42484947 15.05073222 -40.73828125 13.94921875 C-35.41829906 13.63309078 -32.80161062 15.25956263 -28.83984375 18.578125 C-25.39092875 20.54056495 -21.71021379 19.4747315 -18 18.625 C-17.92523437 17.74457031 -17.85046875 16.86414063 -17.7734375 15.95703125 C-17.64195312 14.79558594 -17.51046875 13.63414062 -17.375 12.4375 C-17.25898437 11.28894531 -17.14296875 10.14039063 -17.0234375 8.95703125 C-15.96664272 5.51639787 -14.83219813 3.6888194 -11.91259766 1.54272461 C-8.09024978 -0.29135832 -4.1613208 -0.09179384 0 0 Z " fill="#022031FF" transform="translate(573,264.375)"/>
<path d="M0 0 C0.8765625 -0.01933594 1.753125 -0.03867187 2.65625 -0.05859375 C7.04916558 -0.02551457 10.08056577 0.21570413 13.5625 3.0390625 C16.90200906 6.5819391 17.17515382 8.49117549 17.5625 13.25 C17.64628906 14.25289063 17.73007812 15.25578125 17.81640625 16.2890625 C17.87699219 17.05992187 17.93757812 17.83078125 18 18.625 C20.65228005 19.41504087 22.28398008 19.84925853 25 19.625 C27.28701352 18.37420395 27.28701352 18.37420395 29.5 16.6875 C32.42337751 14.58029388 33.97534327 13.63062346 37.5625 12.8125 C42.64863196 14.01467665 45.389474 16.97914596 49 20.625 C49.66902344 21.26953125 50.33804688 21.9140625 51.02734375 22.578125 C56.74752871 28.14623961 56.74752871 28.14623961 57.4375 32.1875 C56.9567025 35.96519467 56.13347484 36.99479474 53.875 39.9375 C51.46686015 43.24125195 51.46686015 43.24125195 51.046875 47.203125 C51.56346238 49.42305456 52.16787573 51.50458694 53 53.625 C54.19625 53.563125 55.3925 53.50125 56.625 53.4375 C61.46628003 53.4375 64.84780446 54.90484252 68.64306641 57.93823242 C70.42510454 60.153436 70.38687851 61.47956122 70.3984375 64.30078125 C70.40230469 65.21150391 70.40617188 66.12222656 70.41015625 67.06054688 C70.39275391 68.48463867 70.39275391 68.48463867 70.375 69.9375 C70.38660156 70.87529297 70.39820313 71.81308594 70.41015625 72.77929688 C70.38758667 78.11700258 70.06127777 82.04801641 67 86.625 C64.29816945 87.97591528 61.88191794 87.96358058 58.875 88.1875 C57.77929688 88.27128906 56.68359375 88.35507812 55.5546875 88.44140625 C54.71164062 88.50199219 53.86859375 88.56257813 53 88.625 C51.98125078 92.62590601 51.10233326 96.09206142 53.26953125 99.79296875 C54.3751299 101.13159756 55.48706095 102.46502318 56.60546875 103.79296875 C58 105.625 58 105.625 58.75 108.625 C56.7278572 116.7135712 48.76808501 124.11294332 42 128.625 C38.67794732 129.0721994 36.15021879 129.39354348 33.26953125 127.46875 C32.70621094 127.0046875 32.14289063 126.540625 31.5625 126.0625 C29.51782283 124.42028191 28.49214942 123.65810823 25.8515625 123.48046875 C23.04687265 123.82978933 20.53707194 124.35646403 18 125.625 C17.46939009 128.32793595 17.16973448 131.02966452 16.85546875 133.765625 C15.66119825 137.75743325 14.43212956 139.22207867 11 141.625 C7.31601315 142.35058246 3.74380675 142.32350406 0 142.25 C-0.98484375 142.26933594 -1.9696875 142.28867187 -2.984375 142.30859375 C-7.65330104 142.27704695 -10.22846277 142.16411164 -14.125 139.44140625 C-16.67100798 135.61709009 -16.86170852 132.53433447 -17.25 128.05078125 C-17.77055744 125.41354322 -17.77055744 125.41354322 -20.3125 124.23046875 C-23.98111604 123.40396368 -25.76519765 123.86262203 -28.9296875 125.81640625 C-30.22431586 126.72888527 -31.51600641 127.64554709 -32.8046875 128.56640625 C-35.79174407 130.00678406 -37.71679783 130.06527615 -41 129.625 C-43.59765625 127.8671875 -43.59765625 127.8671875 -46.0625 125.5 C-46.9184375 124.68144531 -47.774375 123.86289062 -48.65625 123.01953125 C-56.74994428 114.75047359 -56.74994428 114.75047359 -57.375 109.4375 C-56.99183153 105.54195392 -56.77172503 105.02391284 -54.4375 102.25 C-52.65439907 100.0511761 -52.0189595 99.04820301 -51.890625 96.18359375 C-52.15516561 93.95936416 -52.50012152 91.8076377 -53 89.625 C-53.73605469 89.61082031 -54.47210937 89.59664063 -55.23046875 89.58203125 C-63.27727388 89.18872638 -63.27727388 89.18872638 -67.125 86.1875 C-70.7686607 81.20783038 -70.32602335 76.83608296 -70.4375 70.8125 C-70.48326172 69.81412109 -70.52902344 68.81574219 -70.57617188 67.78710938 C-70.6854555 60.65516515 -70.6854555 60.65516515 -68.81787109 57.84838867 C-65.76804198 55.12199654 -62.74829848 53.99789753 -58.75 53.5625 C-56.21024592 53.36015242 -56.21024592 53.36015242 -54 52.625 C-52.41108101 50.29172256 -51.98800254 49.08090351 -52.0625 46.25 C-52.90677761 43.36732503 -52.90677761 43.36732503 -55.5625 40.75 C-58 37.625 -58 37.625 -58.75 34.25 C-57.65481265 28.95659447 -54.72948789 26.37575873 -51 22.625 C-50.36320313 21.87089844 -49.72640625 21.11679687 -49.0703125 20.33984375 C-44.42484947 15.05073222 -44.42484947 15.05073222 -40.73828125 13.94921875 C-35.41829906 13.63309078 -32.80161062 15.25956263 -28.83984375 18.578125 C-25.39092875 20.54056495 -21.71021379 19.4747315 -18 18.625 C-17.92523437 17.74457031 -17.85046875 16.86414063 -17.7734375 15.95703125 C-17.64195312 14.79558594 -17.51046875 13.63414062 -17.375 12.4375 C-17.25898437 11.28894531 -17.14296875 10.14039063 -17.0234375 8.95703125 C-15.96664272 5.51639787 -14.83219813 3.6888194 -11.91259766 1.54272461 C-8.09024978 -0.29135832 -4.1613208 -0.09179384 0 0 Z M-8 8.625 C-9.8133922 11.82510388 -10.52213974 14.75783843 -11.125 18.375 C-11.29257812 19.35984375 -11.46015625 20.3446875 -11.6328125 21.359375 C-11.81457031 22.48085938 -11.81457031 22.48085938 -12 23.625 C-12.60328125 23.81835938 -13.2065625 24.01171875 -13.828125 24.2109375 C-15.02695312 24.60152344 -15.02695312 24.60152344 -16.25 25 C-17.03890625 25.25523437 -17.8278125 25.51046875 -18.640625 25.7734375 C-21.0057443 26.55156738 -21.0057443 26.55156738 -23.046875 27.7890625 C-25 28.625 -25 28.625 -27 28.4453125 C-30.13925947 27.15772561 -32.43196844 24.9814955 -35 22.8046875 C-36.90393012 21.43936513 -36.90393012 21.43936513 -39.0234375 21.69921875 C-41.5718282 22.89283258 -42.84402819 24.3931665 -44.625 26.5625 C-45.21539063 27.27277344 -45.80578125 27.98304688 -46.4140625 28.71484375 C-46.93742188 29.34519531 -47.46078125 29.97554688 -48 30.625 C-48.66 31.285 -49.32 31.945 -50 32.625 C-49.59050503 36.89799104 -46.85108109 39.4734942 -44.1796875 42.625 C-43 44.625 -43 44.625 -43.19140625 46.515625 C-43.59166016 47.55976563 -43.59166016 47.55976563 -44 48.625 C-44.32097656 49.54796875 -44.64195312 50.4709375 -44.97265625 51.421875 C-45.33230469 52.39640625 -45.69195313 53.3709375 -46.0625 54.375 C-46.42472656 55.35984375 -46.78695312 56.3446875 -47.16015625 57.359375 C-47.43730469 58.10703125 -47.71445312 58.8546875 -48 59.625 C-49.49853516 59.82416016 -49.49853516 59.82416016 -51.02734375 60.02734375 C-52.31769531 60.20394531 -53.60804688 60.38054687 -54.9375 60.5625 C-56.22527344 60.73652344 -57.51304687 60.91054688 -58.83984375 61.08984375 C-61.85466313 61.28662423 -61.85466313 61.28662423 -63 62.625 C-63.07325168 65.48767567 -63.09238205 68.325719 -63.0625 71.1875 C-63.05798828 71.99380859 -63.05347656 72.80011719 -63.04882812 73.63085938 C-63.03700518 75.62893756 -63.01906914 77.62697783 -63 79.625 C-59.34749307 80.92719812 -55.98802916 81.89881553 -52.125 82.25 C-51.34382812 82.32476562 -50.56265625 82.39953125 -49.7578125 82.4765625 C-48.88769531 82.55003906 -48.88769531 82.55003906 -48 82.625 C-47.13007846 84.68090454 -46.27962311 86.74505336 -45.4375 88.8125 C-44.96183594 89.96105469 -44.48617187 91.10960937 -43.99609375 92.29296875 C-42.96366979 95.7465281 -42.80705568 97.27448175 -44 100.625 C-45.23092307 102.47530475 -46.59735938 104.09262535 -48.0390625 105.78125 C-49.19783111 107.63567552 -49.19783111 107.63567552 -48.91796875 110.0390625 C-47.75776225 113.3073889 -46.13571374 115.05579316 -43.6875 117.5 C-42.90761719 118.30179687 -42.12773438 119.10359375 -41.32421875 119.9296875 C-39.20365535 121.83706778 -39.20365535 121.83706778 -36.953125 121.578125 C-34.68824577 120.47286394 -32.98049286 119.13314243 -31.0625 117.5 C-27.33635231 114.63320371 -27.33635231 114.63320371 -24.4375 114.5625 C-22.43632415 115.43480742 -20.43669419 116.31066044 -18.4375 117.1875 C-15.00594086 118.88220409 -15.00594086 118.88220409 -11 118.625 C-10.80083984 120.23181641 -10.80083984 120.23181641 -10.59765625 121.87109375 C-10.4194944 123.26825769 -10.24109681 124.66539159 -10.0625 126.0625 C-9.97548828 126.76955078 -9.88847656 127.47660156 -9.79882812 128.20507812 C-9.61783809 131.71317968 -9.61783809 131.71317968 -8 134.625 C-5.30345146 134.69819621 -2.63308542 134.71742537 0.0625 134.6875 C0.82111328 134.68298828 1.57972656 134.67847656 2.36132812 134.67382812 C4.24091871 134.6620068 6.12046899 134.64407078 8 134.625 C9.38287213 130.79118377 10.29570173 127.31134535 10.625 123.25 C10.69976563 122.37601562 10.77453125 121.50203125 10.8515625 120.6015625 C10.92503906 119.62316406 10.92503906 119.62316406 11 118.625 C11.60328125 118.50382812 12.2065625 118.38265625 12.828125 118.2578125 C13.62734375 118.09023438 14.4265625 117.92265625 15.25 117.75 C16.03890625 117.58757812 16.8278125 117.42515625 17.640625 117.2578125 C19.9695197 116.63317518 21.85377248 115.7003825 24 114.625 C28.42092088 114.74448435 30.92552087 116.90575131 34.15625 119.6640625 C36.01071507 120.82340127 36.01071507 120.82340127 38.4140625 120.5390625 C41.66735444 119.38910734 43.4284253 117.79751003 45.875 115.375 C46.67679688 114.60671875 47.47859375 113.8384375 48.3046875 113.046875 C50.25217147 110.77035633 50.25217147 110.77035633 49.953125 108.08203125 C48.62652054 104.66221893 46.54831267 102.3459629 44.1796875 99.58984375 C43 97.625 43 97.625 43.19140625 95.73828125 C43.45824219 95.04089844 43.72507812 94.34351563 44 93.625 C44.32097656 92.70203125 44.64195312 91.7790625 44.97265625 90.828125 C45.33230469 89.85359375 45.69195313 88.8790625 46.0625 87.875 C46.60583984 86.39773438 46.60583984 86.39773438 47.16015625 84.890625 C47.57587891 83.76914062 47.57587891 83.76914062 48 82.625 C48.99902344 82.49222656 49.99804688 82.35945313 51.02734375 82.22265625 C52.31769531 82.04605469 53.60804688 81.86945313 54.9375 81.6875 C56.86916016 81.42646484 56.86916016 81.42646484 58.83984375 81.16015625 C61.85466313 80.96337577 61.85466313 80.96337577 63 79.625 C63.07319621 76.92845146 63.09242537 74.25808542 63.0625 71.5625 C63.05798828 70.80388672 63.05347656 70.04527344 63.04882812 69.26367188 C63.0370068 67.38408129 63.01907078 65.50453101 63 63.625 C59.59648662 61.59280512 56.6767073 61.25608961 52.75 61 C51.67234375 60.92523438 50.5946875 60.85046875 49.484375 60.7734375 C48.66453125 60.72445312 47.8446875 60.67546875 47 60.625 C46.81824219 59.72007812 46.81824219 59.72007812 46.6328125 58.796875 C46.46523438 57.99765625 46.29765625 57.1984375 46.125 56.375 C45.96257812 55.58609375 45.80015625 54.7971875 45.6328125 53.984375 C45.09592601 51.62038589 45.09592601 51.62038589 43.9296875 49.640625 C42.74690058 47.07626345 42.6507365 45.42347383 43 42.625 C44.3125 40.52734375 44.3125 40.52734375 46 38.5625 C48.68547791 35.42322605 49 35.02441346 49 30.625 C47.36213274 28.72082322 47.36213274 28.72082322 45.1875 27.0625 C42.67043513 25.00391689 40.25768992 22.96815452 38 20.625 C35.18980165 21.86148728 33.00626203 23.41171435 30.625 25.3125 C28.0817533 27.1391115 27.35154709 27.625 24.125 27.625 C23.09375 27.295 22.0625 26.965 21 26.625 C20.25105469 26.53863281 19.50210938 26.45226562 18.73046875 26.36328125 C15.89200137 25.8634542 14.28331024 25.41486402 12 23.625 C10.31071137 19.03822603 9.69031191 14.4448564 9 9.625 C7.81147145 8.20725162 7.81147145 8.20725162 4.40234375 8.52734375 C2.91403133 8.5340178 1.42573568 8.54597817 -0.0625 8.5625 C-1.20041992 8.56926758 -1.20041992 8.56926758 -2.36132812 8.57617188 C-4.24091871 8.5879932 -6.12046899 8.60592922 -8 8.625 Z " fill="#32EE88FF" transform="translate(573,264.375)"/>
<path d="M0 0 C1.67105839 1.66226334 3.33685073 3.32982334 5 5 C7.37378293 6.6698571 9.86043991 8.11587055 12.375 9.5625 C13.00921875 9.93568359 13.6434375 10.30886719 14.296875 10.69335938 C18.51013338 13.16542424 22.75570436 15.58173853 27 18 C26.70996094 19.50626953 26.70996094 19.50626953 26.4140625 21.04296875 C25.58871887 25.35823067 24.79087221 29.67830491 24 34 C23.79890625 35.08539063 23.5978125 36.17078125 23.390625 37.2890625 C22.14668664 44.58306469 21.63847614 51.819212 21.34130859 59.20239258 C21.3098877 59.96704834 21.2784668 60.7317041 21.24609375 61.51953125 C21.22216553 62.19089111 21.1982373 62.86225098 21.17358398 63.55395508 C20.92555143 67.04908618 20.4346079 70.52313683 20 74 C1.85 74 -16.3 74 -35 74 C-33.83651886 57.71126402 -33.83651886 57.71126402 -31.75 50.375 C-31.52602539 49.56579102 -31.30205078 48.75658203 -31.07128906 47.92285156 C-26.59545054 32.19778075 -19.16342857 18.52937297 -8.625 6.0625 C-8.11316162 5.45293457 -7.60132324 4.84336914 -7.07397461 4.21533203 C-3.37989331 0 -3.37989331 0 0 0 Z " fill="#022031FF" transform="translate(406,218)"/>
<path d="M0 0 C18.48 0 36.96 0 56 0 C56.495 12.375 56.495 12.375 57 25 C57.69000161 30.55928121 57.69000161 30.55928121 58.5234375 36.09765625 C59.22630031 40.37820598 59.62178905 44.6804328 60 49 C59.36835938 49.31710937 58.73671875 49.63421875 58.0859375 49.9609375 C51.57904137 53.35502453 45.66264922 57.22159511 39.77294922 61.57177734 C36.94411737 63.65434797 34.22063297 65.57564144 31 67 C31 67.66 31 68.32 31 69 C29.515 69.495 29.515 69.495 28 70 C10.31293853 49.51770811 1.91950787 26.87311015 0 0 Z " fill="#022031FF" transform="translate(371,300)"/>
<path d="M0 0 C7.77410408 4.93962263 14.22929233 11.51528104 16.4375 20.67578125 C17.95777355 30.26404114 15.87504593 38.74939879 10.64453125 46.9765625 C6.03075975 52.88219002 -0.83487897 56.89973668 -8.16796875 58.1640625 C-17.56743304 59.09383949 -25.43970186 57.32350702 -32.98046875 51.4765625 C-36.75211325 47.96288425 -39.00766918 43.79689243 -41.16796875 39.1640625 C-41.81765625 37.771875 -41.81765625 37.771875 -42.48046875 36.3515625 C-44.46197844 27.16456302 -43.53578333 20.08915748 -38.93359375 11.86328125 C-30.53927095 -0.96963259 -14.66439003 -6.8369923 0 0 Z " fill="#022031FF" transform="translate(586.16796875,307.8359375)"/>
<path d="M0 0 C0.57492187 0.14638916 1.14984375 0.29277832 1.7421875 0.44360352 C5.47558143 1.36362998 9.23868378 2.14081176 13 2.9375 C14.18142578 3.19176758 14.18142578 3.19176758 15.38671875 3.45117188 C21.91144427 4.83281665 28.40275143 5.90045857 35 7 C35 22.18 35 37.36 35 53 C21.47 53 7.94 53 -6 53 C-6 44.12204186 -5.75482525 35.80421486 -4.6875 27.0625 C-4.55432373 25.93602051 -4.42114746 24.80954102 -4.28393555 23.64892578 C-3.29915316 15.64490069 -2.0046008 7.81936481 0 0 Z " fill="#022031FF" transform="translate(441,239)"/>
<path d="M0 0 C13.86 0 27.72 0 42 0 C42 12.54 42 25.08 42 38 C36.39 38.66 30.78 39.32 25 40 C21.3723651 40.77897489 17.86186026 41.67045541 14.296875 42.67578125 C10.76641854 43.63797533 7.66394871 44.20976806 4 44 C3.51915734 40.83358551 3.04063706 37.66682407 2.5625 34.5 C2.36043945 33.1696875 2.36043945 33.1696875 2.15429688 31.8125 C1.88610143 30.03325217 1.62263466 28.25328549 1.36376953 26.47265625 C1.06277862 24.4267261 0.73594687 22.38461616 0.40234375 20.34375 C-0.22322066 13.59008378 0 6.78257608 0 0 Z " fill="#022031FF" transform="translate(435,300)"/>
<path d="M0 0 C0 18.81 0 37.62 0 57 C-8.10764891 55.37847022 -13.82283002 50.1309831 -18.47265625 43.39453125 C-18.97667969 42.60433594 -19.48070312 41.81414062 -20 41 C-20.63808594 40.01386719 -21.27617187 39.02773438 -21.93359375 38.01171875 C-25.98713275 31.36820588 -29.06333116 24.7517233 -31.5625 17.375 C-31.82611328 16.60494629 -32.08972656 15.83489258 -32.36132812 15.04150391 C-33.55263671 11.31495204 -34.34990473 8.71871835 -33 5 C-23.78234884 -0.47366458 -10.03223289 0 0 0 Z " fill="#022031FF" transform="translate(476,348)"/>
<path d="M0 0 C7.77410408 4.93962263 14.22929233 11.51528104 16.4375 20.67578125 C17.95777355 30.26404114 15.87504593 38.74939879 10.64453125 46.9765625 C6.03075975 52.88219002 -0.83487897 56.89973668 -8.16796875 58.1640625 C-17.56743304 59.09383949 -25.43970186 57.32350702 -32.98046875 51.4765625 C-36.75211325 47.96288425 -39.00766918 43.79689243 -41.16796875 39.1640625 C-41.81765625 37.771875 -41.81765625 37.771875 -42.48046875 36.3515625 C-44.46197844 27.16456302 -43.53578333 20.08915748 -38.93359375 11.86328125 C-30.53927095 -0.96963259 -14.66439003 -6.8369923 0 0 Z M-31.16796875 14.1640625 C-35.11876859 19.39620283 -35.85501807 23.54930869 -35.6171875 30.09375 C-34.68903609 36.43746314 -31.96152775 41.92582271 -27.10546875 46.1640625 C-20.26808716 50.81930103 -14.40271955 51.160567 -6.16796875 50.1640625 C0.35914035 47.77173103 4.54223055 42.96504484 7.796875 36.9453125 C10.12772479 30.68280287 9.97392527 24.00408146 7.33203125 17.8515625 C4.26300049 12.62001184 -0.40677625 8.83531059 -5.54296875 5.7265625 C-15.99244693 3.48738861 -24.23427995 5.88215643 -31.16796875 14.1640625 Z " fill="#32EE88FF" transform="translate(586.16796875,307.8359375)"/>
<path d="M0 0 C9.93428556 2.48357139 16.52314401 10.02623096 21.921875 18.34765625 C26.54013593 26.1879095 30.87677548 34.9159217 32 44 C29.81426438 44.65177969 27.6263177 45.29614674 25.4375 45.9375 C24.21933594 46.29714844 23.00117188 46.65679687 21.74609375 47.02734375 C14.16546523 48.99561956 8.06793541 49 0 49 C0 32.83 0 16.66 0 0 Z " fill="#022031FF" transform="translate(485,187)"/>
<path d="M0 0 C0 15.84 0 31.68 0 48 C-12.43564356 48 -12.43564356 48 -18.875 46.625 C-20.10992187 46.36976563 -21.34484375 46.11453125 -22.6171875 45.8515625 C-25.5612043 45.11045896 -28.2238249 44.21391687 -31 43 C-30.69127446 35.12749867 -27.55659272 28.93744792 -24 22 C-23.54496094 21.10667969 -23.08992188 20.21335938 -22.62109375 19.29296875 C-17.96548281 10.87042473 -10.41435285 0 0 0 Z " fill="#022031FF" transform="translate(476,188)"/>
<path d="M0 0 C0.20568604 0.60360352 0.41137207 1.20720703 0.62329102 1.82910156 C5.15200457 15.00217131 9.73863162 26.77094913 17.9375 38.125 C20 41 20 41 20 43 C20.66 43 21.32 43 22 43 C22 43.66 22 44.32 22 45 C2.95363643 41.88332232 -13.64460596 31.42791629 -28 19 C-21.80489982 12.57880127 -9.65084174 0 0 0 Z " fill="#022031FF" transform="translate(434,358)"/>
<path d="M0 0 C-1.75761603 3.81761762 -4.07182771 7.24869157 -6.375 10.75 C-10.11852882 16.519325 -13.63740471 22.15432817 -15.9453125 28.66796875 C-16.27273438 29.58191406 -16.60015625 30.49585938 -16.9375 31.4375 C-17.21464844 32.28183594 -17.49179687 33.12617188 -17.77734375 33.99609375 C-19 36 -19 36 -21.16015625 37.04296875 C-25.29407487 36.98041977 -28.11598388 35.03272909 -31.5 32.875 C-32.15097656 32.483125 -32.80195313 32.09125 -33.47265625 31.6875 C-37.48416316 29.20765936 -40.86767401 26.57808007 -44 23 C-44 22.34 -44 21.68 -44 21 C-33.43399456 12.14293109 -14.15845197 0 0 0 Z " fill="#022031FF" transform="translate(456,189)"/>
<path d="M0 0 C4.94408291 0.63918829 9.25500848 2.03515951 13.875 3.8125 C14.57882812 4.07949707 15.28265625 4.34649414 16.0078125 4.62158203 C20.83176063 6.47857873 25.45067736 8.53578357 30 11 C30 11.66 30 12.32 30 13 C30.71542969 13.25523437 31.43085937 13.51046875 32.16796875 13.7734375 C35.20246618 15.0876888 37.63188911 16.69496016 40.3125 18.625 C41.19550781 19.25664062 42.07851563 19.88828125 42.98828125 20.5390625 C43.65214844 21.02117187 44.31601562 21.50328125 45 22 C38.5576774 28.8327664 30.67088428 34.32730061 22 38 C20.515 37.505 20.515 37.505 19 37 C17.9296875 34.40234375 17.9296875 34.40234375 16.875 30.9375 C14.47448856 23.54311071 10.91026804 17.08337366 6.98828125 10.3984375 C5 7 5 7 3.91796875 4.6015625 C3.02978773 2.64003131 3.02978773 2.64003131 0 2 C0 1.34 0 0.68 0 0 Z " fill="#022031FF" transform="translate(505,189)"/>
<path d="M0 0 C1.32 0.66 2.64 1.32 4 2 C4 2.66 4 3.32 4 4 C6.64 4 9.28 4 12 4 C8.74333969 5.73426971 5.42547821 6.99026337 1.9375 8.1875 C0.89464844 8.55230469 -0.14820313 8.91710937 -1.22265625 9.29296875 C-4 10 -4 10 -7 9 C-4.69 6.03 -2.38 3.06 0 0 Z " fill="#022031FF" transform="translate(512,393)"/>
<path d="M0 0 C-0.33 1.65 -0.66 3.3 -1 5 C-6.28 5 -11.56 5 -17 5 C-17 4.67 -17 4.34 -17 4 C-16.21753906 3.95101563 -15.43507813 3.90203125 -14.62890625 3.8515625 C-13.61699219 3.77679688 -12.60507812 3.70203125 -11.5625 3.625 C-10.55316406 3.55539062 -9.54382813 3.48578125 -8.50390625 3.4140625 C-7.26447266 3.20910156 -7.26447266 3.20910156 -6 3 C-5.67 2.34 -5.34 1.68 -5 1 C-2 0 -2 0 0 0 Z " fill="#022031FF" transform="translate(582,394)"/>
</svg>
